G04 #@! TF.FileFunction,Legend,Bot*
%FSLAX46Y46*%
G04 Gerber Fmt 4.6, Leading zero omitted, Abs format (unit mm)*
G04 Created by KiCad (PCBNEW 0.201510291901+6286~30~ubuntu14.04.1-product) date Mon 02 Nov 2015 07:58:44 AM PST*
%MOMM*%
G01*
G04 APERTURE LIST*
%ADD10C,0.100000*%
%ADD11C,0.010000*%
G04 APERTURE END LIST*
D10*
D11*
G36*
X133684700Y-83896848D02*
X133499743Y-83909597D01*
X133339517Y-83938488D01*
X133210482Y-83982182D01*
X133167783Y-84004245D01*
X133103957Y-84032065D01*
X133025065Y-84054013D01*
X132998450Y-84058757D01*
X132934237Y-84070512D01*
X132887243Y-84083551D01*
X132875416Y-84089244D01*
X132842495Y-84105683D01*
X132788388Y-84126085D01*
X132776568Y-84129990D01*
X132718850Y-84154212D01*
X132677465Y-84181406D01*
X132673435Y-84185666D01*
X132631702Y-84212211D01*
X132608642Y-84216333D01*
X132570168Y-84224974D01*
X132507578Y-84247595D01*
X132436609Y-84278313D01*
X132301550Y-84340797D01*
X132197468Y-84386254D01*
X132117188Y-84416009D01*
X132053536Y-84431383D01*
X131999338Y-84433699D01*
X131947420Y-84424281D01*
X131890607Y-84404450D01*
X131848136Y-84386806D01*
X131778909Y-84358709D01*
X131720669Y-84340169D01*
X131661181Y-84329222D01*
X131588210Y-84323902D01*
X131489524Y-84322245D01*
X131445699Y-84322166D01*
X131346922Y-84320608D01*
X131264363Y-84316368D01*
X131206796Y-84310098D01*
X131183099Y-84302643D01*
X131156779Y-84287822D01*
X131101725Y-84269845D01*
X131031087Y-84251698D01*
X130958017Y-84236367D01*
X130895666Y-84226838D01*
X130857184Y-84226098D01*
X130852822Y-84227644D01*
X130833367Y-84254738D01*
X130854788Y-84285000D01*
X130906237Y-84312663D01*
X130971083Y-84333589D01*
X131030146Y-84343256D01*
X131034199Y-84343333D01*
X131087660Y-84358770D01*
X131142754Y-84397391D01*
X131145667Y-84400242D01*
X131205460Y-84443327D01*
X131270115Y-84452603D01*
X131332610Y-84460969D01*
X131368784Y-84492498D01*
X131397938Y-84520545D01*
X131414591Y-84513193D01*
X131436860Y-84501711D01*
X131462339Y-84516890D01*
X131498901Y-84531433D01*
X131567172Y-84538358D01*
X131671900Y-84538100D01*
X131687997Y-84537577D01*
X131789465Y-84535939D01*
X131857806Y-84540175D01*
X131901942Y-84551265D01*
X131922916Y-84563402D01*
X131968557Y-84589122D01*
X131998474Y-84596660D01*
X132034564Y-84612081D01*
X132076125Y-84648449D01*
X132077709Y-84650250D01*
X132129768Y-84694082D01*
X132175083Y-84700981D01*
X132194627Y-84688983D01*
X132222942Y-84679192D01*
X132276790Y-84671737D01*
X132298697Y-84670232D01*
X132411405Y-84660429D01*
X132508473Y-84644258D01*
X132580133Y-84623697D01*
X132610833Y-84607014D01*
X132650150Y-84587762D01*
X132712663Y-84570529D01*
X132743163Y-84565055D01*
X132818514Y-84559498D01*
X132872534Y-84571697D01*
X132898649Y-84586156D01*
X132938474Y-84609040D01*
X132961887Y-84605689D01*
X132984477Y-84577982D01*
X133019484Y-84541311D01*
X133045508Y-84537919D01*
X133055333Y-84567443D01*
X133063109Y-84588239D01*
X133093326Y-84592891D01*
X133137828Y-84587116D01*
X133200694Y-84582922D01*
X133233744Y-84595025D01*
X133234540Y-84596185D01*
X133258114Y-84610297D01*
X133279899Y-84592186D01*
X133288166Y-84556015D01*
X133305024Y-84517756D01*
X133342638Y-84497960D01*
X133375670Y-84503836D01*
X133406807Y-84502744D01*
X133425750Y-84491500D01*
X133460264Y-84476182D01*
X133475251Y-84478806D01*
X133503565Y-84475365D01*
X133545976Y-84450652D01*
X133549670Y-84447808D01*
X133604111Y-84417843D01*
X133666343Y-84416521D01*
X133679157Y-84418702D01*
X133732643Y-84423789D01*
X133753150Y-84411358D01*
X133753833Y-84405937D01*
X133768380Y-84377760D01*
X133805860Y-84333435D01*
X133841204Y-84298503D01*
X133915599Y-84207572D01*
X133950215Y-84110796D01*
X133944083Y-84011971D01*
X133926458Y-83965082D01*
X133891416Y-83892369D01*
X133684700Y-83896848D01*
X133684700Y-83896848D01*
G37*
X133684700Y-83896848D02*
X133499743Y-83909597D01*
X133339517Y-83938488D01*
X133210482Y-83982182D01*
X133167783Y-84004245D01*
X133103957Y-84032065D01*
X133025065Y-84054013D01*
X132998450Y-84058757D01*
X132934237Y-84070512D01*
X132887243Y-84083551D01*
X132875416Y-84089244D01*
X132842495Y-84105683D01*
X132788388Y-84126085D01*
X132776568Y-84129990D01*
X132718850Y-84154212D01*
X132677465Y-84181406D01*
X132673435Y-84185666D01*
X132631702Y-84212211D01*
X132608642Y-84216333D01*
X132570168Y-84224974D01*
X132507578Y-84247595D01*
X132436609Y-84278313D01*
X132301550Y-84340797D01*
X132197468Y-84386254D01*
X132117188Y-84416009D01*
X132053536Y-84431383D01*
X131999338Y-84433699D01*
X131947420Y-84424281D01*
X131890607Y-84404450D01*
X131848136Y-84386806D01*
X131778909Y-84358709D01*
X131720669Y-84340169D01*
X131661181Y-84329222D01*
X131588210Y-84323902D01*
X131489524Y-84322245D01*
X131445699Y-84322166D01*
X131346922Y-84320608D01*
X131264363Y-84316368D01*
X131206796Y-84310098D01*
X131183099Y-84302643D01*
X131156779Y-84287822D01*
X131101725Y-84269845D01*
X131031087Y-84251698D01*
X130958017Y-84236367D01*
X130895666Y-84226838D01*
X130857184Y-84226098D01*
X130852822Y-84227644D01*
X130833367Y-84254738D01*
X130854788Y-84285000D01*
X130906237Y-84312663D01*
X130971083Y-84333589D01*
X131030146Y-84343256D01*
X131034199Y-84343333D01*
X131087660Y-84358770D01*
X131142754Y-84397391D01*
X131145667Y-84400242D01*
X131205460Y-84443327D01*
X131270115Y-84452603D01*
X131332610Y-84460969D01*
X131368784Y-84492498D01*
X131397938Y-84520545D01*
X131414591Y-84513193D01*
X131436860Y-84501711D01*
X131462339Y-84516890D01*
X131498901Y-84531433D01*
X131567172Y-84538358D01*
X131671900Y-84538100D01*
X131687997Y-84537577D01*
X131789465Y-84535939D01*
X131857806Y-84540175D01*
X131901942Y-84551265D01*
X131922916Y-84563402D01*
X131968557Y-84589122D01*
X131998474Y-84596660D01*
X132034564Y-84612081D01*
X132076125Y-84648449D01*
X132077709Y-84650250D01*
X132129768Y-84694082D01*
X132175083Y-84700981D01*
X132194627Y-84688983D01*
X132222942Y-84679192D01*
X132276790Y-84671737D01*
X132298697Y-84670232D01*
X132411405Y-84660429D01*
X132508473Y-84644258D01*
X132580133Y-84623697D01*
X132610833Y-84607014D01*
X132650150Y-84587762D01*
X132712663Y-84570529D01*
X132743163Y-84565055D01*
X132818514Y-84559498D01*
X132872534Y-84571697D01*
X132898649Y-84586156D01*
X132938474Y-84609040D01*
X132961887Y-84605689D01*
X132984477Y-84577982D01*
X133019484Y-84541311D01*
X133045508Y-84537919D01*
X133055333Y-84567443D01*
X133063109Y-84588239D01*
X133093326Y-84592891D01*
X133137828Y-84587116D01*
X133200694Y-84582922D01*
X133233744Y-84595025D01*
X133234540Y-84596185D01*
X133258114Y-84610297D01*
X133279899Y-84592186D01*
X133288166Y-84556015D01*
X133305024Y-84517756D01*
X133342638Y-84497960D01*
X133375670Y-84503836D01*
X133406807Y-84502744D01*
X133425750Y-84491500D01*
X133460264Y-84476182D01*
X133475251Y-84478806D01*
X133503565Y-84475365D01*
X133545976Y-84450652D01*
X133549670Y-84447808D01*
X133604111Y-84417843D01*
X133666343Y-84416521D01*
X133679157Y-84418702D01*
X133732643Y-84423789D01*
X133753150Y-84411358D01*
X133753833Y-84405937D01*
X133768380Y-84377760D01*
X133805860Y-84333435D01*
X133841204Y-84298503D01*
X133915599Y-84207572D01*
X133950215Y-84110796D01*
X133944083Y-84011971D01*
X133926458Y-83965082D01*
X133891416Y-83892369D01*
X133684700Y-83896848D01*
G36*
X132482506Y-83883407D02*
X132448343Y-83909506D01*
X132446632Y-83934766D01*
X132460209Y-83959081D01*
X132476549Y-83968562D01*
X132494078Y-83940868D01*
X132500891Y-83922689D01*
X132514205Y-83879862D01*
X132509063Y-83869300D01*
X132482506Y-83883407D01*
X132482506Y-83883407D01*
G37*
X132482506Y-83883407D02*
X132448343Y-83909506D01*
X132446632Y-83934766D01*
X132460209Y-83959081D01*
X132476549Y-83968562D01*
X132494078Y-83940868D01*
X132500891Y-83922689D01*
X132514205Y-83879862D01*
X132509063Y-83869300D01*
X132482506Y-83883407D01*
G36*
X132786874Y-83916031D02*
X132784351Y-83949112D01*
X132788545Y-83956600D01*
X132798165Y-83950287D01*
X132799662Y-83928819D01*
X132794493Y-83906233D01*
X132786874Y-83916031D01*
X132786874Y-83916031D01*
G37*
X132786874Y-83916031D02*
X132784351Y-83949112D01*
X132788545Y-83956600D01*
X132798165Y-83950287D01*
X132799662Y-83928819D01*
X132794493Y-83906233D01*
X132786874Y-83916031D01*
G36*
X133034166Y-83930583D02*
X133044750Y-83941166D01*
X133055333Y-83930583D01*
X133044750Y-83920000D01*
X133034166Y-83930583D01*
X133034166Y-83930583D01*
G37*
X133034166Y-83930583D02*
X133044750Y-83941166D01*
X133055333Y-83930583D01*
X133044750Y-83920000D01*
X133034166Y-83930583D01*
G36*
X133061909Y-83777125D02*
X133058617Y-83830808D01*
X133061909Y-83851208D01*
X133068044Y-83857795D01*
X133071384Y-83828527D01*
X133071589Y-83814166D01*
X133069382Y-83775657D01*
X133063888Y-83771119D01*
X133061909Y-83777125D01*
X133061909Y-83777125D01*
G37*
X133061909Y-83777125D02*
X133058617Y-83830808D01*
X133061909Y-83851208D01*
X133068044Y-83857795D01*
X133071384Y-83828527D01*
X133071589Y-83814166D01*
X133069382Y-83775657D01*
X133063888Y-83771119D01*
X133061909Y-83777125D01*
G36*
X132806942Y-83700382D02*
X132788067Y-83710559D01*
X132764630Y-83743415D01*
X132760315Y-83776687D01*
X132777103Y-83792945D01*
X132778694Y-83793000D01*
X132797520Y-83810935D01*
X132807562Y-83840625D01*
X132815042Y-83867547D01*
X132819434Y-83852806D01*
X132819617Y-83850544D01*
X132837875Y-83811944D01*
X132854250Y-83800654D01*
X132881513Y-83772290D01*
X132881888Y-83732366D01*
X132855924Y-83701561D01*
X132851567Y-83699649D01*
X132806942Y-83700382D01*
X132806942Y-83700382D01*
G37*
X132806942Y-83700382D02*
X132788067Y-83710559D01*
X132764630Y-83743415D01*
X132760315Y-83776687D01*
X132777103Y-83792945D01*
X132778694Y-83793000D01*
X132797520Y-83810935D01*
X132807562Y-83840625D01*
X132815042Y-83867547D01*
X132819434Y-83852806D01*
X132819617Y-83850544D01*
X132837875Y-83811944D01*
X132854250Y-83800654D01*
X132881513Y-83772290D01*
X132881888Y-83732366D01*
X132855924Y-83701561D01*
X132851567Y-83699649D01*
X132806942Y-83700382D01*
G36*
X131870000Y-83740083D02*
X131880583Y-83750666D01*
X131891166Y-83740083D01*
X131880583Y-83729500D01*
X131870000Y-83740083D01*
X131870000Y-83740083D01*
G37*
X131870000Y-83740083D02*
X131880583Y-83750666D01*
X131891166Y-83740083D01*
X131880583Y-83729500D01*
X131870000Y-83740083D01*
G36*
X133747861Y-83684145D02*
X133732666Y-83707669D01*
X133747987Y-83726619D01*
X133779901Y-83726451D01*
X133807338Y-83707374D01*
X133807620Y-83706925D01*
X133813012Y-83678090D01*
X133809782Y-83672560D01*
X133781485Y-83668413D01*
X133747861Y-83684145D01*
X133747861Y-83684145D01*
G37*
X133747861Y-83684145D02*
X133732666Y-83707669D01*
X133747987Y-83726619D01*
X133779901Y-83726451D01*
X133807338Y-83707374D01*
X133807620Y-83706925D01*
X133813012Y-83678090D01*
X133809782Y-83672560D01*
X133781485Y-83668413D01*
X133747861Y-83684145D01*
G36*
X133024801Y-83618699D02*
X133009542Y-83656753D01*
X133022375Y-83692518D01*
X133059960Y-83725738D01*
X133091455Y-83718446D01*
X133108190Y-83687356D01*
X133111625Y-83635135D01*
X133086313Y-83605821D01*
X133067259Y-83602500D01*
X133024801Y-83618699D01*
X133024801Y-83618699D01*
G37*
X133024801Y-83618699D02*
X133009542Y-83656753D01*
X133022375Y-83692518D01*
X133059960Y-83725738D01*
X133091455Y-83718446D01*
X133108190Y-83687356D01*
X133111625Y-83635135D01*
X133086313Y-83605821D01*
X133067259Y-83602500D01*
X133024801Y-83618699D01*
G36*
X132556870Y-83677152D02*
X132556071Y-83700755D01*
X132583328Y-83722029D01*
X132596712Y-83725760D01*
X132626921Y-83716642D01*
X132632000Y-83699302D01*
X132614195Y-83671822D01*
X132587903Y-83666000D01*
X132556870Y-83677152D01*
X132556870Y-83677152D01*
G37*
X132556870Y-83677152D02*
X132556071Y-83700755D01*
X132583328Y-83722029D01*
X132596712Y-83725760D01*
X132626921Y-83716642D01*
X132632000Y-83699302D01*
X132614195Y-83671822D01*
X132587903Y-83666000D01*
X132556870Y-83677152D01*
G36*
X133544555Y-83661977D02*
X133542166Y-83676583D01*
X133553596Y-83704751D01*
X133563333Y-83708333D01*
X133582112Y-83691189D01*
X133584500Y-83676583D01*
X133573070Y-83648415D01*
X133563333Y-83644833D01*
X133544555Y-83661977D01*
X133544555Y-83661977D01*
G37*
X133544555Y-83661977D02*
X133542166Y-83676583D01*
X133553596Y-83704751D01*
X133563333Y-83708333D01*
X133582112Y-83691189D01*
X133584500Y-83676583D01*
X133573070Y-83648415D01*
X133563333Y-83644833D01*
X133544555Y-83661977D01*
G36*
X133356274Y-83655336D02*
X133335351Y-83683197D01*
X133344563Y-83704789D01*
X133360486Y-83708333D01*
X133389644Y-83691290D01*
X133394000Y-83674819D01*
X133381661Y-83651639D01*
X133356274Y-83655336D01*
X133356274Y-83655336D01*
G37*
X133356274Y-83655336D02*
X133335351Y-83683197D01*
X133344563Y-83704789D01*
X133360486Y-83708333D01*
X133389644Y-83691290D01*
X133394000Y-83674819D01*
X133381661Y-83651639D01*
X133356274Y-83655336D01*
G36*
X133169633Y-83632133D02*
X133168732Y-83674449D01*
X133178829Y-83692128D01*
X133201900Y-83700905D01*
X133216200Y-83678700D01*
X133217101Y-83636383D01*
X133207004Y-83618704D01*
X133183933Y-83609928D01*
X133169633Y-83632133D01*
X133169633Y-83632133D01*
G37*
X133169633Y-83632133D02*
X133168732Y-83674449D01*
X133178829Y-83692128D01*
X133201900Y-83700905D01*
X133216200Y-83678700D01*
X133217101Y-83636383D01*
X133207004Y-83618704D01*
X133183933Y-83609928D01*
X133169633Y-83632133D01*
G36*
X132317770Y-83674562D02*
X132295225Y-83694238D01*
X132293333Y-83698999D01*
X132303378Y-83707698D01*
X132324292Y-83688205D01*
X132327104Y-83683896D01*
X132329599Y-83669411D01*
X132317770Y-83674562D01*
X132317770Y-83674562D01*
G37*
X132317770Y-83674562D02*
X132295225Y-83694238D01*
X132293333Y-83698999D01*
X132303378Y-83707698D01*
X132324292Y-83688205D01*
X132327104Y-83683896D01*
X132329599Y-83669411D01*
X132317770Y-83674562D01*
G36*
X133965500Y-83632486D02*
X133982542Y-83661644D01*
X133999014Y-83666000D01*
X134023700Y-83653692D01*
X134024149Y-83640864D01*
X134003081Y-83612912D01*
X133977718Y-83609358D01*
X133965500Y-83632486D01*
X133965500Y-83632486D01*
G37*
X133965500Y-83632486D02*
X133982542Y-83661644D01*
X133999014Y-83666000D01*
X134023700Y-83653692D01*
X134024149Y-83640864D01*
X134003081Y-83612912D01*
X133977718Y-83609358D01*
X133965500Y-83632486D01*
G36*
X133675552Y-83606970D02*
X133669166Y-83624915D01*
X133682485Y-83643550D01*
X133709264Y-83636926D01*
X133722954Y-83622258D01*
X133728670Y-83593753D01*
X133725611Y-83588388D01*
X133700854Y-83586792D01*
X133675552Y-83606970D01*
X133675552Y-83606970D01*
G37*
X133675552Y-83606970D02*
X133669166Y-83624915D01*
X133682485Y-83643550D01*
X133709264Y-83636926D01*
X133722954Y-83622258D01*
X133728670Y-83593753D01*
X133725611Y-83588388D01*
X133700854Y-83586792D01*
X133675552Y-83606970D01*
G36*
X132081666Y-83634250D02*
X132092250Y-83644833D01*
X132102833Y-83634250D01*
X132092250Y-83623666D01*
X132081666Y-83634250D01*
X132081666Y-83634250D01*
G37*
X132081666Y-83634250D02*
X132092250Y-83644833D01*
X132102833Y-83634250D01*
X132092250Y-83623666D01*
X132081666Y-83634250D01*
G36*
X133449561Y-83575160D02*
X133446615Y-83601280D01*
X133448741Y-83605452D01*
X133474446Y-83621422D01*
X133506184Y-83620841D01*
X133521000Y-83604764D01*
X133504133Y-83581658D01*
X133470717Y-83569699D01*
X133449561Y-83575160D01*
X133449561Y-83575160D01*
G37*
X133449561Y-83575160D02*
X133446615Y-83601280D01*
X133448741Y-83605452D01*
X133474446Y-83621422D01*
X133506184Y-83620841D01*
X133521000Y-83604764D01*
X133504133Y-83581658D01*
X133470717Y-83569699D01*
X133449561Y-83575160D01*
G36*
X134162641Y-83573839D02*
X134166583Y-83581333D01*
X134186527Y-83601547D01*
X134190248Y-83602500D01*
X134191692Y-83588827D01*
X134187750Y-83581333D01*
X134167806Y-83561119D01*
X134164085Y-83560166D01*
X134162641Y-83573839D01*
X134162641Y-83573839D01*
G37*
X134162641Y-83573839D02*
X134166583Y-83581333D01*
X134186527Y-83601547D01*
X134190248Y-83602500D01*
X134191692Y-83588827D01*
X134187750Y-83581333D01*
X134167806Y-83561119D01*
X134164085Y-83560166D01*
X134162641Y-83573839D01*
G36*
X133606282Y-83576273D02*
X133605666Y-83581333D01*
X133621774Y-83601884D01*
X133626833Y-83602500D01*
X133647385Y-83586392D01*
X133648000Y-83581333D01*
X133631893Y-83560781D01*
X133626833Y-83560166D01*
X133606282Y-83576273D01*
X133606282Y-83576273D01*
G37*
X133606282Y-83576273D02*
X133605666Y-83581333D01*
X133621774Y-83601884D01*
X133626833Y-83602500D01*
X133647385Y-83586392D01*
X133648000Y-83581333D01*
X133631893Y-83560781D01*
X133626833Y-83560166D01*
X133606282Y-83576273D01*
G36*
X133292609Y-83555764D02*
X133288166Y-83571414D01*
X133305124Y-83598896D01*
X133319916Y-83602500D01*
X133348102Y-83592273D01*
X133351666Y-83583597D01*
X133334822Y-83560458D01*
X133319916Y-83552512D01*
X133292609Y-83555764D01*
X133292609Y-83555764D01*
G37*
X133292609Y-83555764D02*
X133288166Y-83571414D01*
X133305124Y-83598896D01*
X133319916Y-83602500D01*
X133348102Y-83592273D01*
X133351666Y-83583597D01*
X133334822Y-83560458D01*
X133319916Y-83552512D01*
X133292609Y-83555764D01*
G36*
X132855673Y-83503775D02*
X132826635Y-83531707D01*
X132822500Y-83548919D01*
X132838851Y-83573642D01*
X132874609Y-83580805D01*
X132909833Y-83568464D01*
X132918890Y-83558322D01*
X132920251Y-83526428D01*
X132894265Y-83503960D01*
X132855784Y-83503732D01*
X132855673Y-83503775D01*
X132855673Y-83503775D01*
G37*
X132855673Y-83503775D02*
X132826635Y-83531707D01*
X132822500Y-83548919D01*
X132838851Y-83573642D01*
X132874609Y-83580805D01*
X132909833Y-83568464D01*
X132918890Y-83558322D01*
X132920251Y-83526428D01*
X132894265Y-83503960D01*
X132855784Y-83503732D01*
X132855673Y-83503775D01*
G36*
X133817335Y-83512630D02*
X133817333Y-83513600D01*
X133822539Y-83554048D01*
X133838134Y-83553483D01*
X133850223Y-83537155D01*
X133850208Y-83504215D01*
X133840889Y-83490589D01*
X133822732Y-83482683D01*
X133817335Y-83512630D01*
X133817335Y-83512630D01*
G37*
X133817335Y-83512630D02*
X133817333Y-83513600D01*
X133822539Y-83554048D01*
X133838134Y-83553483D01*
X133850223Y-83537155D01*
X133850208Y-83504215D01*
X133840889Y-83490589D01*
X133822732Y-83482683D01*
X133817335Y-83512630D01*
G36*
X133685506Y-82116400D02*
X133678585Y-82122718D01*
X133683476Y-82140233D01*
X133694376Y-82142324D01*
X133708873Y-82147716D01*
X133691175Y-82162198D01*
X133672319Y-82181372D01*
X133683607Y-82206814D01*
X133696466Y-82221749D01*
X133723873Y-82259225D01*
X133732023Y-82281250D01*
X133723129Y-82281833D01*
X133708383Y-82261168D01*
X133685195Y-82237542D01*
X133671947Y-82243334D01*
X133645138Y-82256219D01*
X133589193Y-82267582D01*
X133530415Y-82273802D01*
X133458143Y-82280774D01*
X133401995Y-82289913D01*
X133378458Y-82297273D01*
X133350074Y-82300261D01*
X133343766Y-82294506D01*
X133314182Y-82281456D01*
X133260379Y-82280640D01*
X133198009Y-82290062D01*
X133142721Y-82307728D01*
X133117212Y-82323383D01*
X133085698Y-82347500D01*
X133061897Y-82343112D01*
X133032983Y-82314938D01*
X133009650Y-82283182D01*
X133011629Y-82269045D01*
X133012589Y-82269000D01*
X133026061Y-82251414D01*
X133025399Y-82216083D01*
X133024847Y-82176739D01*
X133035568Y-82163166D01*
X133054375Y-82146699D01*
X133055333Y-82139408D01*
X133046088Y-82127374D01*
X133025061Y-82140773D01*
X133003231Y-82180802D01*
X133002679Y-82206864D01*
X133000758Y-82240101D01*
X132990618Y-82247833D01*
X132971425Y-82231528D01*
X132970666Y-82225417D01*
X132956988Y-82214026D01*
X132944208Y-82218897D01*
X132931435Y-82221694D01*
X132946800Y-82198979D01*
X132964120Y-82175462D01*
X132963042Y-82166339D01*
X132938031Y-82172503D01*
X132883548Y-82194848D01*
X132831814Y-82217542D01*
X132728080Y-82268684D01*
X132627404Y-82327544D01*
X132539600Y-82387590D01*
X132474478Y-82442292D01*
X132448380Y-82472763D01*
X132432465Y-82502562D01*
X132427960Y-82534704D01*
X132435579Y-82581206D01*
X132456041Y-82654083D01*
X132459963Y-82667048D01*
X132493869Y-82757573D01*
X132537659Y-82846889D01*
X132574779Y-82905562D01*
X132617112Y-82964900D01*
X132649003Y-83015648D01*
X132659427Y-83036609D01*
X132688629Y-83072040D01*
X132726862Y-83094352D01*
X132765338Y-83114572D01*
X132777815Y-83131076D01*
X132781141Y-83175741D01*
X132814621Y-83198486D01*
X132848958Y-83204283D01*
X132896700Y-83216007D01*
X132920062Y-83235579D01*
X132920396Y-83237375D01*
X132924961Y-83279031D01*
X132925687Y-83285000D01*
X132946103Y-83299914D01*
X132991524Y-83306166D01*
X132991833Y-83306166D01*
X133038313Y-83312819D01*
X133054678Y-83337572D01*
X133055333Y-83348500D01*
X133063941Y-83381527D01*
X133096089Y-83393890D01*
X133144159Y-83392132D01*
X133178886Y-83407501D01*
X133213020Y-83452303D01*
X133214051Y-83454271D01*
X133244673Y-83499165D01*
X133276670Y-83509737D01*
X133289267Y-83506900D01*
X133323187Y-83505764D01*
X133330500Y-83518267D01*
X133347803Y-83532929D01*
X133401298Y-83530638D01*
X133412994Y-83528783D01*
X133475072Y-83524555D01*
X133508379Y-83535953D01*
X133509493Y-83537506D01*
X133538814Y-83558937D01*
X133575124Y-83538867D01*
X133584500Y-83528416D01*
X133624945Y-83501307D01*
X133648157Y-83496666D01*
X133685532Y-83480242D01*
X133721224Y-83442090D01*
X133754580Y-83406906D01*
X133785136Y-83398322D01*
X133785537Y-83398469D01*
X133813158Y-83388785D01*
X133836330Y-83345625D01*
X133857068Y-83305659D01*
X133877746Y-83293896D01*
X133879384Y-83294687D01*
X133901579Y-83286711D01*
X133929428Y-83250504D01*
X133934409Y-83241391D01*
X133959974Y-83201165D01*
X133979131Y-83186822D01*
X133981365Y-83187975D01*
X133995910Y-83179645D01*
X134015892Y-83141259D01*
X134037080Y-83083977D01*
X134055245Y-83018959D01*
X134064942Y-82967500D01*
X134074853Y-82893416D01*
X133935510Y-82900514D01*
X133858793Y-82900348D01*
X133809827Y-82892369D01*
X133792420Y-82879006D01*
X133810380Y-82862689D01*
X133854375Y-82848758D01*
X133975546Y-82803397D01*
X134063765Y-82734554D01*
X134116980Y-82646283D01*
X134133136Y-82542636D01*
X134110181Y-82427667D01*
X134090851Y-82382010D01*
X134060017Y-82330844D01*
X133299733Y-82330844D01*
X133299610Y-82331056D01*
X133275858Y-82341691D01*
X133234997Y-82345898D01*
X133197161Y-82343154D01*
X133197045Y-82343083D01*
X133161166Y-82343083D01*
X133150583Y-82353666D01*
X133140000Y-82343083D01*
X133150583Y-82332500D01*
X133161166Y-82343083D01*
X133197045Y-82343083D01*
X133182333Y-82334109D01*
X133200724Y-82323443D01*
X133244704Y-82319030D01*
X133286238Y-82322493D01*
X133299733Y-82330844D01*
X134060017Y-82330844D01*
X134052859Y-82318967D01*
X134020627Y-82279583D01*
X133986666Y-82279583D01*
X133976083Y-82290166D01*
X133965500Y-82279583D01*
X133976083Y-82269000D01*
X133986666Y-82279583D01*
X134020627Y-82279583D01*
X134005477Y-82261073D01*
X133983853Y-82241164D01*
X133964168Y-82241164D01*
X133950727Y-82247740D01*
X133946612Y-82247833D01*
X133930677Y-82260249D01*
X133933750Y-82269000D01*
X133930805Y-82288447D01*
X133922151Y-82290166D01*
X133907046Y-82274363D01*
X133910371Y-82253125D01*
X133917922Y-82227788D01*
X133907639Y-82236399D01*
X133894667Y-82252795D01*
X133864696Y-82276830D01*
X133847820Y-82267634D01*
X133852216Y-82236718D01*
X133878744Y-82217474D01*
X133906538Y-82216957D01*
X133946662Y-82228763D01*
X133964168Y-82241164D01*
X133983853Y-82241164D01*
X133957418Y-82216827D01*
X133917397Y-82194731D01*
X133900208Y-82196024D01*
X133883911Y-82189306D01*
X133879986Y-82169707D01*
X133873918Y-82153640D01*
X133855663Y-82174650D01*
X133843802Y-82194916D01*
X133820838Y-82240970D01*
X133811574Y-82269316D01*
X133811724Y-82270763D01*
X133797806Y-82281783D01*
X133784407Y-82283111D01*
X133762972Y-82277627D01*
X133764233Y-82272711D01*
X133762053Y-82250181D01*
X133752440Y-82235571D01*
X133743633Y-82216968D01*
X133769590Y-82219121D01*
X133770871Y-82219453D01*
X133811158Y-82214137D01*
X133824333Y-82196622D01*
X133824375Y-82194916D01*
X133796166Y-82194916D01*
X133785583Y-82205500D01*
X133775000Y-82194916D01*
X133785583Y-82184333D01*
X133796166Y-82194916D01*
X133824375Y-82194916D01*
X133825037Y-82168369D01*
X133815420Y-82163166D01*
X133803549Y-82150090D01*
X133807074Y-82141475D01*
X133808836Y-82123396D01*
X133803031Y-82122815D01*
X133775000Y-82121720D01*
X133723771Y-82110407D01*
X133685506Y-82116400D01*
X133685506Y-82116400D01*
G37*
X133685506Y-82116400D02*
X133678585Y-82122718D01*
X133683476Y-82140233D01*
X133694376Y-82142324D01*
X133708873Y-82147716D01*
X133691175Y-82162198D01*
X133672319Y-82181372D01*
X133683607Y-82206814D01*
X133696466Y-82221749D01*
X133723873Y-82259225D01*
X133732023Y-82281250D01*
X133723129Y-82281833D01*
X133708383Y-82261168D01*
X133685195Y-82237542D01*
X133671947Y-82243334D01*
X133645138Y-82256219D01*
X133589193Y-82267582D01*
X133530415Y-82273802D01*
X133458143Y-82280774D01*
X133401995Y-82289913D01*
X133378458Y-82297273D01*
X133350074Y-82300261D01*
X133343766Y-82294506D01*
X133314182Y-82281456D01*
X133260379Y-82280640D01*
X133198009Y-82290062D01*
X133142721Y-82307728D01*
X133117212Y-82323383D01*
X133085698Y-82347500D01*
X133061897Y-82343112D01*
X133032983Y-82314938D01*
X133009650Y-82283182D01*
X133011629Y-82269045D01*
X133012589Y-82269000D01*
X133026061Y-82251414D01*
X133025399Y-82216083D01*
X133024847Y-82176739D01*
X133035568Y-82163166D01*
X133054375Y-82146699D01*
X133055333Y-82139408D01*
X133046088Y-82127374D01*
X133025061Y-82140773D01*
X133003231Y-82180802D01*
X133002679Y-82206864D01*
X133000758Y-82240101D01*
X132990618Y-82247833D01*
X132971425Y-82231528D01*
X132970666Y-82225417D01*
X132956988Y-82214026D01*
X132944208Y-82218897D01*
X132931435Y-82221694D01*
X132946800Y-82198979D01*
X132964120Y-82175462D01*
X132963042Y-82166339D01*
X132938031Y-82172503D01*
X132883548Y-82194848D01*
X132831814Y-82217542D01*
X132728080Y-82268684D01*
X132627404Y-82327544D01*
X132539600Y-82387590D01*
X132474478Y-82442292D01*
X132448380Y-82472763D01*
X132432465Y-82502562D01*
X132427960Y-82534704D01*
X132435579Y-82581206D01*
X132456041Y-82654083D01*
X132459963Y-82667048D01*
X132493869Y-82757573D01*
X132537659Y-82846889D01*
X132574779Y-82905562D01*
X132617112Y-82964900D01*
X132649003Y-83015648D01*
X132659427Y-83036609D01*
X132688629Y-83072040D01*
X132726862Y-83094352D01*
X132765338Y-83114572D01*
X132777815Y-83131076D01*
X132781141Y-83175741D01*
X132814621Y-83198486D01*
X132848958Y-83204283D01*
X132896700Y-83216007D01*
X132920062Y-83235579D01*
X132920396Y-83237375D01*
X132924961Y-83279031D01*
X132925687Y-83285000D01*
X132946103Y-83299914D01*
X132991524Y-83306166D01*
X132991833Y-83306166D01*
X133038313Y-83312819D01*
X133054678Y-83337572D01*
X133055333Y-83348500D01*
X133063941Y-83381527D01*
X133096089Y-83393890D01*
X133144159Y-83392132D01*
X133178886Y-83407501D01*
X133213020Y-83452303D01*
X133214051Y-83454271D01*
X133244673Y-83499165D01*
X133276670Y-83509737D01*
X133289267Y-83506900D01*
X133323187Y-83505764D01*
X133330500Y-83518267D01*
X133347803Y-83532929D01*
X133401298Y-83530638D01*
X133412994Y-83528783D01*
X133475072Y-83524555D01*
X133508379Y-83535953D01*
X133509493Y-83537506D01*
X133538814Y-83558937D01*
X133575124Y-83538867D01*
X133584500Y-83528416D01*
X133624945Y-83501307D01*
X133648157Y-83496666D01*
X133685532Y-83480242D01*
X133721224Y-83442090D01*
X133754580Y-83406906D01*
X133785136Y-83398322D01*
X133785537Y-83398469D01*
X133813158Y-83388785D01*
X133836330Y-83345625D01*
X133857068Y-83305659D01*
X133877746Y-83293896D01*
X133879384Y-83294687D01*
X133901579Y-83286711D01*
X133929428Y-83250504D01*
X133934409Y-83241391D01*
X133959974Y-83201165D01*
X133979131Y-83186822D01*
X133981365Y-83187975D01*
X133995910Y-83179645D01*
X134015892Y-83141259D01*
X134037080Y-83083977D01*
X134055245Y-83018959D01*
X134064942Y-82967500D01*
X134074853Y-82893416D01*
X133935510Y-82900514D01*
X133858793Y-82900348D01*
X133809827Y-82892369D01*
X133792420Y-82879006D01*
X133810380Y-82862689D01*
X133854375Y-82848758D01*
X133975546Y-82803397D01*
X134063765Y-82734554D01*
X134116980Y-82646283D01*
X134133136Y-82542636D01*
X134110181Y-82427667D01*
X134090851Y-82382010D01*
X134060017Y-82330844D01*
X133299733Y-82330844D01*
X133299610Y-82331056D01*
X133275858Y-82341691D01*
X133234997Y-82345898D01*
X133197161Y-82343154D01*
X133197045Y-82343083D01*
X133161166Y-82343083D01*
X133150583Y-82353666D01*
X133140000Y-82343083D01*
X133150583Y-82332500D01*
X133161166Y-82343083D01*
X133197045Y-82343083D01*
X133182333Y-82334109D01*
X133200724Y-82323443D01*
X133244704Y-82319030D01*
X133286238Y-82322493D01*
X133299733Y-82330844D01*
X134060017Y-82330844D01*
X134052859Y-82318967D01*
X134020627Y-82279583D01*
X133986666Y-82279583D01*
X133976083Y-82290166D01*
X133965500Y-82279583D01*
X133976083Y-82269000D01*
X133986666Y-82279583D01*
X134020627Y-82279583D01*
X134005477Y-82261073D01*
X133983853Y-82241164D01*
X133964168Y-82241164D01*
X133950727Y-82247740D01*
X133946612Y-82247833D01*
X133930677Y-82260249D01*
X133933750Y-82269000D01*
X133930805Y-82288447D01*
X133922151Y-82290166D01*
X133907046Y-82274363D01*
X133910371Y-82253125D01*
X133917922Y-82227788D01*
X133907639Y-82236399D01*
X133894667Y-82252795D01*
X133864696Y-82276830D01*
X133847820Y-82267634D01*
X133852216Y-82236718D01*
X133878744Y-82217474D01*
X133906538Y-82216957D01*
X133946662Y-82228763D01*
X133964168Y-82241164D01*
X133983853Y-82241164D01*
X133957418Y-82216827D01*
X133917397Y-82194731D01*
X133900208Y-82196024D01*
X133883911Y-82189306D01*
X133879986Y-82169707D01*
X133873918Y-82153640D01*
X133855663Y-82174650D01*
X133843802Y-82194916D01*
X133820838Y-82240970D01*
X133811574Y-82269316D01*
X133811724Y-82270763D01*
X133797806Y-82281783D01*
X133784407Y-82283111D01*
X133762972Y-82277627D01*
X133764233Y-82272711D01*
X133762053Y-82250181D01*
X133752440Y-82235571D01*
X133743633Y-82216968D01*
X133769590Y-82219121D01*
X133770871Y-82219453D01*
X133811158Y-82214137D01*
X133824333Y-82196622D01*
X133824375Y-82194916D01*
X133796166Y-82194916D01*
X133785583Y-82205500D01*
X133775000Y-82194916D01*
X133785583Y-82184333D01*
X133796166Y-82194916D01*
X133824375Y-82194916D01*
X133825037Y-82168369D01*
X133815420Y-82163166D01*
X133803549Y-82150090D01*
X133807074Y-82141475D01*
X133808836Y-82123396D01*
X133803031Y-82122815D01*
X133775000Y-82121720D01*
X133723771Y-82110407D01*
X133685506Y-82116400D01*
G36*
X134182899Y-83526211D02*
X134189212Y-83535832D01*
X134210680Y-83537328D01*
X134233266Y-83532159D01*
X134223469Y-83524540D01*
X134190388Y-83522017D01*
X134182899Y-83526211D01*
X134182899Y-83526211D01*
G37*
X134182899Y-83526211D02*
X134189212Y-83535832D01*
X134210680Y-83537328D01*
X134233266Y-83532159D01*
X134223469Y-83524540D01*
X134190388Y-83522017D01*
X134182899Y-83526211D01*
G36*
X133717885Y-83501137D02*
X133711500Y-83519082D01*
X133724818Y-83537717D01*
X133751597Y-83531093D01*
X133765287Y-83516425D01*
X133771003Y-83487919D01*
X133767944Y-83482555D01*
X133743187Y-83480959D01*
X133717885Y-83501137D01*
X133717885Y-83501137D01*
G37*
X133717885Y-83501137D02*
X133711500Y-83519082D01*
X133724818Y-83537717D01*
X133751597Y-83531093D01*
X133765287Y-83516425D01*
X133771003Y-83487919D01*
X133767944Y-83482555D01*
X133743187Y-83480959D01*
X133717885Y-83501137D01*
G36*
X133082025Y-83472484D02*
X133076500Y-83495114D01*
X133090445Y-83531302D01*
X133120385Y-83539000D01*
X133154119Y-83527594D01*
X133157184Y-83502201D01*
X133137507Y-83467942D01*
X133106999Y-83457557D01*
X133082025Y-83472484D01*
X133082025Y-83472484D01*
G37*
X133082025Y-83472484D02*
X133076500Y-83495114D01*
X133090445Y-83531302D01*
X133120385Y-83539000D01*
X133154119Y-83527594D01*
X133157184Y-83502201D01*
X133137507Y-83467942D01*
X133106999Y-83457557D01*
X133082025Y-83472484D01*
G36*
X132970666Y-83505486D02*
X132987709Y-83534644D01*
X133004180Y-83539000D01*
X133028867Y-83526692D01*
X133029316Y-83513864D01*
X133008248Y-83485912D01*
X132982884Y-83482358D01*
X132970666Y-83505486D01*
X132970666Y-83505486D01*
G37*
X132970666Y-83505486D02*
X132987709Y-83534644D01*
X133004180Y-83539000D01*
X133028867Y-83526692D01*
X133029316Y-83513864D01*
X133008248Y-83485912D01*
X132982884Y-83482358D01*
X132970666Y-83505486D01*
G36*
X132661680Y-83468639D02*
X132634430Y-83494050D01*
X132638999Y-83523756D01*
X132672008Y-83538957D01*
X132674333Y-83539000D01*
X132708674Y-83527231D01*
X132716666Y-83510777D01*
X132703911Y-83471265D01*
X132668153Y-83466442D01*
X132661680Y-83468639D01*
X132661680Y-83468639D01*
G37*
X132661680Y-83468639D02*
X132634430Y-83494050D01*
X132638999Y-83523756D01*
X132672008Y-83538957D01*
X132674333Y-83539000D01*
X132708674Y-83527231D01*
X132716666Y-83510777D01*
X132703911Y-83471265D01*
X132668153Y-83466442D01*
X132661680Y-83468639D01*
G36*
X134087208Y-83503815D02*
X134084549Y-83511540D01*
X134113666Y-83514491D01*
X134143715Y-83511164D01*
X134140125Y-83503815D01*
X134096789Y-83501019D01*
X134087208Y-83503815D01*
X134087208Y-83503815D01*
G37*
X134087208Y-83503815D02*
X134084549Y-83511540D01*
X134113666Y-83514491D01*
X134143715Y-83511164D01*
X134140125Y-83503815D01*
X134096789Y-83501019D01*
X134087208Y-83503815D01*
G36*
X133959805Y-83482782D02*
X133959102Y-83489731D01*
X133992237Y-83492569D01*
X133997250Y-83492540D01*
X134030078Y-83489488D01*
X134026945Y-83483045D01*
X134023305Y-83481998D01*
X133977198Y-83478899D01*
X133959805Y-83482782D01*
X133959805Y-83482782D01*
G37*
X133959805Y-83482782D02*
X133959102Y-83489731D01*
X133992237Y-83492569D01*
X133997250Y-83492540D01*
X134030078Y-83489488D01*
X134026945Y-83483045D01*
X134023305Y-83481998D01*
X133977198Y-83478899D01*
X133959805Y-83482782D01*
G36*
X134240666Y-83464916D02*
X134251250Y-83475500D01*
X134261833Y-83464916D01*
X134251250Y-83454333D01*
X134240666Y-83464916D01*
X134240666Y-83464916D01*
G37*
X134240666Y-83464916D02*
X134251250Y-83475500D01*
X134261833Y-83464916D01*
X134251250Y-83454333D01*
X134240666Y-83464916D01*
G36*
X134161732Y-83441545D02*
X134168045Y-83451165D01*
X134189514Y-83452662D01*
X134212099Y-83447492D01*
X134202302Y-83439874D01*
X134169221Y-83437350D01*
X134161732Y-83441545D01*
X134161732Y-83441545D01*
G37*
X134161732Y-83441545D02*
X134168045Y-83451165D01*
X134189514Y-83452662D01*
X134212099Y-83447492D01*
X134202302Y-83439874D01*
X134169221Y-83437350D01*
X134161732Y-83441545D01*
G36*
X134113666Y-83422583D02*
X134124250Y-83433166D01*
X134134833Y-83422583D01*
X134124250Y-83412000D01*
X134113666Y-83422583D01*
X134113666Y-83422583D01*
G37*
X134113666Y-83422583D02*
X134124250Y-83433166D01*
X134134833Y-83422583D01*
X134124250Y-83412000D01*
X134113666Y-83422583D01*
G36*
X132930185Y-83357938D02*
X132917836Y-83385983D01*
X132920939Y-83402094D01*
X132948052Y-83429150D01*
X132984166Y-83429063D01*
X133000934Y-83414398D01*
X132997604Y-83387974D01*
X132971186Y-83363461D01*
X132939175Y-83354818D01*
X132930185Y-83357938D01*
X132930185Y-83357938D01*
G37*
X132930185Y-83357938D02*
X132917836Y-83385983D01*
X132920939Y-83402094D01*
X132948052Y-83429150D01*
X132984166Y-83429063D01*
X133000934Y-83414398D01*
X132997604Y-83387974D01*
X132971186Y-83363461D01*
X132939175Y-83354818D01*
X132930185Y-83357938D01*
G36*
X132761845Y-83393308D02*
X132768713Y-83410591D01*
X132799479Y-83432220D01*
X132830734Y-83415496D01*
X132833176Y-83411850D01*
X132828458Y-83387773D01*
X132812345Y-83377485D01*
X132773978Y-83373305D01*
X132761845Y-83393308D01*
X132761845Y-83393308D01*
G37*
X132761845Y-83393308D02*
X132768713Y-83410591D01*
X132799479Y-83432220D01*
X132830734Y-83415496D01*
X132833176Y-83411850D01*
X132828458Y-83387773D01*
X132812345Y-83377485D01*
X132773978Y-83373305D01*
X132761845Y-83393308D01*
G36*
X133862055Y-83365644D02*
X133859666Y-83380250D01*
X133871096Y-83408417D01*
X133880833Y-83412000D01*
X133899612Y-83394855D01*
X133902000Y-83380250D01*
X133890570Y-83352082D01*
X133880833Y-83348500D01*
X133862055Y-83365644D01*
X133862055Y-83365644D01*
G37*
X133862055Y-83365644D02*
X133859666Y-83380250D01*
X133871096Y-83408417D01*
X133880833Y-83412000D01*
X133899612Y-83394855D01*
X133902000Y-83380250D01*
X133890570Y-83352082D01*
X133880833Y-83348500D01*
X133862055Y-83365644D01*
G36*
X132616566Y-83378045D02*
X132622879Y-83387665D01*
X132644347Y-83389162D01*
X132666933Y-83383992D01*
X132657135Y-83376374D01*
X132624054Y-83373850D01*
X132616566Y-83378045D01*
X132616566Y-83378045D01*
G37*
X132616566Y-83378045D02*
X132622879Y-83387665D01*
X132644347Y-83389162D01*
X132666933Y-83383992D01*
X132657135Y-83376374D01*
X132624054Y-83373850D01*
X132616566Y-83378045D01*
G36*
X134182899Y-83356878D02*
X134189212Y-83366498D01*
X134210680Y-83367995D01*
X134233266Y-83362826D01*
X134223469Y-83355207D01*
X134190388Y-83352684D01*
X134182899Y-83356878D01*
X134182899Y-83356878D01*
G37*
X134182899Y-83356878D02*
X134189212Y-83366498D01*
X134210680Y-83367995D01*
X134233266Y-83362826D01*
X134223469Y-83355207D01*
X134190388Y-83352684D01*
X134182899Y-83356878D01*
G36*
X132716666Y-83337916D02*
X132727250Y-83348500D01*
X132737833Y-83337916D01*
X132727250Y-83327333D01*
X132716666Y-83337916D01*
X132716666Y-83337916D01*
G37*
X132716666Y-83337916D02*
X132727250Y-83348500D01*
X132737833Y-83337916D01*
X132727250Y-83327333D01*
X132716666Y-83337916D01*
G36*
X133944948Y-83301107D02*
X133944333Y-83306166D01*
X133960440Y-83326718D01*
X133965500Y-83327333D01*
X133986051Y-83311226D01*
X133986666Y-83306166D01*
X133970559Y-83285615D01*
X133965500Y-83285000D01*
X133944948Y-83301107D01*
X133944948Y-83301107D01*
G37*
X133944948Y-83301107D02*
X133944333Y-83306166D01*
X133960440Y-83326718D01*
X133965500Y-83327333D01*
X133986051Y-83311226D01*
X133986666Y-83306166D01*
X133970559Y-83285615D01*
X133965500Y-83285000D01*
X133944948Y-83301107D01*
G36*
X132786834Y-83275620D02*
X132772512Y-83295583D01*
X132767140Y-83318301D01*
X132782776Y-83322882D01*
X132828051Y-83312692D01*
X132853588Y-83296039D01*
X132853260Y-83283398D01*
X132822209Y-83264529D01*
X132786834Y-83275620D01*
X132786834Y-83275620D01*
G37*
X132786834Y-83275620D02*
X132772512Y-83295583D01*
X132767140Y-83318301D01*
X132782776Y-83322882D01*
X132828051Y-83312692D01*
X132853588Y-83296039D01*
X132853260Y-83283398D01*
X132822209Y-83264529D01*
X132786834Y-83275620D01*
G36*
X132674848Y-83178332D02*
X132664903Y-83217659D01*
X132684218Y-83241005D01*
X132695500Y-83242666D01*
X132722647Y-83227248D01*
X132728390Y-83219655D01*
X132728194Y-83186885D01*
X132718174Y-83172207D01*
X132692242Y-83160348D01*
X132674848Y-83178332D01*
X132674848Y-83178332D01*
G37*
X132674848Y-83178332D02*
X132664903Y-83217659D01*
X132684218Y-83241005D01*
X132695500Y-83242666D01*
X132722647Y-83227248D01*
X132728390Y-83219655D01*
X132728194Y-83186885D01*
X132718174Y-83172207D01*
X132692242Y-83160348D01*
X132674848Y-83178332D01*
G36*
X134071333Y-83126250D02*
X134050974Y-83153310D01*
X134050166Y-83159249D01*
X134066311Y-83178596D01*
X134071333Y-83179166D01*
X134089909Y-83161937D01*
X134092500Y-83146167D01*
X134082238Y-83124258D01*
X134071333Y-83126250D01*
X134071333Y-83126250D01*
G37*
X134071333Y-83126250D02*
X134050974Y-83153310D01*
X134050166Y-83159249D01*
X134066311Y-83178596D01*
X134071333Y-83179166D01*
X134089909Y-83161937D01*
X134092500Y-83146167D01*
X134082238Y-83124258D01*
X134071333Y-83126250D01*
G36*
X131764166Y-82745250D02*
X131774750Y-82755833D01*
X131785333Y-82745250D01*
X131774750Y-82734666D01*
X131764166Y-82745250D01*
X131764166Y-82745250D01*
G37*
X131764166Y-82745250D02*
X131774750Y-82755833D01*
X131785333Y-82745250D01*
X131774750Y-82734666D01*
X131764166Y-82745250D01*
G36*
X134410000Y-82702916D02*
X134420583Y-82713500D01*
X134431166Y-82702916D01*
X134420583Y-82692333D01*
X134410000Y-82702916D01*
X134410000Y-82702916D01*
G37*
X134410000Y-82702916D02*
X134420583Y-82713500D01*
X134431166Y-82702916D01*
X134420583Y-82692333D01*
X134410000Y-82702916D01*
G36*
X133104722Y-82106722D02*
X133085574Y-82138643D01*
X133084437Y-82143763D01*
X133078062Y-82167674D01*
X133077526Y-82168458D01*
X133067985Y-82194457D01*
X133066712Y-82224778D01*
X133074133Y-82238277D01*
X133076140Y-82237472D01*
X133097153Y-82243920D01*
X133104811Y-82257087D01*
X133102086Y-82279337D01*
X133076500Y-82279583D01*
X133047538Y-82282498D01*
X133048235Y-82302200D01*
X133071656Y-82330468D01*
X133103722Y-82317472D01*
X133114987Y-82305384D01*
X133133288Y-82271621D01*
X133146046Y-82228668D01*
X133147021Y-82220670D01*
X133137854Y-82220670D01*
X133116644Y-82216229D01*
X133112629Y-82214722D01*
X133086709Y-82197954D01*
X133086523Y-82188421D01*
X133108914Y-82190795D01*
X133124478Y-82202873D01*
X133137854Y-82220670D01*
X133147021Y-82220670D01*
X133150638Y-82191011D01*
X133144439Y-82173138D01*
X133138676Y-82174567D01*
X133120734Y-82169879D01*
X133114961Y-82135775D01*
X133118090Y-82110250D01*
X133111583Y-82101359D01*
X133104722Y-82106722D01*
X133104722Y-82106722D01*
G37*
X133104722Y-82106722D02*
X133085574Y-82138643D01*
X133084437Y-82143763D01*
X133078062Y-82167674D01*
X133077526Y-82168458D01*
X133067985Y-82194457D01*
X133066712Y-82224778D01*
X133074133Y-82238277D01*
X133076140Y-82237472D01*
X133097153Y-82243920D01*
X133104811Y-82257087D01*
X133102086Y-82279337D01*
X133076500Y-82279583D01*
X133047538Y-82282498D01*
X133048235Y-82302200D01*
X133071656Y-82330468D01*
X133103722Y-82317472D01*
X133114987Y-82305384D01*
X133133288Y-82271621D01*
X133146046Y-82228668D01*
X133147021Y-82220670D01*
X133137854Y-82220670D01*
X133116644Y-82216229D01*
X133112629Y-82214722D01*
X133086709Y-82197954D01*
X133086523Y-82188421D01*
X133108914Y-82190795D01*
X133124478Y-82202873D01*
X133137854Y-82220670D01*
X133147021Y-82220670D01*
X133150638Y-82191011D01*
X133144439Y-82173138D01*
X133138676Y-82174567D01*
X133120734Y-82169879D01*
X133114961Y-82135775D01*
X133118090Y-82110250D01*
X133111583Y-82101359D01*
X133104722Y-82106722D01*
G36*
X133538293Y-82197310D02*
X133529708Y-82221853D01*
X133532487Y-82228129D01*
X133549862Y-82246613D01*
X133556152Y-82224835D01*
X133556278Y-82217014D01*
X133546937Y-82195786D01*
X133538293Y-82197310D01*
X133538293Y-82197310D01*
G37*
X133538293Y-82197310D02*
X133529708Y-82221853D01*
X133532487Y-82228129D01*
X133549862Y-82246613D01*
X133556152Y-82224835D01*
X133556278Y-82217014D01*
X133546937Y-82195786D01*
X133538293Y-82197310D01*
G36*
X133379889Y-82212555D02*
X133377355Y-82237675D01*
X133379889Y-82240777D01*
X133392472Y-82237872D01*
X133394000Y-82226666D01*
X133386255Y-82209244D01*
X133379889Y-82212555D01*
X133379889Y-82212555D01*
G37*
X133379889Y-82212555D02*
X133377355Y-82237675D01*
X133379889Y-82240777D01*
X133392472Y-82237872D01*
X133394000Y-82226666D01*
X133386255Y-82209244D01*
X133379889Y-82212555D01*
G36*
X133612307Y-82198005D02*
X133616250Y-82205500D01*
X133636193Y-82225714D01*
X133639915Y-82226666D01*
X133641359Y-82212994D01*
X133637416Y-82205500D01*
X133617473Y-82185285D01*
X133613751Y-82184333D01*
X133612307Y-82198005D01*
X133612307Y-82198005D01*
G37*
X133612307Y-82198005D02*
X133616250Y-82205500D01*
X133636193Y-82225714D01*
X133639915Y-82226666D01*
X133641359Y-82212994D01*
X133637416Y-82205500D01*
X133617473Y-82185285D01*
X133613751Y-82184333D01*
X133612307Y-82198005D01*
G36*
X133552190Y-82124921D02*
X133558542Y-82140666D01*
X133578295Y-82151222D01*
X133603024Y-82157666D01*
X133592879Y-82142161D01*
X133590144Y-82139373D01*
X133562392Y-82122654D01*
X133552190Y-82124921D01*
X133552190Y-82124921D01*
G37*
X133552190Y-82124921D02*
X133558542Y-82140666D01*
X133578295Y-82151222D01*
X133603024Y-82157666D01*
X133592879Y-82142161D01*
X133590144Y-82139373D01*
X133562392Y-82122654D01*
X133552190Y-82124921D01*
G36*
X133626833Y-82131416D02*
X133637416Y-82142000D01*
X133648000Y-82131416D01*
X133637416Y-82120833D01*
X133626833Y-82131416D01*
X133626833Y-82131416D01*
G37*
X133626833Y-82131416D02*
X133637416Y-82142000D01*
X133648000Y-82131416D01*
X133637416Y-82120833D01*
X133626833Y-82131416D01*
G36*
X133140000Y-82110250D02*
X133150583Y-82120833D01*
X133161166Y-82110250D01*
X133150583Y-82099666D01*
X133140000Y-82110250D01*
X133140000Y-82110250D01*
G37*
X133140000Y-82110250D02*
X133150583Y-82120833D01*
X133161166Y-82110250D01*
X133150583Y-82099666D01*
X133140000Y-82110250D01*
G36*
X133612722Y-82085555D02*
X133615628Y-82098139D01*
X133626833Y-82099666D01*
X133644256Y-82091922D01*
X133640944Y-82085555D01*
X133615824Y-82083022D01*
X133612722Y-82085555D01*
X133612722Y-82085555D01*
G37*
X133612722Y-82085555D02*
X133615628Y-82098139D01*
X133626833Y-82099666D01*
X133644256Y-82091922D01*
X133640944Y-82085555D01*
X133615824Y-82083022D01*
X133612722Y-82085555D01*
G36*
X133542166Y-82089083D02*
X133552750Y-82099666D01*
X133563333Y-82089083D01*
X133552750Y-82078500D01*
X133542166Y-82089083D01*
X133542166Y-82089083D01*
G37*
X133542166Y-82089083D02*
X133552750Y-82099666D01*
X133563333Y-82089083D01*
X133552750Y-82078500D01*
X133542166Y-82089083D01*
G36*
X133463232Y-82086878D02*
X133469545Y-82096498D01*
X133491014Y-82097995D01*
X133513599Y-82092826D01*
X133503802Y-82085207D01*
X133470721Y-82082684D01*
X133463232Y-82086878D01*
X133463232Y-82086878D01*
G37*
X133463232Y-82086878D02*
X133469545Y-82096498D01*
X133491014Y-82097995D01*
X133513599Y-82092826D01*
X133503802Y-82085207D01*
X133470721Y-82082684D01*
X133463232Y-82086878D01*
G36*
X133325208Y-82085648D02*
X133322549Y-82093374D01*
X133351666Y-82096324D01*
X133381715Y-82092998D01*
X133378125Y-82085648D01*
X133334789Y-82082852D01*
X133325208Y-82085648D01*
X133325208Y-82085648D01*
G37*
X133325208Y-82085648D02*
X133322549Y-82093374D01*
X133351666Y-82096324D01*
X133381715Y-82092998D01*
X133378125Y-82085648D01*
X133334789Y-82082852D01*
X133325208Y-82085648D01*
G36*
X133267000Y-82089083D02*
X133277583Y-82099666D01*
X133288166Y-82089083D01*
X133277583Y-82078500D01*
X133267000Y-82089083D01*
X133267000Y-82089083D01*
G37*
X133267000Y-82089083D02*
X133277583Y-82099666D01*
X133288166Y-82089083D01*
X133277583Y-82078500D01*
X133267000Y-82089083D01*
G36*
X133203500Y-82089083D02*
X133214083Y-82099666D01*
X133224666Y-82089083D01*
X133214083Y-82078500D01*
X133203500Y-82089083D01*
X133203500Y-82089083D01*
G37*
X133203500Y-82089083D02*
X133214083Y-82099666D01*
X133224666Y-82089083D01*
X133214083Y-82078500D01*
X133203500Y-82089083D01*
G36*
X129997308Y-80787962D02*
X129877225Y-80828944D01*
X129834866Y-80848443D01*
X129758474Y-80890365D01*
X129684021Y-80943475D01*
X129602300Y-81015146D01*
X129504104Y-81112753D01*
X129501491Y-81115452D01*
X129413283Y-81210325D01*
X129350425Y-81285984D01*
X129315437Y-81339228D01*
X129308833Y-81360246D01*
X129324415Y-81396974D01*
X129366660Y-81453199D01*
X129428817Y-81522428D01*
X129504137Y-81598165D01*
X129585868Y-81673916D01*
X129667260Y-81743186D01*
X129741562Y-81799480D01*
X129802024Y-81836303D01*
X129805215Y-81837822D01*
X129897193Y-81870310D01*
X130001768Y-81886014D01*
X130124797Y-81884713D01*
X130272134Y-81866185D01*
X130449635Y-81830208D01*
X130532742Y-81810300D01*
X130651590Y-81780249D01*
X130735844Y-81756967D01*
X130792177Y-81737781D01*
X130827260Y-81720020D01*
X130847768Y-81701009D01*
X130859872Y-81679253D01*
X130886968Y-81633752D01*
X130932686Y-81572926D01*
X130975406Y-81523084D01*
X131024425Y-81467880D01*
X131047149Y-81434560D01*
X130610476Y-81434560D01*
X130606541Y-81480057D01*
X130575055Y-81542238D01*
X130526388Y-81614068D01*
X130472212Y-81680015D01*
X130424195Y-81724549D01*
X130421417Y-81726429D01*
X130321236Y-81774134D01*
X130198871Y-81806233D01*
X130072686Y-81819292D01*
X129967646Y-81811270D01*
X129914810Y-81796802D01*
X129902056Y-81783419D01*
X129927130Y-81771979D01*
X129987781Y-81763342D01*
X130081757Y-81758365D01*
X130107875Y-81757828D01*
X130188108Y-81755739D01*
X130242526Y-81752590D01*
X130265093Y-81748857D01*
X130257821Y-81746011D01*
X130201393Y-81737364D01*
X130212536Y-81716274D01*
X129793071Y-81716274D01*
X129777536Y-81711908D01*
X129732558Y-81680256D01*
X129707224Y-81660458D01*
X129657646Y-81617281D01*
X129605719Y-81566353D01*
X129558727Y-81515740D01*
X129523957Y-81473512D01*
X129508694Y-81447738D01*
X129511321Y-81443500D01*
X129532745Y-81457303D01*
X129576665Y-81494338D01*
X129635500Y-81548041D01*
X129670205Y-81581083D01*
X129738687Y-81649320D01*
X129779881Y-81694898D01*
X129793071Y-81716274D01*
X130212536Y-81716274D01*
X130265050Y-81616890D01*
X130301884Y-81539827D01*
X130319261Y-81477348D01*
X130321874Y-81409265D01*
X130320142Y-81380000D01*
X130307807Y-81296398D01*
X130286184Y-81215921D01*
X130273557Y-81184414D01*
X130235539Y-81105245D01*
X130173601Y-81149349D01*
X130114670Y-81178830D01*
X130071691Y-81175640D01*
X130050752Y-81140917D01*
X130049666Y-81126140D01*
X130069226Y-81083183D01*
X130103857Y-81062015D01*
X130138907Y-81040584D01*
X130144941Y-81020206D01*
X130154499Y-81006320D01*
X130199464Y-80999423D01*
X130219018Y-80999000D01*
X130269348Y-81002830D01*
X130312560Y-81018693D01*
X130360857Y-81053142D01*
X130420774Y-81107359D01*
X130491549Y-81186134D01*
X130550030Y-81273492D01*
X130591309Y-81359583D01*
X130610476Y-81434560D01*
X131047149Y-81434560D01*
X131048837Y-81432085D01*
X131052917Y-81404161D01*
X131040940Y-81372568D01*
X131035281Y-81361471D01*
X130998395Y-81315003D01*
X130940022Y-81265394D01*
X130905474Y-81242690D01*
X130842562Y-81203941D01*
X130790749Y-81168778D01*
X130772469Y-81154506D01*
X130723630Y-81116347D01*
X130648618Y-81063302D01*
X130557629Y-81002150D01*
X130460859Y-80939672D01*
X130368504Y-80882646D01*
X130325920Y-80857577D01*
X130210141Y-80802064D01*
X130104441Y-80778930D01*
X129997308Y-80787962D01*
X129997308Y-80787962D01*
G37*
X129997308Y-80787962D02*
X129877225Y-80828944D01*
X129834866Y-80848443D01*
X129758474Y-80890365D01*
X129684021Y-80943475D01*
X129602300Y-81015146D01*
X129504104Y-81112753D01*
X129501491Y-81115452D01*
X129413283Y-81210325D01*
X129350425Y-81285984D01*
X129315437Y-81339228D01*
X129308833Y-81360246D01*
X129324415Y-81396974D01*
X129366660Y-81453199D01*
X129428817Y-81522428D01*
X129504137Y-81598165D01*
X129585868Y-81673916D01*
X129667260Y-81743186D01*
X129741562Y-81799480D01*
X129802024Y-81836303D01*
X129805215Y-81837822D01*
X129897193Y-81870310D01*
X130001768Y-81886014D01*
X130124797Y-81884713D01*
X130272134Y-81866185D01*
X130449635Y-81830208D01*
X130532742Y-81810300D01*
X130651590Y-81780249D01*
X130735844Y-81756967D01*
X130792177Y-81737781D01*
X130827260Y-81720020D01*
X130847768Y-81701009D01*
X130859872Y-81679253D01*
X130886968Y-81633752D01*
X130932686Y-81572926D01*
X130975406Y-81523084D01*
X131024425Y-81467880D01*
X131047149Y-81434560D01*
X130610476Y-81434560D01*
X130606541Y-81480057D01*
X130575055Y-81542238D01*
X130526388Y-81614068D01*
X130472212Y-81680015D01*
X130424195Y-81724549D01*
X130421417Y-81726429D01*
X130321236Y-81774134D01*
X130198871Y-81806233D01*
X130072686Y-81819292D01*
X129967646Y-81811270D01*
X129914810Y-81796802D01*
X129902056Y-81783419D01*
X129927130Y-81771979D01*
X129987781Y-81763342D01*
X130081757Y-81758365D01*
X130107875Y-81757828D01*
X130188108Y-81755739D01*
X130242526Y-81752590D01*
X130265093Y-81748857D01*
X130257821Y-81746011D01*
X130201393Y-81737364D01*
X130212536Y-81716274D01*
X129793071Y-81716274D01*
X129777536Y-81711908D01*
X129732558Y-81680256D01*
X129707224Y-81660458D01*
X129657646Y-81617281D01*
X129605719Y-81566353D01*
X129558727Y-81515740D01*
X129523957Y-81473512D01*
X129508694Y-81447738D01*
X129511321Y-81443500D01*
X129532745Y-81457303D01*
X129576665Y-81494338D01*
X129635500Y-81548041D01*
X129670205Y-81581083D01*
X129738687Y-81649320D01*
X129779881Y-81694898D01*
X129793071Y-81716274D01*
X130212536Y-81716274D01*
X130265050Y-81616890D01*
X130301884Y-81539827D01*
X130319261Y-81477348D01*
X130321874Y-81409265D01*
X130320142Y-81380000D01*
X130307807Y-81296398D01*
X130286184Y-81215921D01*
X130273557Y-81184414D01*
X130235539Y-81105245D01*
X130173601Y-81149349D01*
X130114670Y-81178830D01*
X130071691Y-81175640D01*
X130050752Y-81140917D01*
X130049666Y-81126140D01*
X130069226Y-81083183D01*
X130103857Y-81062015D01*
X130138907Y-81040584D01*
X130144941Y-81020206D01*
X130154499Y-81006320D01*
X130199464Y-80999423D01*
X130219018Y-80999000D01*
X130269348Y-81002830D01*
X130312560Y-81018693D01*
X130360857Y-81053142D01*
X130420774Y-81107359D01*
X130491549Y-81186134D01*
X130550030Y-81273492D01*
X130591309Y-81359583D01*
X130610476Y-81434560D01*
X131047149Y-81434560D01*
X131048837Y-81432085D01*
X131052917Y-81404161D01*
X131040940Y-81372568D01*
X131035281Y-81361471D01*
X130998395Y-81315003D01*
X130940022Y-81265394D01*
X130905474Y-81242690D01*
X130842562Y-81203941D01*
X130790749Y-81168778D01*
X130772469Y-81154506D01*
X130723630Y-81116347D01*
X130648618Y-81063302D01*
X130557629Y-81002150D01*
X130460859Y-80939672D01*
X130368504Y-80882646D01*
X130325920Y-80857577D01*
X130210141Y-80802064D01*
X130104441Y-80778930D01*
X129997308Y-80787962D01*
G36*
X132914334Y-80265520D02*
X132802162Y-80312773D01*
X132712271Y-80394056D01*
X132669694Y-80456124D01*
X132630073Y-80519706D01*
X132593567Y-80571642D01*
X132576785Y-80591571D01*
X132554239Y-80640761D01*
X132556783Y-80668780D01*
X132571694Y-80725826D01*
X132581337Y-80766950D01*
X132597996Y-80807109D01*
X132633179Y-80871395D01*
X132680948Y-80949383D01*
X132713119Y-80998326D01*
X132811999Y-81126888D01*
X132912244Y-81218115D01*
X133020631Y-81276659D01*
X133143933Y-81307169D01*
X133166960Y-81309912D01*
X133236217Y-81314649D01*
X133282640Y-81307062D01*
X133325216Y-81281396D01*
X133361286Y-81251006D01*
X133435926Y-81166152D01*
X133488491Y-81067183D01*
X133516805Y-80963727D01*
X133518689Y-80865408D01*
X133491968Y-80781854D01*
X133473375Y-80755410D01*
X133425750Y-80699960D01*
X133432026Y-80823021D01*
X133422848Y-80947406D01*
X133380842Y-81045295D01*
X133305397Y-81117437D01*
X133195901Y-81164580D01*
X133143195Y-81176468D01*
X133072307Y-81189280D01*
X133140552Y-81111554D01*
X133222621Y-80989237D01*
X133264610Y-80857646D01*
X133265999Y-80721523D01*
X133252327Y-80674755D01*
X132840035Y-80674755D01*
X132835255Y-80694057D01*
X132821799Y-80712782D01*
X132796433Y-80706531D01*
X132769003Y-80689756D01*
X132732529Y-80654557D01*
X132721286Y-80620227D01*
X132743729Y-80592902D01*
X132783803Y-80585988D01*
X132822437Y-80598795D01*
X132839875Y-80624528D01*
X132840035Y-80674755D01*
X133252327Y-80674755D01*
X133226266Y-80585614D01*
X133220317Y-80573875D01*
X133124498Y-80573875D01*
X133120302Y-80608077D01*
X133092718Y-80619042D01*
X133054771Y-80605131D01*
X133033422Y-80585352D01*
X133017936Y-80550066D01*
X133029407Y-80529625D01*
X133067024Y-80515282D01*
X133103880Y-80534908D01*
X133124498Y-80573875D01*
X133220317Y-80573875D01*
X133203319Y-80540336D01*
X133172035Y-80481606D01*
X133153854Y-80440797D01*
X133152290Y-80427500D01*
X133172460Y-80441531D01*
X133212619Y-80478149D01*
X133259262Y-80524547D01*
X133313798Y-80577366D01*
X133349517Y-80601867D01*
X133374286Y-80602599D01*
X133383792Y-80596521D01*
X133399664Y-80575430D01*
X133395892Y-80545413D01*
X133370546Y-80493979D01*
X133366960Y-80487551D01*
X133321456Y-80415696D01*
X133267427Y-80342406D01*
X133254689Y-80326941D01*
X133216629Y-80285268D01*
X133182616Y-80262295D01*
X133138036Y-80252472D01*
X133068272Y-80250250D01*
X133052634Y-80250229D01*
X132914334Y-80265520D01*
X132914334Y-80265520D01*
G37*
X132914334Y-80265520D02*
X132802162Y-80312773D01*
X132712271Y-80394056D01*
X132669694Y-80456124D01*
X132630073Y-80519706D01*
X132593567Y-80571642D01*
X132576785Y-80591571D01*
X132554239Y-80640761D01*
X132556783Y-80668780D01*
X132571694Y-80725826D01*
X132581337Y-80766950D01*
X132597996Y-80807109D01*
X132633179Y-80871395D01*
X132680948Y-80949383D01*
X132713119Y-80998326D01*
X132811999Y-81126888D01*
X132912244Y-81218115D01*
X133020631Y-81276659D01*
X133143933Y-81307169D01*
X133166960Y-81309912D01*
X133236217Y-81314649D01*
X133282640Y-81307062D01*
X133325216Y-81281396D01*
X133361286Y-81251006D01*
X133435926Y-81166152D01*
X133488491Y-81067183D01*
X133516805Y-80963727D01*
X133518689Y-80865408D01*
X133491968Y-80781854D01*
X133473375Y-80755410D01*
X133425750Y-80699960D01*
X133432026Y-80823021D01*
X133422848Y-80947406D01*
X133380842Y-81045295D01*
X133305397Y-81117437D01*
X133195901Y-81164580D01*
X133143195Y-81176468D01*
X133072307Y-81189280D01*
X133140552Y-81111554D01*
X133222621Y-80989237D01*
X133264610Y-80857646D01*
X133265999Y-80721523D01*
X133252327Y-80674755D01*
X132840035Y-80674755D01*
X132835255Y-80694057D01*
X132821799Y-80712782D01*
X132796433Y-80706531D01*
X132769003Y-80689756D01*
X132732529Y-80654557D01*
X132721286Y-80620227D01*
X132743729Y-80592902D01*
X132783803Y-80585988D01*
X132822437Y-80598795D01*
X132839875Y-80624528D01*
X132840035Y-80674755D01*
X133252327Y-80674755D01*
X133226266Y-80585614D01*
X133220317Y-80573875D01*
X133124498Y-80573875D01*
X133120302Y-80608077D01*
X133092718Y-80619042D01*
X133054771Y-80605131D01*
X133033422Y-80585352D01*
X133017936Y-80550066D01*
X133029407Y-80529625D01*
X133067024Y-80515282D01*
X133103880Y-80534908D01*
X133124498Y-80573875D01*
X133220317Y-80573875D01*
X133203319Y-80540336D01*
X133172035Y-80481606D01*
X133153854Y-80440797D01*
X133152290Y-80427500D01*
X133172460Y-80441531D01*
X133212619Y-80478149D01*
X133259262Y-80524547D01*
X133313798Y-80577366D01*
X133349517Y-80601867D01*
X133374286Y-80602599D01*
X133383792Y-80596521D01*
X133399664Y-80575430D01*
X133395892Y-80545413D01*
X133370546Y-80493979D01*
X133366960Y-80487551D01*
X133321456Y-80415696D01*
X133267427Y-80342406D01*
X133254689Y-80326941D01*
X133216629Y-80285268D01*
X133182616Y-80262295D01*
X133138036Y-80252472D01*
X133068272Y-80250250D01*
X133052634Y-80250229D01*
X132914334Y-80265520D01*
G36*
X126563874Y-77039856D02*
X126536000Y-77047543D01*
X126468021Y-77073624D01*
X126423621Y-77113561D01*
X126396337Y-77158072D01*
X126357791Y-77215945D01*
X126320836Y-77237315D01*
X126309357Y-77237402D01*
X126288047Y-77239019D01*
X126273919Y-77254740D01*
X126264246Y-77292660D01*
X126256298Y-77360872D01*
X126252297Y-77406735D01*
X126241545Y-77520877D01*
X126230656Y-77598779D01*
X126218101Y-77646512D01*
X126202348Y-77670147D01*
X126184455Y-77675833D01*
X126163536Y-77692969D01*
X126154440Y-77746745D01*
X126153878Y-77765791D01*
X126149227Y-77831057D01*
X126137998Y-77919806D01*
X126122500Y-78014130D01*
X126120443Y-78025083D01*
X126102680Y-78132731D01*
X126086270Y-78257078D01*
X126074558Y-78372537D01*
X126073939Y-78380437D01*
X126062534Y-78486556D01*
X126047578Y-78555610D01*
X126031106Y-78584120D01*
X126013464Y-78605432D01*
X126023503Y-78640792D01*
X126028242Y-78649952D01*
X126040336Y-78690091D01*
X126053213Y-78761663D01*
X126065180Y-78853842D01*
X126073117Y-78937086D01*
X126088592Y-79073834D01*
X126112549Y-79220111D01*
X126141102Y-79353072D01*
X126149097Y-79383733D01*
X126174914Y-79490757D01*
X126195715Y-79600837D01*
X126208336Y-79696187D01*
X126210487Y-79729000D01*
X126213106Y-79806496D01*
X126215416Y-79870644D01*
X126216747Y-79903625D01*
X126230377Y-79932317D01*
X126244958Y-79935375D01*
X126264777Y-79951638D01*
X126279924Y-80007272D01*
X126283966Y-80035916D01*
X126296516Y-80141750D01*
X126299841Y-80053040D01*
X126306838Y-79994676D01*
X126320312Y-79956079D01*
X126325572Y-79950484D01*
X126337948Y-79921560D01*
X126334916Y-79877166D01*
X126334106Y-79826586D01*
X126352669Y-79798853D01*
X126383086Y-79802366D01*
X126393911Y-79811277D01*
X126433673Y-79832780D01*
X126448264Y-79834833D01*
X126466817Y-79829829D01*
X126455019Y-79808608D01*
X126445101Y-79797308D01*
X126427036Y-79761502D01*
X126428567Y-79727876D01*
X126444968Y-79709533D01*
X126471516Y-79719577D01*
X126472708Y-79720741D01*
X126503695Y-79732709D01*
X126547818Y-79733560D01*
X126585919Y-79724823D01*
X126599264Y-79710657D01*
X126581122Y-79696285D01*
X126534602Y-79673351D01*
X126490205Y-79654916D01*
X126422030Y-79621430D01*
X126367071Y-79582240D01*
X126347565Y-79560718D01*
X126328007Y-79530330D01*
X126325644Y-79517911D01*
X126347340Y-79522562D01*
X126399963Y-79543387D01*
X126419483Y-79551309D01*
X126439375Y-79555213D01*
X126435699Y-79535582D01*
X126424173Y-79512154D01*
X126389361Y-79457809D01*
X126360773Y-79423749D01*
X126328870Y-79379734D01*
X126325911Y-79347128D01*
X126350734Y-79334798D01*
X126371958Y-79338619D01*
X126401541Y-79346461D01*
X126404602Y-79339163D01*
X126380304Y-79309744D01*
X126366666Y-79294576D01*
X126313750Y-79235894D01*
X126363798Y-79248266D01*
X126413847Y-79260637D01*
X126365479Y-79209152D01*
X126336556Y-79170757D01*
X126330016Y-79145204D01*
X126331122Y-79143655D01*
X126333280Y-79117270D01*
X126327128Y-79106530D01*
X126310870Y-79070720D01*
X126296336Y-79015935D01*
X126295880Y-79013572D01*
X126290594Y-78967363D01*
X126300390Y-78955478D01*
X126308777Y-78959020D01*
X126312524Y-78955867D01*
X126290984Y-78929831D01*
X126276708Y-78914852D01*
X126234747Y-78866189D01*
X126220249Y-78836219D01*
X126234044Y-78829150D01*
X126262117Y-78840687D01*
X126289909Y-78853940D01*
X126294597Y-78846127D01*
X126277709Y-78809870D01*
X126271140Y-78797131D01*
X126250886Y-78750359D01*
X126245820Y-78721855D01*
X126246888Y-78719889D01*
X126246328Y-78695633D01*
X126231745Y-78648966D01*
X126227282Y-78637870D01*
X126208498Y-78584055D01*
X126198451Y-78538323D01*
X126198012Y-78510102D01*
X126208054Y-78508823D01*
X126216351Y-78519747D01*
X126234605Y-78536067D01*
X126253727Y-78514749D01*
X126255267Y-78512031D01*
X126269431Y-78495626D01*
X126279824Y-78511608D01*
X126289176Y-78558880D01*
X126305008Y-78615647D01*
X126327164Y-78641762D01*
X126331456Y-78642444D01*
X126348305Y-78633754D01*
X126349575Y-78601438D01*
X126340910Y-78556013D01*
X126323677Y-78491684D01*
X126305333Y-78440457D01*
X126301384Y-78432285D01*
X126292004Y-78393968D01*
X126293979Y-78348673D01*
X126304586Y-78311847D01*
X126321103Y-78298940D01*
X126324617Y-78300425D01*
X126333964Y-78292748D01*
X126331099Y-78270918D01*
X126332632Y-78231441D01*
X126343656Y-78216722D01*
X126359106Y-78187804D01*
X126366547Y-78135812D01*
X126366666Y-78128155D01*
X126376023Y-78069044D01*
X126399255Y-78022414D01*
X126429106Y-77999348D01*
X126448953Y-78002445D01*
X126470519Y-77996915D01*
X126487162Y-77959629D01*
X126494137Y-77901643D01*
X126496181Y-77872268D01*
X126507011Y-77873527D01*
X126535038Y-77906813D01*
X126536506Y-77908666D01*
X126578405Y-77961583D01*
X126546619Y-77868963D01*
X126525347Y-77806142D01*
X126517686Y-77774953D01*
X126523969Y-77766830D01*
X126544531Y-77773209D01*
X126550258Y-77775422D01*
X126575221Y-77778297D01*
X126571425Y-77751860D01*
X126560927Y-77703580D01*
X126557166Y-77650343D01*
X126554196Y-77608130D01*
X126541482Y-77601226D01*
X126525416Y-77612333D01*
X126502492Y-77625132D01*
X126494328Y-77605247D01*
X126493666Y-77582495D01*
X126502002Y-77524137D01*
X126522275Y-77457964D01*
X126524336Y-77452903D01*
X126541476Y-77400929D01*
X126535517Y-77380247D01*
X126530768Y-77379500D01*
X126529897Y-77366267D01*
X126553926Y-77332351D01*
X126579473Y-77304118D01*
X126618474Y-77260511D01*
X126625922Y-77242371D01*
X126610141Y-77244891D01*
X126582813Y-77253685D01*
X126580554Y-77244069D01*
X126602603Y-77208033D01*
X126606122Y-77202658D01*
X126644379Y-77144270D01*
X126483083Y-77170514D01*
X126533053Y-77126840D01*
X126562459Y-77097164D01*
X126567235Y-77083302D01*
X126566049Y-77083166D01*
X126567130Y-77072769D01*
X126590163Y-77052012D01*
X126610460Y-77034586D01*
X126603518Y-77030685D01*
X126563874Y-77039856D01*
X126563874Y-77039856D01*
G37*
X126563874Y-77039856D02*
X126536000Y-77047543D01*
X126468021Y-77073624D01*
X126423621Y-77113561D01*
X126396337Y-77158072D01*
X126357791Y-77215945D01*
X126320836Y-77237315D01*
X126309357Y-77237402D01*
X126288047Y-77239019D01*
X126273919Y-77254740D01*
X126264246Y-77292660D01*
X126256298Y-77360872D01*
X126252297Y-77406735D01*
X126241545Y-77520877D01*
X126230656Y-77598779D01*
X126218101Y-77646512D01*
X126202348Y-77670147D01*
X126184455Y-77675833D01*
X126163536Y-77692969D01*
X126154440Y-77746745D01*
X126153878Y-77765791D01*
X126149227Y-77831057D01*
X126137998Y-77919806D01*
X126122500Y-78014130D01*
X126120443Y-78025083D01*
X126102680Y-78132731D01*
X126086270Y-78257078D01*
X126074558Y-78372537D01*
X126073939Y-78380437D01*
X126062534Y-78486556D01*
X126047578Y-78555610D01*
X126031106Y-78584120D01*
X126013464Y-78605432D01*
X126023503Y-78640792D01*
X126028242Y-78649952D01*
X126040336Y-78690091D01*
X126053213Y-78761663D01*
X126065180Y-78853842D01*
X126073117Y-78937086D01*
X126088592Y-79073834D01*
X126112549Y-79220111D01*
X126141102Y-79353072D01*
X126149097Y-79383733D01*
X126174914Y-79490757D01*
X126195715Y-79600837D01*
X126208336Y-79696187D01*
X126210487Y-79729000D01*
X126213106Y-79806496D01*
X126215416Y-79870644D01*
X126216747Y-79903625D01*
X126230377Y-79932317D01*
X126244958Y-79935375D01*
X126264777Y-79951638D01*
X126279924Y-80007272D01*
X126283966Y-80035916D01*
X126296516Y-80141750D01*
X126299841Y-80053040D01*
X126306838Y-79994676D01*
X126320312Y-79956079D01*
X126325572Y-79950484D01*
X126337948Y-79921560D01*
X126334916Y-79877166D01*
X126334106Y-79826586D01*
X126352669Y-79798853D01*
X126383086Y-79802366D01*
X126393911Y-79811277D01*
X126433673Y-79832780D01*
X126448264Y-79834833D01*
X126466817Y-79829829D01*
X126455019Y-79808608D01*
X126445101Y-79797308D01*
X126427036Y-79761502D01*
X126428567Y-79727876D01*
X126444968Y-79709533D01*
X126471516Y-79719577D01*
X126472708Y-79720741D01*
X126503695Y-79732709D01*
X126547818Y-79733560D01*
X126585919Y-79724823D01*
X126599264Y-79710657D01*
X126581122Y-79696285D01*
X126534602Y-79673351D01*
X126490205Y-79654916D01*
X126422030Y-79621430D01*
X126367071Y-79582240D01*
X126347565Y-79560718D01*
X126328007Y-79530330D01*
X126325644Y-79517911D01*
X126347340Y-79522562D01*
X126399963Y-79543387D01*
X126419483Y-79551309D01*
X126439375Y-79555213D01*
X126435699Y-79535582D01*
X126424173Y-79512154D01*
X126389361Y-79457809D01*
X126360773Y-79423749D01*
X126328870Y-79379734D01*
X126325911Y-79347128D01*
X126350734Y-79334798D01*
X126371958Y-79338619D01*
X126401541Y-79346461D01*
X126404602Y-79339163D01*
X126380304Y-79309744D01*
X126366666Y-79294576D01*
X126313750Y-79235894D01*
X126363798Y-79248266D01*
X126413847Y-79260637D01*
X126365479Y-79209152D01*
X126336556Y-79170757D01*
X126330016Y-79145204D01*
X126331122Y-79143655D01*
X126333280Y-79117270D01*
X126327128Y-79106530D01*
X126310870Y-79070720D01*
X126296336Y-79015935D01*
X126295880Y-79013572D01*
X126290594Y-78967363D01*
X126300390Y-78955478D01*
X126308777Y-78959020D01*
X126312524Y-78955867D01*
X126290984Y-78929831D01*
X126276708Y-78914852D01*
X126234747Y-78866189D01*
X126220249Y-78836219D01*
X126234044Y-78829150D01*
X126262117Y-78840687D01*
X126289909Y-78853940D01*
X126294597Y-78846127D01*
X126277709Y-78809870D01*
X126271140Y-78797131D01*
X126250886Y-78750359D01*
X126245820Y-78721855D01*
X126246888Y-78719889D01*
X126246328Y-78695633D01*
X126231745Y-78648966D01*
X126227282Y-78637870D01*
X126208498Y-78584055D01*
X126198451Y-78538323D01*
X126198012Y-78510102D01*
X126208054Y-78508823D01*
X126216351Y-78519747D01*
X126234605Y-78536067D01*
X126253727Y-78514749D01*
X126255267Y-78512031D01*
X126269431Y-78495626D01*
X126279824Y-78511608D01*
X126289176Y-78558880D01*
X126305008Y-78615647D01*
X126327164Y-78641762D01*
X126331456Y-78642444D01*
X126348305Y-78633754D01*
X126349575Y-78601438D01*
X126340910Y-78556013D01*
X126323677Y-78491684D01*
X126305333Y-78440457D01*
X126301384Y-78432285D01*
X126292004Y-78393968D01*
X126293979Y-78348673D01*
X126304586Y-78311847D01*
X126321103Y-78298940D01*
X126324617Y-78300425D01*
X126333964Y-78292748D01*
X126331099Y-78270918D01*
X126332632Y-78231441D01*
X126343656Y-78216722D01*
X126359106Y-78187804D01*
X126366547Y-78135812D01*
X126366666Y-78128155D01*
X126376023Y-78069044D01*
X126399255Y-78022414D01*
X126429106Y-77999348D01*
X126448953Y-78002445D01*
X126470519Y-77996915D01*
X126487162Y-77959629D01*
X126494137Y-77901643D01*
X126496181Y-77872268D01*
X126507011Y-77873527D01*
X126535038Y-77906813D01*
X126536506Y-77908666D01*
X126578405Y-77961583D01*
X126546619Y-77868963D01*
X126525347Y-77806142D01*
X126517686Y-77774953D01*
X126523969Y-77766830D01*
X126544531Y-77773209D01*
X126550258Y-77775422D01*
X126575221Y-77778297D01*
X126571425Y-77751860D01*
X126560927Y-77703580D01*
X126557166Y-77650343D01*
X126554196Y-77608130D01*
X126541482Y-77601226D01*
X126525416Y-77612333D01*
X126502492Y-77625132D01*
X126494328Y-77605247D01*
X126493666Y-77582495D01*
X126502002Y-77524137D01*
X126522275Y-77457964D01*
X126524336Y-77452903D01*
X126541476Y-77400929D01*
X126535517Y-77380247D01*
X126530768Y-77379500D01*
X126529897Y-77366267D01*
X126553926Y-77332351D01*
X126579473Y-77304118D01*
X126618474Y-77260511D01*
X126625922Y-77242371D01*
X126610141Y-77244891D01*
X126582813Y-77253685D01*
X126580554Y-77244069D01*
X126602603Y-77208033D01*
X126606122Y-77202658D01*
X126644379Y-77144270D01*
X126483083Y-77170514D01*
X126533053Y-77126840D01*
X126562459Y-77097164D01*
X126567235Y-77083302D01*
X126566049Y-77083166D01*
X126567130Y-77072769D01*
X126590163Y-77052012D01*
X126610460Y-77034586D01*
X126603518Y-77030685D01*
X126563874Y-77039856D01*
G36*
X127252935Y-78700086D02*
X127166605Y-78718199D01*
X127149833Y-78723583D01*
X127045531Y-78749341D01*
X126950217Y-78752608D01*
X126875825Y-78733318D01*
X126862186Y-78725168D01*
X126820496Y-78707430D01*
X126794911Y-78709965D01*
X126769366Y-78745814D01*
X126747738Y-78812657D01*
X126732022Y-78899200D01*
X126724215Y-78994148D01*
X126726311Y-79086205D01*
X126727057Y-79094000D01*
X126734388Y-79153758D01*
X126740522Y-79183075D01*
X126744239Y-79176379D01*
X126744439Y-79173375D01*
X126754051Y-79135381D01*
X126771346Y-79114206D01*
X126786293Y-79117732D01*
X126790000Y-79137582D01*
X126802587Y-79150911D01*
X126808949Y-79148287D01*
X126830958Y-79154781D01*
X126850551Y-79199515D01*
X126865981Y-79278402D01*
X126866612Y-79283165D01*
X126879519Y-79341037D01*
X126897955Y-79382230D01*
X126899117Y-79383706D01*
X126910127Y-79406983D01*
X126903933Y-79411500D01*
X126905609Y-79423791D01*
X126932311Y-79454385D01*
X126943674Y-79465273D01*
X126981913Y-79506970D01*
X127001490Y-79540495D01*
X127002137Y-79544648D01*
X127014931Y-79577867D01*
X127045120Y-79622333D01*
X127045797Y-79623166D01*
X127088987Y-79676083D01*
X127074809Y-79625807D01*
X127068292Y-79589212D01*
X127076062Y-79584526D01*
X127093033Y-79606022D01*
X127114114Y-79647971D01*
X127128544Y-79686295D01*
X127150062Y-79737407D01*
X127167803Y-79751823D01*
X127172821Y-79747220D01*
X127187411Y-79747901D01*
X127205140Y-79785840D01*
X127212354Y-79810030D01*
X127229375Y-79863788D01*
X127244210Y-79895084D01*
X127248368Y-79898333D01*
X127253708Y-79881303D01*
X127249533Y-79856000D01*
X127248408Y-79820275D01*
X127268238Y-79818340D01*
X127298424Y-79845928D01*
X127324591Y-79867819D01*
X127335582Y-79867806D01*
X127352846Y-79876908D01*
X127384851Y-79911802D01*
X127403551Y-79936086D01*
X127438701Y-79980232D01*
X127477821Y-80023897D01*
X127513864Y-80060213D01*
X127539781Y-80082310D01*
X127548527Y-80083319D01*
X127543550Y-80072544D01*
X127539811Y-80036543D01*
X127550306Y-79981094D01*
X127554834Y-79966711D01*
X127571004Y-79912037D01*
X127577414Y-79874927D01*
X127576981Y-79870301D01*
X127585669Y-79862581D01*
X127594751Y-79866841D01*
X127641145Y-79881914D01*
X127726923Y-79895073D01*
X127849166Y-79905930D01*
X127922416Y-79910341D01*
X127998649Y-79914001D01*
X128037433Y-79913850D01*
X128043587Y-79908429D01*
X128021931Y-79896279D01*
X128000824Y-79886612D01*
X127958583Y-79861126D01*
X127942713Y-79838141D01*
X127943865Y-79834377D01*
X127944799Y-79815077D01*
X127939437Y-79813666D01*
X127915945Y-79801699D01*
X127867453Y-79769644D01*
X127802483Y-79723269D01*
X127767459Y-79697250D01*
X127687215Y-79635527D01*
X127641768Y-79597201D01*
X127630839Y-79581960D01*
X127654152Y-79589493D01*
X127685683Y-79605465D01*
X127715681Y-79617965D01*
X127714903Y-79608005D01*
X127686411Y-79578560D01*
X127633266Y-79532610D01*
X127558530Y-79473133D01*
X127517490Y-79441859D01*
X127449347Y-79389595D01*
X127396300Y-79347046D01*
X127365878Y-79320348D01*
X127361500Y-79314778D01*
X127378177Y-79315555D01*
X127419283Y-79329771D01*
X127471426Y-79351840D01*
X127521216Y-79376179D01*
X127550376Y-79393546D01*
X127557672Y-79395542D01*
X127538094Y-79373821D01*
X127519932Y-79356052D01*
X127464498Y-79306375D01*
X127410906Y-79263246D01*
X127403515Y-79257884D01*
X127372513Y-79235241D01*
X127371523Y-79230053D01*
X127404369Y-79241522D01*
X127431519Y-79252025D01*
X127504603Y-79285893D01*
X127574409Y-79326309D01*
X127579686Y-79329875D01*
X127647250Y-79376384D01*
X127583750Y-79307387D01*
X127503370Y-79235772D01*
X127407378Y-79173399D01*
X127311719Y-79129728D01*
X127262214Y-79116619D01*
X127212788Y-79103013D01*
X127186767Y-79085618D01*
X127185957Y-79083416D01*
X127199287Y-79064823D01*
X127239848Y-79056453D01*
X127293796Y-79058284D01*
X127347288Y-79070294D01*
X127375510Y-79083715D01*
X127428857Y-79118670D01*
X127380807Y-79053678D01*
X127352203Y-79009954D01*
X127341073Y-78982399D01*
X127341942Y-78979502D01*
X127365220Y-78980862D01*
X127416054Y-78993832D01*
X127467438Y-79010239D01*
X127583750Y-79050162D01*
X127486731Y-78967000D01*
X126747666Y-78967000D01*
X126739922Y-78984422D01*
X126733555Y-78981111D01*
X126731022Y-78955991D01*
X126733555Y-78952888D01*
X126746139Y-78955794D01*
X126747666Y-78967000D01*
X127486731Y-78967000D01*
X127449690Y-78935250D01*
X127566896Y-78942648D01*
X127637949Y-78943262D01*
X127667910Y-78934373D01*
X127656633Y-78917227D01*
X127603972Y-78893066D01*
X127573925Y-78882583D01*
X127512995Y-78857723D01*
X127470845Y-78831826D01*
X127453514Y-78810287D01*
X127467040Y-78798498D01*
X127478853Y-78797666D01*
X127507842Y-78793645D01*
X127502397Y-78783733D01*
X127469422Y-78771154D01*
X127415825Y-78759133D01*
X127387069Y-78754798D01*
X127287416Y-78741932D01*
X127361500Y-78718791D01*
X127435583Y-78695651D01*
X127337703Y-78693742D01*
X127252935Y-78700086D01*
X127252935Y-78700086D01*
G37*
X127252935Y-78700086D02*
X127166605Y-78718199D01*
X127149833Y-78723583D01*
X127045531Y-78749341D01*
X126950217Y-78752608D01*
X126875825Y-78733318D01*
X126862186Y-78725168D01*
X126820496Y-78707430D01*
X126794911Y-78709965D01*
X126769366Y-78745814D01*
X126747738Y-78812657D01*
X126732022Y-78899200D01*
X126724215Y-78994148D01*
X126726311Y-79086205D01*
X126727057Y-79094000D01*
X126734388Y-79153758D01*
X126740522Y-79183075D01*
X126744239Y-79176379D01*
X126744439Y-79173375D01*
X126754051Y-79135381D01*
X126771346Y-79114206D01*
X126786293Y-79117732D01*
X126790000Y-79137582D01*
X126802587Y-79150911D01*
X126808949Y-79148287D01*
X126830958Y-79154781D01*
X126850551Y-79199515D01*
X126865981Y-79278402D01*
X126866612Y-79283165D01*
X126879519Y-79341037D01*
X126897955Y-79382230D01*
X126899117Y-79383706D01*
X126910127Y-79406983D01*
X126903933Y-79411500D01*
X126905609Y-79423791D01*
X126932311Y-79454385D01*
X126943674Y-79465273D01*
X126981913Y-79506970D01*
X127001490Y-79540495D01*
X127002137Y-79544648D01*
X127014931Y-79577867D01*
X127045120Y-79622333D01*
X127045797Y-79623166D01*
X127088987Y-79676083D01*
X127074809Y-79625807D01*
X127068292Y-79589212D01*
X127076062Y-79584526D01*
X127093033Y-79606022D01*
X127114114Y-79647971D01*
X127128544Y-79686295D01*
X127150062Y-79737407D01*
X127167803Y-79751823D01*
X127172821Y-79747220D01*
X127187411Y-79747901D01*
X127205140Y-79785840D01*
X127212354Y-79810030D01*
X127229375Y-79863788D01*
X127244210Y-79895084D01*
X127248368Y-79898333D01*
X127253708Y-79881303D01*
X127249533Y-79856000D01*
X127248408Y-79820275D01*
X127268238Y-79818340D01*
X127298424Y-79845928D01*
X127324591Y-79867819D01*
X127335582Y-79867806D01*
X127352846Y-79876908D01*
X127384851Y-79911802D01*
X127403551Y-79936086D01*
X127438701Y-79980232D01*
X127477821Y-80023897D01*
X127513864Y-80060213D01*
X127539781Y-80082310D01*
X127548527Y-80083319D01*
X127543550Y-80072544D01*
X127539811Y-80036543D01*
X127550306Y-79981094D01*
X127554834Y-79966711D01*
X127571004Y-79912037D01*
X127577414Y-79874927D01*
X127576981Y-79870301D01*
X127585669Y-79862581D01*
X127594751Y-79866841D01*
X127641145Y-79881914D01*
X127726923Y-79895073D01*
X127849166Y-79905930D01*
X127922416Y-79910341D01*
X127998649Y-79914001D01*
X128037433Y-79913850D01*
X128043587Y-79908429D01*
X128021931Y-79896279D01*
X128000824Y-79886612D01*
X127958583Y-79861126D01*
X127942713Y-79838141D01*
X127943865Y-79834377D01*
X127944799Y-79815077D01*
X127939437Y-79813666D01*
X127915945Y-79801699D01*
X127867453Y-79769644D01*
X127802483Y-79723269D01*
X127767459Y-79697250D01*
X127687215Y-79635527D01*
X127641768Y-79597201D01*
X127630839Y-79581960D01*
X127654152Y-79589493D01*
X127685683Y-79605465D01*
X127715681Y-79617965D01*
X127714903Y-79608005D01*
X127686411Y-79578560D01*
X127633266Y-79532610D01*
X127558530Y-79473133D01*
X127517490Y-79441859D01*
X127449347Y-79389595D01*
X127396300Y-79347046D01*
X127365878Y-79320348D01*
X127361500Y-79314778D01*
X127378177Y-79315555D01*
X127419283Y-79329771D01*
X127471426Y-79351840D01*
X127521216Y-79376179D01*
X127550376Y-79393546D01*
X127557672Y-79395542D01*
X127538094Y-79373821D01*
X127519932Y-79356052D01*
X127464498Y-79306375D01*
X127410906Y-79263246D01*
X127403515Y-79257884D01*
X127372513Y-79235241D01*
X127371523Y-79230053D01*
X127404369Y-79241522D01*
X127431519Y-79252025D01*
X127504603Y-79285893D01*
X127574409Y-79326309D01*
X127579686Y-79329875D01*
X127647250Y-79376384D01*
X127583750Y-79307387D01*
X127503370Y-79235772D01*
X127407378Y-79173399D01*
X127311719Y-79129728D01*
X127262214Y-79116619D01*
X127212788Y-79103013D01*
X127186767Y-79085618D01*
X127185957Y-79083416D01*
X127199287Y-79064823D01*
X127239848Y-79056453D01*
X127293796Y-79058284D01*
X127347288Y-79070294D01*
X127375510Y-79083715D01*
X127428857Y-79118670D01*
X127380807Y-79053678D01*
X127352203Y-79009954D01*
X127341073Y-78982399D01*
X127341942Y-78979502D01*
X127365220Y-78980862D01*
X127416054Y-78993832D01*
X127467438Y-79010239D01*
X127583750Y-79050162D01*
X127486731Y-78967000D01*
X126747666Y-78967000D01*
X126739922Y-78984422D01*
X126733555Y-78981111D01*
X126731022Y-78955991D01*
X126733555Y-78952888D01*
X126746139Y-78955794D01*
X126747666Y-78967000D01*
X127486731Y-78967000D01*
X127449690Y-78935250D01*
X127566896Y-78942648D01*
X127637949Y-78943262D01*
X127667910Y-78934373D01*
X127656633Y-78917227D01*
X127603972Y-78893066D01*
X127573925Y-78882583D01*
X127512995Y-78857723D01*
X127470845Y-78831826D01*
X127453514Y-78810287D01*
X127467040Y-78798498D01*
X127478853Y-78797666D01*
X127507842Y-78793645D01*
X127502397Y-78783733D01*
X127469422Y-78771154D01*
X127415825Y-78759133D01*
X127387069Y-78754798D01*
X127287416Y-78741932D01*
X127361500Y-78718791D01*
X127435583Y-78695651D01*
X127337703Y-78693742D01*
X127252935Y-78700086D01*
G36*
X127615500Y-79443250D02*
X127626083Y-79453833D01*
X127636666Y-79443250D01*
X127626083Y-79432666D01*
X127615500Y-79443250D01*
X127615500Y-79443250D01*
G37*
X127615500Y-79443250D02*
X127626083Y-79453833D01*
X127636666Y-79443250D01*
X127626083Y-79432666D01*
X127615500Y-79443250D01*
G36*
X127763666Y-78346062D02*
X127777307Y-78386297D01*
X127814697Y-78450191D01*
X127870537Y-78530606D01*
X127939525Y-78620407D01*
X128016364Y-78712457D01*
X128095754Y-78799621D01*
X128115807Y-78820245D01*
X128192040Y-78898384D01*
X128244288Y-78956306D01*
X128278657Y-79003569D01*
X128301254Y-79049732D01*
X128318187Y-79104352D01*
X128330915Y-79156927D01*
X128367018Y-79312280D01*
X128398717Y-79242254D01*
X128438261Y-79185396D01*
X128503580Y-79144697D01*
X128524691Y-79136041D01*
X128581957Y-79109972D01*
X128619758Y-79085097D01*
X128626996Y-79075760D01*
X128647967Y-79052877D01*
X128654430Y-79051666D01*
X128688677Y-79034491D01*
X128731861Y-78990228D01*
X128774229Y-78929773D01*
X128790851Y-78899334D01*
X128825454Y-78829416D01*
X128771571Y-78892916D01*
X128736929Y-78937230D01*
X128718044Y-78968145D01*
X128716928Y-78972291D01*
X128699115Y-78986741D01*
X128687008Y-78988166D01*
X128649913Y-79003099D01*
X128631500Y-79019916D01*
X128588890Y-79043454D01*
X128527378Y-79049950D01*
X128467023Y-79038919D01*
X128440742Y-79024535D01*
X128408863Y-78986589D01*
X128382443Y-78939348D01*
X128358695Y-78901600D01*
X128337258Y-78891683D01*
X128336456Y-78892119D01*
X128313046Y-78884381D01*
X128277007Y-78850651D01*
X128260460Y-78830480D01*
X128223489Y-78786667D01*
X128196291Y-78762748D01*
X128190289Y-78761107D01*
X128170132Y-78748979D01*
X128130053Y-78712884D01*
X128078383Y-78660381D01*
X128073667Y-78655342D01*
X128020864Y-78601719D01*
X127978256Y-78563942D01*
X127954461Y-78549599D01*
X127953620Y-78549694D01*
X127933203Y-78536354D01*
X127896208Y-78496995D01*
X127850592Y-78440097D01*
X127849994Y-78439302D01*
X127807372Y-78385398D01*
X127776524Y-78351819D01*
X127763724Y-78345341D01*
X127763666Y-78346062D01*
X127763666Y-78346062D01*
G37*
X127763666Y-78346062D02*
X127777307Y-78386297D01*
X127814697Y-78450191D01*
X127870537Y-78530606D01*
X127939525Y-78620407D01*
X128016364Y-78712457D01*
X128095754Y-78799621D01*
X128115807Y-78820245D01*
X128192040Y-78898384D01*
X128244288Y-78956306D01*
X128278657Y-79003569D01*
X128301254Y-79049732D01*
X128318187Y-79104352D01*
X128330915Y-79156927D01*
X128367018Y-79312280D01*
X128398717Y-79242254D01*
X128438261Y-79185396D01*
X128503580Y-79144697D01*
X128524691Y-79136041D01*
X128581957Y-79109972D01*
X128619758Y-79085097D01*
X128626996Y-79075760D01*
X128647967Y-79052877D01*
X128654430Y-79051666D01*
X128688677Y-79034491D01*
X128731861Y-78990228D01*
X128774229Y-78929773D01*
X128790851Y-78899334D01*
X128825454Y-78829416D01*
X128771571Y-78892916D01*
X128736929Y-78937230D01*
X128718044Y-78968145D01*
X128716928Y-78972291D01*
X128699115Y-78986741D01*
X128687008Y-78988166D01*
X128649913Y-79003099D01*
X128631500Y-79019916D01*
X128588890Y-79043454D01*
X128527378Y-79049950D01*
X128467023Y-79038919D01*
X128440742Y-79024535D01*
X128408863Y-78986589D01*
X128382443Y-78939348D01*
X128358695Y-78901600D01*
X128337258Y-78891683D01*
X128336456Y-78892119D01*
X128313046Y-78884381D01*
X128277007Y-78850651D01*
X128260460Y-78830480D01*
X128223489Y-78786667D01*
X128196291Y-78762748D01*
X128190289Y-78761107D01*
X128170132Y-78748979D01*
X128130053Y-78712884D01*
X128078383Y-78660381D01*
X128073667Y-78655342D01*
X128020864Y-78601719D01*
X127978256Y-78563942D01*
X127954461Y-78549599D01*
X127953620Y-78549694D01*
X127933203Y-78536354D01*
X127896208Y-78496995D01*
X127850592Y-78440097D01*
X127849994Y-78439302D01*
X127807372Y-78385398D01*
X127776524Y-78351819D01*
X127763724Y-78345341D01*
X127763666Y-78346062D01*
G36*
X132151995Y-77060422D02*
X132113453Y-77098137D01*
X132057779Y-77173841D01*
X132027779Y-77257699D01*
X132018207Y-77364904D01*
X132018166Y-77374154D01*
X132015334Y-77421301D01*
X132004153Y-77433170D01*
X131988888Y-77423884D01*
X131960156Y-77415828D01*
X131941864Y-77448257D01*
X131933897Y-77521439D01*
X131933500Y-77549186D01*
X131929030Y-77607868D01*
X131917821Y-77663314D01*
X131903173Y-77706179D01*
X131888384Y-77727118D01*
X131876756Y-77716786D01*
X131875700Y-77712875D01*
X131860184Y-77678631D01*
X131843244Y-77681116D01*
X131830591Y-77715330D01*
X131827342Y-77755208D01*
X131823578Y-77803627D01*
X131813059Y-77811330D01*
X131808975Y-77806113D01*
X131792604Y-77798574D01*
X131779433Y-77822045D01*
X131772388Y-77865204D01*
X131774396Y-77916726D01*
X131776841Y-77930471D01*
X131787986Y-77982750D01*
X131757498Y-77931464D01*
X131727009Y-77880179D01*
X131712412Y-77926173D01*
X131706176Y-77982423D01*
X131711114Y-78014072D01*
X131712228Y-78066688D01*
X131702601Y-78093447D01*
X131686126Y-78116933D01*
X131680706Y-78102361D01*
X131680143Y-78083291D01*
X131671659Y-78046103D01*
X131658333Y-78035666D01*
X131637776Y-78051235D01*
X131637166Y-78056096D01*
X131622283Y-78089299D01*
X131585714Y-78135365D01*
X131539580Y-78181847D01*
X131495999Y-78216296D01*
X131470932Y-78226831D01*
X131434351Y-78243233D01*
X131398053Y-78279748D01*
X131360024Y-78332000D01*
X131450970Y-78334144D01*
X131528437Y-78334569D01*
X131602177Y-78332854D01*
X131613086Y-78332317D01*
X131661555Y-78334898D01*
X131670874Y-78349872D01*
X131670045Y-78351340D01*
X131661423Y-78367749D01*
X131667493Y-78370619D01*
X131694728Y-78357444D01*
X131749605Y-78325720D01*
X131774750Y-78310833D01*
X131838085Y-78276424D01*
X131890531Y-78253469D01*
X131913665Y-78247694D01*
X131951946Y-78230238D01*
X132004844Y-78182823D01*
X132065446Y-78111941D01*
X132082725Y-78088948D01*
X132101498Y-78061694D01*
X132095778Y-78059323D01*
X132060274Y-78080912D01*
X132055208Y-78084145D01*
X132012058Y-78108093D01*
X131999014Y-78102866D01*
X132013387Y-78066057D01*
X132020278Y-78052887D01*
X132032970Y-78022767D01*
X132021048Y-78023307D01*
X132020278Y-78023778D01*
X131999273Y-78028587D01*
X132001558Y-78006589D01*
X132025129Y-77964923D01*
X132043985Y-77939310D01*
X132090970Y-77879578D01*
X132105375Y-77931164D01*
X132116100Y-77966358D01*
X132120336Y-77961772D01*
X132121890Y-77935125D01*
X132130558Y-77897901D01*
X132142566Y-77887500D01*
X132151557Y-77868664D01*
X132153680Y-77820708D01*
X132151543Y-77786958D01*
X132149215Y-77733788D01*
X132153749Y-77707775D01*
X132159435Y-77709127D01*
X132193861Y-77736249D01*
X132211845Y-77744693D01*
X132233136Y-77748126D01*
X132237091Y-77729825D01*
X132225598Y-77680670D01*
X132225317Y-77679649D01*
X132201042Y-77612766D01*
X132170035Y-77554869D01*
X132138421Y-77514562D01*
X132112325Y-77500449D01*
X132102477Y-77507076D01*
X132087373Y-77509182D01*
X132070665Y-77481844D01*
X132056318Y-77437585D01*
X132048296Y-77388928D01*
X132050566Y-77348394D01*
X132051372Y-77345688D01*
X132067878Y-77294960D01*
X132074744Y-77273666D01*
X132088022Y-77260566D01*
X132113807Y-77279130D01*
X132136650Y-77305416D01*
X132188374Y-77368916D01*
X132155591Y-77274609D01*
X132135633Y-77201193D01*
X132133697Y-77152579D01*
X132148939Y-77133765D01*
X132177167Y-77146874D01*
X132201543Y-77160386D01*
X132208555Y-77137833D01*
X132208666Y-77129822D01*
X132203404Y-77067524D01*
X132185547Y-77044734D01*
X132151995Y-77060422D01*
X132151995Y-77060422D01*
G37*
X132151995Y-77060422D02*
X132113453Y-77098137D01*
X132057779Y-77173841D01*
X132027779Y-77257699D01*
X132018207Y-77364904D01*
X132018166Y-77374154D01*
X132015334Y-77421301D01*
X132004153Y-77433170D01*
X131988888Y-77423884D01*
X131960156Y-77415828D01*
X131941864Y-77448257D01*
X131933897Y-77521439D01*
X131933500Y-77549186D01*
X131929030Y-77607868D01*
X131917821Y-77663314D01*
X131903173Y-77706179D01*
X131888384Y-77727118D01*
X131876756Y-77716786D01*
X131875700Y-77712875D01*
X131860184Y-77678631D01*
X131843244Y-77681116D01*
X131830591Y-77715330D01*
X131827342Y-77755208D01*
X131823578Y-77803627D01*
X131813059Y-77811330D01*
X131808975Y-77806113D01*
X131792604Y-77798574D01*
X131779433Y-77822045D01*
X131772388Y-77865204D01*
X131774396Y-77916726D01*
X131776841Y-77930471D01*
X131787986Y-77982750D01*
X131757498Y-77931464D01*
X131727009Y-77880179D01*
X131712412Y-77926173D01*
X131706176Y-77982423D01*
X131711114Y-78014072D01*
X131712228Y-78066688D01*
X131702601Y-78093447D01*
X131686126Y-78116933D01*
X131680706Y-78102361D01*
X131680143Y-78083291D01*
X131671659Y-78046103D01*
X131658333Y-78035666D01*
X131637776Y-78051235D01*
X131637166Y-78056096D01*
X131622283Y-78089299D01*
X131585714Y-78135365D01*
X131539580Y-78181847D01*
X131495999Y-78216296D01*
X131470932Y-78226831D01*
X131434351Y-78243233D01*
X131398053Y-78279748D01*
X131360024Y-78332000D01*
X131450970Y-78334144D01*
X131528437Y-78334569D01*
X131602177Y-78332854D01*
X131613086Y-78332317D01*
X131661555Y-78334898D01*
X131670874Y-78349872D01*
X131670045Y-78351340D01*
X131661423Y-78367749D01*
X131667493Y-78370619D01*
X131694728Y-78357444D01*
X131749605Y-78325720D01*
X131774750Y-78310833D01*
X131838085Y-78276424D01*
X131890531Y-78253469D01*
X131913665Y-78247694D01*
X131951946Y-78230238D01*
X132004844Y-78182823D01*
X132065446Y-78111941D01*
X132082725Y-78088948D01*
X132101498Y-78061694D01*
X132095778Y-78059323D01*
X132060274Y-78080912D01*
X132055208Y-78084145D01*
X132012058Y-78108093D01*
X131999014Y-78102866D01*
X132013387Y-78066057D01*
X132020278Y-78052887D01*
X132032970Y-78022767D01*
X132021048Y-78023307D01*
X132020278Y-78023778D01*
X131999273Y-78028587D01*
X132001558Y-78006589D01*
X132025129Y-77964923D01*
X132043985Y-77939310D01*
X132090970Y-77879578D01*
X132105375Y-77931164D01*
X132116100Y-77966358D01*
X132120336Y-77961772D01*
X132121890Y-77935125D01*
X132130558Y-77897901D01*
X132142566Y-77887500D01*
X132151557Y-77868664D01*
X132153680Y-77820708D01*
X132151543Y-77786958D01*
X132149215Y-77733788D01*
X132153749Y-77707775D01*
X132159435Y-77709127D01*
X132193861Y-77736249D01*
X132211845Y-77744693D01*
X132233136Y-77748126D01*
X132237091Y-77729825D01*
X132225598Y-77680670D01*
X132225317Y-77679649D01*
X132201042Y-77612766D01*
X132170035Y-77554869D01*
X132138421Y-77514562D01*
X132112325Y-77500449D01*
X132102477Y-77507076D01*
X132087373Y-77509182D01*
X132070665Y-77481844D01*
X132056318Y-77437585D01*
X132048296Y-77388928D01*
X132050566Y-77348394D01*
X132051372Y-77345688D01*
X132067878Y-77294960D01*
X132074744Y-77273666D01*
X132088022Y-77260566D01*
X132113807Y-77279130D01*
X132136650Y-77305416D01*
X132188374Y-77368916D01*
X132155591Y-77274609D01*
X132135633Y-77201193D01*
X132133697Y-77152579D01*
X132148939Y-77133765D01*
X132177167Y-77146874D01*
X132201543Y-77160386D01*
X132208555Y-77137833D01*
X132208666Y-77129822D01*
X132203404Y-77067524D01*
X132185547Y-77044734D01*
X132151995Y-77060422D01*
G36*
X126422942Y-78165207D02*
X126417709Y-78170832D01*
X126404977Y-78209542D01*
X126409052Y-78236897D01*
X126420073Y-78259235D01*
X126428773Y-78245764D01*
X126435515Y-78214991D01*
X126443823Y-78165288D01*
X126440460Y-78150748D01*
X126422942Y-78165207D01*
X126422942Y-78165207D01*
G37*
X126422942Y-78165207D02*
X126417709Y-78170832D01*
X126404977Y-78209542D01*
X126409052Y-78236897D01*
X126420073Y-78259235D01*
X126428773Y-78245764D01*
X126435515Y-78214991D01*
X126443823Y-78165288D01*
X126440460Y-78150748D01*
X126422942Y-78165207D01*
G36*
X130267000Y-75652178D02*
X130247384Y-75680584D01*
X130229690Y-75734104D01*
X130212417Y-75817792D01*
X130194063Y-75936703D01*
X130186418Y-75992736D01*
X130172776Y-76091282D01*
X130160420Y-76173311D01*
X130150688Y-76230399D01*
X130144922Y-76254122D01*
X130144842Y-76254213D01*
X130136090Y-76238103D01*
X130117401Y-76188499D01*
X130091232Y-76112388D01*
X130060038Y-76016755D01*
X130048209Y-75979394D01*
X130014055Y-75874553D01*
X129981965Y-75783011D01*
X129955012Y-75713053D01*
X129936265Y-75672963D01*
X129932811Y-75668116D01*
X129890827Y-75649845D01*
X129863442Y-75653059D01*
X129841850Y-75665934D01*
X129823110Y-75693204D01*
X129805684Y-75740245D01*
X129788035Y-75812430D01*
X129768629Y-75915132D01*
X129745929Y-76053726D01*
X129742337Y-76076706D01*
X129727828Y-76165955D01*
X129714926Y-76238117D01*
X129705359Y-76283909D01*
X129701676Y-76295212D01*
X129694281Y-76279014D01*
X129679870Y-76229087D01*
X129660483Y-76153060D01*
X129638159Y-76058557D01*
X129636855Y-76052839D01*
X129613200Y-75949112D01*
X129591657Y-75855080D01*
X129574698Y-75781515D01*
X129565190Y-75740826D01*
X129539048Y-75679884D01*
X129501367Y-75650133D01*
X129459599Y-75656140D01*
X129445480Y-75667448D01*
X129431941Y-75685133D01*
X129425704Y-75709451D01*
X129427379Y-75748261D01*
X129437572Y-75809420D01*
X129456893Y-75900789D01*
X129467068Y-75946462D01*
X129492044Y-76054950D01*
X129517155Y-76159136D01*
X129539162Y-76245841D01*
X129552532Y-76294348D01*
X129585814Y-76377740D01*
X129628244Y-76443849D01*
X129672940Y-76483390D01*
X129697960Y-76490500D01*
X129742026Y-76469847D01*
X129783008Y-76409866D01*
X129819699Y-76313518D01*
X129850890Y-76183766D01*
X129869483Y-76069736D01*
X129878588Y-76014440D01*
X129888659Y-75986422D01*
X129901758Y-75988302D01*
X129919948Y-76022700D01*
X129945290Y-76092236D01*
X129979847Y-76199529D01*
X129985264Y-76216837D01*
X130030154Y-76344336D01*
X130073019Y-76431090D01*
X130115180Y-76478552D01*
X130157959Y-76488178D01*
X130202675Y-76461423D01*
X130205109Y-76459033D01*
X130241780Y-76399973D01*
X130275926Y-76298665D01*
X130307545Y-76155118D01*
X130336635Y-75969340D01*
X130337043Y-75966298D01*
X130352039Y-75841542D01*
X130357768Y-75752687D01*
X130353417Y-75694153D01*
X130338173Y-75660363D01*
X130311221Y-75645735D01*
X130290038Y-75643833D01*
X130267000Y-75652178D01*
X130267000Y-75652178D01*
G37*
X130267000Y-75652178D02*
X130247384Y-75680584D01*
X130229690Y-75734104D01*
X130212417Y-75817792D01*
X130194063Y-75936703D01*
X130186418Y-75992736D01*
X130172776Y-76091282D01*
X130160420Y-76173311D01*
X130150688Y-76230399D01*
X130144922Y-76254122D01*
X130144842Y-76254213D01*
X130136090Y-76238103D01*
X130117401Y-76188499D01*
X130091232Y-76112388D01*
X130060038Y-76016755D01*
X130048209Y-75979394D01*
X130014055Y-75874553D01*
X129981965Y-75783011D01*
X129955012Y-75713053D01*
X129936265Y-75672963D01*
X129932811Y-75668116D01*
X129890827Y-75649845D01*
X129863442Y-75653059D01*
X129841850Y-75665934D01*
X129823110Y-75693204D01*
X129805684Y-75740245D01*
X129788035Y-75812430D01*
X129768629Y-75915132D01*
X129745929Y-76053726D01*
X129742337Y-76076706D01*
X129727828Y-76165955D01*
X129714926Y-76238117D01*
X129705359Y-76283909D01*
X129701676Y-76295212D01*
X129694281Y-76279014D01*
X129679870Y-76229087D01*
X129660483Y-76153060D01*
X129638159Y-76058557D01*
X129636855Y-76052839D01*
X129613200Y-75949112D01*
X129591657Y-75855080D01*
X129574698Y-75781515D01*
X129565190Y-75740826D01*
X129539048Y-75679884D01*
X129501367Y-75650133D01*
X129459599Y-75656140D01*
X129445480Y-75667448D01*
X129431941Y-75685133D01*
X129425704Y-75709451D01*
X129427379Y-75748261D01*
X129437572Y-75809420D01*
X129456893Y-75900789D01*
X129467068Y-75946462D01*
X129492044Y-76054950D01*
X129517155Y-76159136D01*
X129539162Y-76245841D01*
X129552532Y-76294348D01*
X129585814Y-76377740D01*
X129628244Y-76443849D01*
X129672940Y-76483390D01*
X129697960Y-76490500D01*
X129742026Y-76469847D01*
X129783008Y-76409866D01*
X129819699Y-76313518D01*
X129850890Y-76183766D01*
X129869483Y-76069736D01*
X129878588Y-76014440D01*
X129888659Y-75986422D01*
X129901758Y-75988302D01*
X129919948Y-76022700D01*
X129945290Y-76092236D01*
X129979847Y-76199529D01*
X129985264Y-76216837D01*
X130030154Y-76344336D01*
X130073019Y-76431090D01*
X130115180Y-76478552D01*
X130157959Y-76488178D01*
X130202675Y-76461423D01*
X130205109Y-76459033D01*
X130241780Y-76399973D01*
X130275926Y-76298665D01*
X130307545Y-76155118D01*
X130336635Y-75969340D01*
X130337043Y-75966298D01*
X130352039Y-75841542D01*
X130357768Y-75752687D01*
X130353417Y-75694153D01*
X130338173Y-75660363D01*
X130311221Y-75645735D01*
X130290038Y-75643833D01*
X130267000Y-75652178D01*
G36*
X128404333Y-75652178D02*
X128384718Y-75680584D01*
X128367024Y-75734104D01*
X128349750Y-75817792D01*
X128331396Y-75936703D01*
X128323751Y-75992736D01*
X128310109Y-76091282D01*
X128297753Y-76173311D01*
X128288022Y-76230399D01*
X128282255Y-76254122D01*
X128282175Y-76254213D01*
X128273423Y-76238103D01*
X128254735Y-76188499D01*
X128228565Y-76112388D01*
X128197372Y-76016755D01*
X128185542Y-75979394D01*
X128151388Y-75874553D01*
X128119299Y-75783011D01*
X128092345Y-75713053D01*
X128073599Y-75672963D01*
X128070144Y-75668116D01*
X128028161Y-75649845D01*
X128000775Y-75653059D01*
X127979184Y-75665934D01*
X127960443Y-75693204D01*
X127943017Y-75740245D01*
X127925369Y-75812430D01*
X127905963Y-75915132D01*
X127883262Y-76053726D01*
X127879670Y-76076706D01*
X127865161Y-76165955D01*
X127852259Y-76238117D01*
X127842692Y-76283909D01*
X127839009Y-76295212D01*
X127831614Y-76279014D01*
X127817204Y-76229087D01*
X127797816Y-76153060D01*
X127775492Y-76058557D01*
X127774189Y-76052839D01*
X127750534Y-75949112D01*
X127728990Y-75855080D01*
X127712032Y-75781515D01*
X127702524Y-75740826D01*
X127676381Y-75679884D01*
X127638701Y-75650133D01*
X127596932Y-75656140D01*
X127582814Y-75667448D01*
X127569274Y-75685133D01*
X127563037Y-75709451D01*
X127564712Y-75748261D01*
X127574906Y-75809420D01*
X127594227Y-75900789D01*
X127604402Y-75946462D01*
X127629377Y-76054950D01*
X127654488Y-76159136D01*
X127676496Y-76245841D01*
X127689866Y-76294348D01*
X127723147Y-76377740D01*
X127765578Y-76443849D01*
X127810273Y-76483390D01*
X127835294Y-76490500D01*
X127879359Y-76469847D01*
X127920341Y-76409866D01*
X127957032Y-76313518D01*
X127988224Y-76183766D01*
X128006816Y-76069736D01*
X128015921Y-76014440D01*
X128025992Y-75986422D01*
X128039092Y-75988302D01*
X128057282Y-76022700D01*
X128082624Y-76092236D01*
X128117181Y-76199529D01*
X128122598Y-76216837D01*
X128167487Y-76344336D01*
X128210352Y-76431090D01*
X128252514Y-76478552D01*
X128295292Y-76488178D01*
X128340009Y-76461423D01*
X128342443Y-76459033D01*
X128379113Y-76399973D01*
X128413259Y-76298665D01*
X128444878Y-76155118D01*
X128473968Y-75969340D01*
X128474376Y-75966298D01*
X128489372Y-75841542D01*
X128495102Y-75752687D01*
X128490751Y-75694153D01*
X128475506Y-75660363D01*
X128448554Y-75645735D01*
X128427371Y-75643833D01*
X128404333Y-75652178D01*
X128404333Y-75652178D01*
G37*
X128404333Y-75652178D02*
X128384718Y-75680584D01*
X128367024Y-75734104D01*
X128349750Y-75817792D01*
X128331396Y-75936703D01*
X128323751Y-75992736D01*
X128310109Y-76091282D01*
X128297753Y-76173311D01*
X128288022Y-76230399D01*
X128282255Y-76254122D01*
X128282175Y-76254213D01*
X128273423Y-76238103D01*
X128254735Y-76188499D01*
X128228565Y-76112388D01*
X128197372Y-76016755D01*
X128185542Y-75979394D01*
X128151388Y-75874553D01*
X128119299Y-75783011D01*
X128092345Y-75713053D01*
X128073599Y-75672963D01*
X128070144Y-75668116D01*
X128028161Y-75649845D01*
X128000775Y-75653059D01*
X127979184Y-75665934D01*
X127960443Y-75693204D01*
X127943017Y-75740245D01*
X127925369Y-75812430D01*
X127905963Y-75915132D01*
X127883262Y-76053726D01*
X127879670Y-76076706D01*
X127865161Y-76165955D01*
X127852259Y-76238117D01*
X127842692Y-76283909D01*
X127839009Y-76295212D01*
X127831614Y-76279014D01*
X127817204Y-76229087D01*
X127797816Y-76153060D01*
X127775492Y-76058557D01*
X127774189Y-76052839D01*
X127750534Y-75949112D01*
X127728990Y-75855080D01*
X127712032Y-75781515D01*
X127702524Y-75740826D01*
X127676381Y-75679884D01*
X127638701Y-75650133D01*
X127596932Y-75656140D01*
X127582814Y-75667448D01*
X127569274Y-75685133D01*
X127563037Y-75709451D01*
X127564712Y-75748261D01*
X127574906Y-75809420D01*
X127594227Y-75900789D01*
X127604402Y-75946462D01*
X127629377Y-76054950D01*
X127654488Y-76159136D01*
X127676496Y-76245841D01*
X127689866Y-76294348D01*
X127723147Y-76377740D01*
X127765578Y-76443849D01*
X127810273Y-76483390D01*
X127835294Y-76490500D01*
X127879359Y-76469847D01*
X127920341Y-76409866D01*
X127957032Y-76313518D01*
X127988224Y-76183766D01*
X128006816Y-76069736D01*
X128015921Y-76014440D01*
X128025992Y-75986422D01*
X128039092Y-75988302D01*
X128057282Y-76022700D01*
X128082624Y-76092236D01*
X128117181Y-76199529D01*
X128122598Y-76216837D01*
X128167487Y-76344336D01*
X128210352Y-76431090D01*
X128252514Y-76478552D01*
X128295292Y-76488178D01*
X128340009Y-76461423D01*
X128342443Y-76459033D01*
X128379113Y-76399973D01*
X128413259Y-76298665D01*
X128444878Y-76155118D01*
X128473968Y-75969340D01*
X128474376Y-75966298D01*
X128489372Y-75841542D01*
X128495102Y-75752687D01*
X128490751Y-75694153D01*
X128475506Y-75660363D01*
X128448554Y-75645735D01*
X128427371Y-75643833D01*
X128404333Y-75652178D01*
G36*
X128891383Y-75650953D02*
X128802221Y-75689407D01*
X128731327Y-75763236D01*
X128681841Y-75870429D01*
X128659969Y-75977220D01*
X128660941Y-76106057D01*
X128692229Y-76220811D01*
X128748825Y-76316792D01*
X128825721Y-76389310D01*
X128917911Y-76433675D01*
X129020386Y-76445198D01*
X129128138Y-76419188D01*
X129130712Y-76418080D01*
X129217287Y-76359355D01*
X129278289Y-76275192D01*
X129313926Y-76173728D01*
X129318739Y-76122926D01*
X129179788Y-76122926D01*
X129170109Y-76171374D01*
X129143057Y-76215300D01*
X129129298Y-76232186D01*
X129062059Y-76285223D01*
X128986823Y-76300241D01*
X128912393Y-76276110D01*
X128893269Y-76262487D01*
X128835868Y-76197824D01*
X128806752Y-76114931D01*
X128800833Y-76035757D01*
X128813910Y-75930272D01*
X128850634Y-75852236D01*
X128907250Y-75805447D01*
X128979998Y-75793705D01*
X129029185Y-75804834D01*
X129100100Y-75851795D01*
X129150059Y-75931904D01*
X129175906Y-76039899D01*
X129176991Y-76051391D01*
X129179788Y-76122926D01*
X129318739Y-76122926D01*
X129324409Y-76063100D01*
X129309946Y-75951446D01*
X129270747Y-75846904D01*
X129207021Y-75757612D01*
X129118976Y-75691706D01*
X129111950Y-75688199D01*
X128995673Y-75649881D01*
X128891383Y-75650953D01*
X128891383Y-75650953D01*
G37*
X128891383Y-75650953D02*
X128802221Y-75689407D01*
X128731327Y-75763236D01*
X128681841Y-75870429D01*
X128659969Y-75977220D01*
X128660941Y-76106057D01*
X128692229Y-76220811D01*
X128748825Y-76316792D01*
X128825721Y-76389310D01*
X128917911Y-76433675D01*
X129020386Y-76445198D01*
X129128138Y-76419188D01*
X129130712Y-76418080D01*
X129217287Y-76359355D01*
X129278289Y-76275192D01*
X129313926Y-76173728D01*
X129318739Y-76122926D01*
X129179788Y-76122926D01*
X129170109Y-76171374D01*
X129143057Y-76215300D01*
X129129298Y-76232186D01*
X129062059Y-76285223D01*
X128986823Y-76300241D01*
X128912393Y-76276110D01*
X128893269Y-76262487D01*
X128835868Y-76197824D01*
X128806752Y-76114931D01*
X128800833Y-76035757D01*
X128813910Y-75930272D01*
X128850634Y-75852236D01*
X128907250Y-75805447D01*
X128979998Y-75793705D01*
X129029185Y-75804834D01*
X129100100Y-75851795D01*
X129150059Y-75931904D01*
X129175906Y-76039899D01*
X129176991Y-76051391D01*
X129179788Y-76122926D01*
X129318739Y-76122926D01*
X129324409Y-76063100D01*
X129309946Y-75951446D01*
X129270747Y-75846904D01*
X129207021Y-75757612D01*
X129118976Y-75691706D01*
X129111950Y-75688199D01*
X128995673Y-75649881D01*
X128891383Y-75650953D01*
M02*
