G04 #@! TF.FileFunction,Soldermask,Top*
%FSLAX46Y46*%
G04 Gerber Fmt 4.6, Leading zero omitted, Abs format (unit mm)*
G04 Created by KiCad (PCBNEW 0.201510291901+6286~30~ubuntu14.04.1-product) date Mon 02 Nov 2015 07:58:44 AM PST*
%MOMM*%
G01*
G04 APERTURE LIST*
%ADD10C,0.100000*%
%ADD11C,0.700000*%
%ADD12R,1.314400X1.314400*%
%ADD13R,1.600000X1.600000*%
%ADD14R,2.000000X1.900000*%
%ADD15C,4.464000*%
%ADD16R,0.908000X1.162000*%
%ADD17R,1.162000X0.908000*%
%ADD18R,1.900000X1.700000*%
%ADD19R,1.700000X1.900000*%
%ADD20R,1.900000X1.650000*%
%ADD21R,1.650000X1.900000*%
%ADD22R,2.400000X2.400000*%
%ADD23C,2.400000*%
%ADD24R,2.127200X2.432000*%
%ADD25C,2.540000*%
%ADD26R,1.901140X1.901140*%
%ADD27O,2.900000X4.400000*%
%ADD28O,2.900000X5.400000*%
%ADD29O,4.400000X2.900000*%
%ADD30R,0.700000X2.400000*%
%ADD31C,2.100000*%
%ADD32R,2.200000X5.480000*%
%ADD33R,1.400760X1.901140*%
%ADD34R,2.398980X3.399740*%
G04 APERTURE END LIST*
D10*
D11*
X143000000Y-73650000D03*
X140800000Y-73650000D03*
X138750000Y-75500000D03*
X136800000Y-77450000D03*
X136500000Y-79500000D03*
X136500000Y-81450000D03*
X136500000Y-83500000D03*
X139500000Y-83500000D03*
X139500000Y-81500000D03*
X139500000Y-79500000D03*
X141150000Y-77850000D03*
X142950000Y-76300000D03*
X127450000Y-68150000D03*
X128750000Y-66800000D03*
X126200000Y-69400000D03*
X124700000Y-70900000D03*
X123100000Y-72500000D03*
X131250000Y-66800000D03*
X130200000Y-69350000D03*
X128350000Y-71200000D03*
X126750000Y-72800000D03*
X125050000Y-74500000D03*
X121000000Y-73750000D03*
X119000000Y-73750000D03*
X117000000Y-73750000D03*
X123300000Y-76250000D03*
X121000000Y-76250000D03*
X119000000Y-76250000D03*
X117000000Y-76250000D03*
X124700000Y-90250000D03*
D12*
X102611000Y-92934000D03*
X104389000Y-92934000D03*
X103500000Y-94966000D03*
X111161000Y-93434000D03*
X112939000Y-93434000D03*
X112050000Y-95466000D03*
D13*
X107150000Y-96850000D03*
X109150000Y-96850000D03*
D14*
X108150000Y-93600000D03*
D15*
X104000000Y-64000000D03*
X104000000Y-106000000D03*
X156000000Y-106000000D03*
X156000000Y-64000000D03*
D16*
X117297500Y-103520000D03*
X119202500Y-103520000D03*
X117297500Y-100980000D03*
X118250000Y-103520000D03*
X119202500Y-100980000D03*
D17*
X142680000Y-86447500D03*
X142680000Y-88352500D03*
X145220000Y-86447500D03*
X142680000Y-87400000D03*
X145220000Y-88352500D03*
D18*
X142600000Y-91700000D03*
X145300000Y-91700000D03*
X121950000Y-93350000D03*
X119250000Y-93350000D03*
D19*
X132650000Y-93800000D03*
X132650000Y-96500000D03*
D18*
X119250000Y-97050000D03*
X121950000Y-97050000D03*
X128700000Y-100150000D03*
X126000000Y-100150000D03*
X113150000Y-89650000D03*
X115850000Y-89650000D03*
X132650000Y-100150000D03*
X135350000Y-100150000D03*
X107550000Y-89650000D03*
X110250000Y-89650000D03*
X139150000Y-100150000D03*
X141850000Y-100150000D03*
D19*
X103550000Y-89550000D03*
X103550000Y-86850000D03*
D20*
X117000000Y-106950000D03*
X119500000Y-106950000D03*
D21*
X122100000Y-103450000D03*
X122100000Y-100950000D03*
X114250000Y-103500000D03*
X114250000Y-101000000D03*
X138050000Y-87350000D03*
X138050000Y-89850000D03*
D20*
X149700000Y-88050000D03*
X152200000Y-88050000D03*
D21*
X132650000Y-87250000D03*
X132650000Y-89750000D03*
D20*
X121750000Y-89700000D03*
X119250000Y-89700000D03*
X149700000Y-90450000D03*
X152200000Y-90450000D03*
D21*
X128700000Y-94050000D03*
X128700000Y-96550000D03*
D20*
X149700000Y-85550000D03*
X152200000Y-85550000D03*
D21*
X116050000Y-96100000D03*
X116050000Y-93600000D03*
D22*
X142000000Y-62500000D03*
D23*
X144540000Y-62500000D03*
D24*
X110410000Y-62500000D03*
D23*
X112950000Y-62500000D03*
X115490000Y-62500000D03*
X118030000Y-62500000D03*
D25*
X104000000Y-101500000D03*
X104000000Y-68500000D03*
X156000000Y-68500000D03*
D23*
X145000000Y-75000000D03*
X115000000Y-75000000D03*
X145000000Y-77540000D03*
X145000000Y-72460000D03*
X115000000Y-77540000D03*
X115000000Y-72460000D03*
D26*
X156550000Y-90400000D03*
X103450000Y-98500000D03*
X156050000Y-73300000D03*
D27*
X152300000Y-98000000D03*
D28*
X146200000Y-98000000D03*
D29*
X149100000Y-93400000D03*
D10*
G36*
X109350000Y-99200000D02*
X109350000Y-101600000D01*
X108450000Y-101100000D01*
X108450000Y-99700000D01*
X109350000Y-99200000D01*
X109350000Y-99200000D01*
G37*
G36*
X110750000Y-99700000D02*
X110750000Y-101100000D01*
X109850000Y-101600000D01*
X109850000Y-99200000D01*
X110750000Y-99700000D01*
X110750000Y-99700000D01*
G37*
D30*
X109900000Y-100400000D03*
X109300000Y-100400000D03*
D10*
G36*
X116650000Y-84750000D02*
X116650000Y-87150000D01*
X115750000Y-86650000D01*
X115750000Y-85250000D01*
X116650000Y-84750000D01*
X116650000Y-84750000D01*
G37*
G36*
X118050000Y-85250000D02*
X118050000Y-86650000D01*
X117150000Y-87150000D01*
X117150000Y-84750000D01*
X118050000Y-85250000D01*
X118050000Y-85250000D01*
G37*
D30*
X117200000Y-85950000D03*
X116600000Y-85950000D03*
D31*
X138050000Y-94650000D03*
X140500000Y-94650000D03*
X135600000Y-94650000D03*
D11*
X124700000Y-88750000D03*
D32*
X130000000Y-62550000D03*
X127000000Y-62550000D03*
D11*
X133000000Y-64590000D03*
X133000000Y-60590000D03*
X132500000Y-61590000D03*
X133500000Y-61590000D03*
X133000000Y-62590000D03*
X132500000Y-63590000D03*
X133500000Y-63590000D03*
X127000000Y-64590000D03*
X127000000Y-60590000D03*
X126500000Y-61590000D03*
X127500000Y-61590000D03*
X127000000Y-62590000D03*
X126500000Y-63590000D03*
X127500000Y-63590000D03*
D32*
X133000000Y-62550000D03*
X130000000Y-107460000D03*
X127000000Y-107460000D03*
D11*
X133000000Y-109500000D03*
X133000000Y-105500000D03*
X132500000Y-106500000D03*
X133500000Y-106500000D03*
X133000000Y-107500000D03*
X132500000Y-108500000D03*
X133500000Y-108500000D03*
X127000000Y-109500000D03*
X127000000Y-105500000D03*
X126500000Y-106500000D03*
X127500000Y-106500000D03*
X127000000Y-107500000D03*
X126500000Y-108500000D03*
X127500000Y-108500000D03*
D32*
X133000000Y-107460000D03*
D33*
X126248860Y-89951660D03*
X127750000Y-89951660D03*
X129251140Y-89951660D03*
D34*
X127750000Y-87000180D03*
D10*
G36*
X128950760Y-88274650D02*
X128450380Y-89423950D01*
X127049620Y-89423950D01*
X126549240Y-88274650D01*
X128950760Y-88274650D01*
X128950760Y-88274650D01*
G37*
M02*
