G04 #@! TF.FileFunction,Copper,L2,Bot,Signal*
%FSLAX46Y46*%
G04 Gerber Fmt 4.6, Leading zero omitted, Abs format (unit mm)*
G04 Created by KiCad (PCBNEW 0.201510291901+6286~30~ubuntu14.04.1-product) date Mon 02 Nov 2015 07:58:44 AM PST*
%MOMM*%
G01*
G04 APERTURE LIST*
%ADD10C,0.100000*%
%ADD11C,0.500000*%
%ADD12C,4.064000*%
%ADD13R,2.000000X2.000000*%
%ADD14C,2.000000*%
%ADD15R,1.727200X2.032000*%
%ADD16R,1.501140X1.501140*%
%ADD17O,2.500000X4.000000*%
%ADD18O,2.500000X5.000000*%
%ADD19O,4.000000X2.500000*%
%ADD20C,1.700000*%
%ADD21R,1.800000X5.080000*%
%ADD22C,0.300000*%
%ADD23C,0.800000*%
%ADD24C,0.250000*%
%ADD25C,0.400000*%
G04 APERTURE END LIST*
D10*
D11*
X143000000Y-73650000D03*
X140800000Y-73650000D03*
X138750000Y-75500000D03*
X136800000Y-77450000D03*
X136500000Y-79500000D03*
X136500000Y-81450000D03*
X136500000Y-83500000D03*
X139500000Y-83500000D03*
X139500000Y-81500000D03*
X139500000Y-79500000D03*
X141150000Y-77850000D03*
X142950000Y-76300000D03*
X127450000Y-68150000D03*
X128750000Y-66800000D03*
X126200000Y-69400000D03*
X124700000Y-70900000D03*
X123100000Y-72500000D03*
X131250000Y-66800000D03*
X130200000Y-69350000D03*
X128350000Y-71200000D03*
X126750000Y-72800000D03*
X125050000Y-74500000D03*
X121000000Y-73750000D03*
X119000000Y-73750000D03*
X117000000Y-73750000D03*
X123300000Y-76250000D03*
X121000000Y-76250000D03*
X119000000Y-76250000D03*
X117000000Y-76250000D03*
X124700000Y-90250000D03*
D12*
X104000000Y-64000000D03*
X104000000Y-106000000D03*
X156000000Y-106000000D03*
X156000000Y-64000000D03*
D13*
X142000000Y-62500000D03*
D14*
X144540000Y-62500000D03*
D15*
X110410000Y-62500000D03*
D14*
X112950000Y-62500000D03*
X115490000Y-62500000D03*
X118030000Y-62500000D03*
X145000000Y-75000000D03*
X115000000Y-75000000D03*
X145000000Y-77540000D03*
X145000000Y-72460000D03*
X115000000Y-77540000D03*
X115000000Y-72460000D03*
D16*
X156550000Y-90400000D03*
X103450000Y-98500000D03*
X156050000Y-73300000D03*
D17*
X152300000Y-98000000D03*
D18*
X146200000Y-98000000D03*
D19*
X149100000Y-93400000D03*
D20*
X138050000Y-94650000D03*
X140500000Y-94650000D03*
X135600000Y-94650000D03*
D11*
X124700000Y-88750000D03*
D21*
X133000000Y-62550000D03*
D22*
X133000000Y-64590000D03*
X133000000Y-60590000D03*
X132500000Y-61590000D03*
X133500000Y-61590000D03*
X133000000Y-62590000D03*
X132500000Y-63590000D03*
X133500000Y-63590000D03*
X127000000Y-64590000D03*
X127000000Y-60590000D03*
X126500000Y-61590000D03*
X127500000Y-61590000D03*
X127000000Y-62590000D03*
X126500000Y-63590000D03*
X127500000Y-63590000D03*
D21*
X127000000Y-62550000D03*
X133000000Y-107460000D03*
D22*
X133000000Y-109500000D03*
X133000000Y-105500000D03*
X132500000Y-106500000D03*
X133500000Y-106500000D03*
X133000000Y-107500000D03*
X132500000Y-108500000D03*
X133500000Y-108500000D03*
X127000000Y-109500000D03*
X127000000Y-105500000D03*
X126500000Y-106500000D03*
X127500000Y-106500000D03*
X127000000Y-107500000D03*
X126500000Y-108500000D03*
X127500000Y-108500000D03*
D21*
X127000000Y-107460000D03*
D11*
X141050000Y-86450000D03*
D23*
X140050000Y-88350000D03*
X121950000Y-95300000D03*
X109450000Y-86500000D03*
X122750000Y-86500000D03*
X146200000Y-85250000D03*
D11*
X117550000Y-89650000D03*
X101800000Y-94950000D03*
X111650000Y-100400000D03*
X117650000Y-93350000D03*
D24*
X114500000Y-81400000D02*
X110410000Y-77310000D01*
X110410000Y-77310000D02*
X110410000Y-62500000D01*
X127350000Y-81400000D02*
X114500000Y-81400000D01*
X140100000Y-68650000D02*
X127350000Y-81400000D01*
X146700000Y-68650000D02*
X140100000Y-68650000D01*
X148950000Y-70900000D02*
X146700000Y-68650000D01*
X148950000Y-78550000D02*
X148950000Y-70900000D01*
X141050000Y-86450000D02*
X148950000Y-78550000D01*
D25*
X147300000Y-78050000D02*
X140050000Y-85300000D01*
X140050000Y-85300000D02*
X140050000Y-88350000D01*
X147300000Y-71550000D02*
X147300000Y-78050000D01*
X145700000Y-69950000D02*
X147300000Y-71550000D01*
X141250000Y-69950000D02*
X145700000Y-69950000D01*
X125800000Y-85400000D02*
X141250000Y-69950000D01*
X122349999Y-88850001D02*
X125800000Y-85400000D01*
X121950000Y-95300000D02*
X122349999Y-94900001D01*
X122349999Y-94900001D02*
X122349999Y-88850001D01*
X122750000Y-86500000D02*
X109450000Y-86500000D01*
X142750000Y-65150000D02*
X142000000Y-64400000D01*
X146200000Y-85250000D02*
X152600000Y-78850000D01*
X152600000Y-78850000D02*
X152600000Y-67750000D01*
X152600000Y-67750000D02*
X150000000Y-65150000D01*
X150000000Y-65150000D02*
X142750000Y-65150000D01*
X142000000Y-64400000D02*
X142000000Y-62500000D01*
X146200000Y-98000000D02*
X146200000Y-85250000D01*
D24*
X116650000Y-91500000D02*
X117550000Y-90600000D01*
X117550000Y-90600000D02*
X117550000Y-89650000D01*
X105250000Y-91500000D02*
X116650000Y-91500000D01*
X101800000Y-94950000D02*
X105250000Y-91500000D01*
X103450000Y-98500000D02*
X109750000Y-98500000D01*
X109750000Y-98500000D02*
X111650000Y-100400000D01*
X117650000Y-93350000D02*
X117650000Y-94400000D01*
X117650000Y-94400000D02*
X111650000Y-100400000D01*
G36*
X109385396Y-61143315D02*
X109296857Y-61201657D01*
X109228078Y-61282357D01*
X109184504Y-61379022D01*
X109169586Y-61484000D01*
X109169586Y-63516000D01*
X109174348Y-63575717D01*
X109205715Y-63677004D01*
X109264057Y-63765543D01*
X109344757Y-63834322D01*
X109441422Y-63877896D01*
X109546400Y-63892814D01*
X109910000Y-63892814D01*
X109910000Y-77310000D01*
X109914505Y-77355944D01*
X109918532Y-77401976D01*
X109919265Y-77404501D01*
X109919522Y-77407117D01*
X109932869Y-77451323D01*
X109945757Y-77495684D01*
X109946967Y-77498019D01*
X109947727Y-77500535D01*
X109969394Y-77541285D01*
X109990664Y-77582320D01*
X109992306Y-77584376D01*
X109993539Y-77586696D01*
X110022728Y-77622485D01*
X110051545Y-77658582D01*
X110055152Y-77662240D01*
X110055215Y-77662317D01*
X110055286Y-77662376D01*
X110056447Y-77663553D01*
X114146446Y-81753553D01*
X114182138Y-81782871D01*
X114217516Y-81812557D01*
X114219820Y-81813823D01*
X114221851Y-81815492D01*
X114262542Y-81837310D01*
X114303029Y-81859568D01*
X114305536Y-81860363D01*
X114307852Y-81861605D01*
X114352015Y-81875107D01*
X114396044Y-81889074D01*
X114398655Y-81889367D01*
X114401171Y-81890136D01*
X114447103Y-81894801D01*
X114493019Y-81899951D01*
X114498168Y-81899987D01*
X114498255Y-81899996D01*
X114498336Y-81899988D01*
X114500000Y-81900000D01*
X127350000Y-81900000D01*
X127395944Y-81895495D01*
X127441976Y-81891468D01*
X127444501Y-81890735D01*
X127447117Y-81890478D01*
X127491323Y-81877131D01*
X127535684Y-81864243D01*
X127538019Y-81863033D01*
X127540535Y-81862273D01*
X127581285Y-81840606D01*
X127622320Y-81819336D01*
X127624376Y-81817694D01*
X127626696Y-81816461D01*
X127662485Y-81787272D01*
X127698582Y-81758455D01*
X127702240Y-81754848D01*
X127702317Y-81754785D01*
X127702376Y-81754714D01*
X127703553Y-81753553D01*
X140307106Y-69150000D01*
X146492894Y-69150000D01*
X148450000Y-71107107D01*
X148450000Y-78342894D01*
X140962499Y-85830395D01*
X140872683Y-85847528D01*
X140759039Y-85893443D01*
X140656478Y-85960557D01*
X140625000Y-85991383D01*
X140625000Y-85538172D01*
X147706586Y-78456587D01*
X147740313Y-78415527D01*
X147774440Y-78374856D01*
X147775896Y-78372207D01*
X147777816Y-78369870D01*
X147802896Y-78323096D01*
X147828503Y-78276517D01*
X147829419Y-78273630D01*
X147830845Y-78270970D01*
X147846363Y-78220214D01*
X147862435Y-78169549D01*
X147862772Y-78166546D01*
X147863656Y-78163654D01*
X147869021Y-78110831D01*
X147874944Y-78058028D01*
X147874985Y-78052113D01*
X147874996Y-78052007D01*
X147874987Y-78051908D01*
X147875000Y-78050000D01*
X147875000Y-71550000D01*
X147869821Y-71497178D01*
X147865188Y-71444228D01*
X147864344Y-71441323D01*
X147864049Y-71438315D01*
X147848710Y-71387510D01*
X147833880Y-71336464D01*
X147832487Y-71333777D01*
X147831614Y-71330885D01*
X147806690Y-71284010D01*
X147782236Y-71236833D01*
X147780350Y-71234470D01*
X147778930Y-71231800D01*
X147745367Y-71190647D01*
X147712224Y-71149130D01*
X147708073Y-71144921D01*
X147708003Y-71144835D01*
X147707924Y-71144769D01*
X147706587Y-71143414D01*
X146106586Y-69543414D01*
X146065552Y-69509708D01*
X146024856Y-69475560D01*
X146022207Y-69474104D01*
X146019870Y-69472184D01*
X145973061Y-69447085D01*
X145926517Y-69421497D01*
X145923634Y-69420583D01*
X145920970Y-69419154D01*
X145870180Y-69403626D01*
X145819549Y-69387565D01*
X145816544Y-69387228D01*
X145813653Y-69386344D01*
X145760791Y-69380974D01*
X145708028Y-69375056D01*
X145702123Y-69375015D01*
X145702007Y-69375003D01*
X145701899Y-69375013D01*
X145700000Y-69375000D01*
X141250000Y-69375000D01*
X141197178Y-69380179D01*
X141144228Y-69384812D01*
X141141323Y-69385656D01*
X141138315Y-69385951D01*
X141087510Y-69401290D01*
X141036464Y-69416120D01*
X141033777Y-69417513D01*
X141030885Y-69418386D01*
X140984010Y-69443310D01*
X140936833Y-69467764D01*
X140934470Y-69469650D01*
X140931800Y-69471070D01*
X140890647Y-69504633D01*
X140849130Y-69537776D01*
X140844921Y-69541927D01*
X140844835Y-69541997D01*
X140844769Y-69542076D01*
X140843414Y-69543413D01*
X125393484Y-84993344D01*
X125393413Y-84993414D01*
X121943413Y-88443415D01*
X121909707Y-88484449D01*
X121875559Y-88525145D01*
X121874103Y-88527794D01*
X121872183Y-88530131D01*
X121847084Y-88576940D01*
X121821496Y-88623484D01*
X121820582Y-88626367D01*
X121819153Y-88629031D01*
X121803625Y-88679821D01*
X121787564Y-88730452D01*
X121787227Y-88733457D01*
X121786343Y-88736348D01*
X121780973Y-88789210D01*
X121775055Y-88841973D01*
X121775014Y-88847878D01*
X121775002Y-88847994D01*
X121775012Y-88848102D01*
X121774999Y-88850001D01*
X121774999Y-94544374D01*
X121730127Y-94552934D01*
X121589208Y-94609869D01*
X121462032Y-94693091D01*
X121353443Y-94799429D01*
X121267576Y-94924834D01*
X121207703Y-95064529D01*
X121176103Y-95213194D01*
X121173981Y-95365164D01*
X121201417Y-95514653D01*
X121257367Y-95655965D01*
X121339699Y-95783719D01*
X121445277Y-95893048D01*
X121570079Y-95979788D01*
X121709353Y-96040635D01*
X121857793Y-96073272D01*
X122009745Y-96076455D01*
X122159421Y-96050063D01*
X122301121Y-95995101D01*
X122429446Y-95913663D01*
X122539510Y-95808851D01*
X122627119Y-95684657D01*
X122688937Y-95545812D01*
X122722609Y-95397603D01*
X122723417Y-95339755D01*
X122756585Y-95306587D01*
X122790291Y-95265553D01*
X122824439Y-95224857D01*
X122825895Y-95222208D01*
X122827815Y-95219871D01*
X122852914Y-95173062D01*
X122878502Y-95126518D01*
X122879416Y-95123635D01*
X122880845Y-95120971D01*
X122896373Y-95070181D01*
X122912434Y-95019550D01*
X122912771Y-95016545D01*
X122913655Y-95013654D01*
X122919025Y-94960792D01*
X122924943Y-94908029D01*
X122924984Y-94902124D01*
X122924996Y-94902008D01*
X122924986Y-94901900D01*
X122924999Y-94900001D01*
X122924999Y-94753001D01*
X134373390Y-94753001D01*
X134416757Y-94989289D01*
X134505193Y-95212654D01*
X134635331Y-95414588D01*
X134802212Y-95587398D01*
X134999480Y-95724503D01*
X135219623Y-95820681D01*
X135454253Y-95872268D01*
X135694436Y-95877299D01*
X135931021Y-95835583D01*
X136154997Y-95748708D01*
X136357834Y-95619984D01*
X136531806Y-95454313D01*
X136670285Y-95258006D01*
X136767997Y-95038541D01*
X136821221Y-94804276D01*
X136821936Y-94753001D01*
X136823390Y-94753001D01*
X136866757Y-94989289D01*
X136955193Y-95212654D01*
X137085331Y-95414588D01*
X137252212Y-95587398D01*
X137449480Y-95724503D01*
X137669623Y-95820681D01*
X137904253Y-95872268D01*
X138144436Y-95877299D01*
X138381021Y-95835583D01*
X138604997Y-95748708D01*
X138807834Y-95619984D01*
X138981806Y-95454313D01*
X139120285Y-95258006D01*
X139217997Y-95038541D01*
X139271221Y-94804276D01*
X139271936Y-94753001D01*
X139273390Y-94753001D01*
X139316757Y-94989289D01*
X139405193Y-95212654D01*
X139535331Y-95414588D01*
X139702212Y-95587398D01*
X139899480Y-95724503D01*
X140119623Y-95820681D01*
X140354253Y-95872268D01*
X140594436Y-95877299D01*
X140831021Y-95835583D01*
X141054997Y-95748708D01*
X141257834Y-95619984D01*
X141431806Y-95454313D01*
X141570285Y-95258006D01*
X141667997Y-95038541D01*
X141721221Y-94804276D01*
X141725052Y-94529883D01*
X141678390Y-94294223D01*
X141586844Y-94072115D01*
X141453900Y-93872018D01*
X141284622Y-93701554D01*
X141085459Y-93567217D01*
X140863995Y-93474122D01*
X140628667Y-93425816D01*
X140388438Y-93424139D01*
X140152458Y-93469155D01*
X139929716Y-93559148D01*
X139728696Y-93690692D01*
X139557055Y-93858775D01*
X139421330Y-94056996D01*
X139326692Y-94277805D01*
X139276744Y-94512790D01*
X139273390Y-94753001D01*
X139271936Y-94753001D01*
X139275052Y-94529883D01*
X139228390Y-94294223D01*
X139136844Y-94072115D01*
X139003900Y-93872018D01*
X138834622Y-93701554D01*
X138635459Y-93567217D01*
X138413995Y-93474122D01*
X138178667Y-93425816D01*
X137938438Y-93424139D01*
X137702458Y-93469155D01*
X137479716Y-93559148D01*
X137278696Y-93690692D01*
X137107055Y-93858775D01*
X136971330Y-94056996D01*
X136876692Y-94277805D01*
X136826744Y-94512790D01*
X136823390Y-94753001D01*
X136821936Y-94753001D01*
X136825052Y-94529883D01*
X136778390Y-94294223D01*
X136686844Y-94072115D01*
X136553900Y-93872018D01*
X136384622Y-93701554D01*
X136185459Y-93567217D01*
X135963995Y-93474122D01*
X135728667Y-93425816D01*
X135488438Y-93424139D01*
X135252458Y-93469155D01*
X135029716Y-93559148D01*
X134828696Y-93690692D01*
X134657055Y-93858775D01*
X134521330Y-94056996D01*
X134426692Y-94277805D01*
X134376744Y-94512790D01*
X134373390Y-94753001D01*
X122924999Y-94753001D01*
X122924999Y-89088173D01*
X126206586Y-85806587D01*
X126206591Y-85806581D01*
X133511000Y-78502172D01*
X144143894Y-78502172D01*
X144249758Y-78700217D01*
X144490521Y-78824288D01*
X144750862Y-78899005D01*
X145020778Y-78921496D01*
X145289895Y-78890898D01*
X145547873Y-78808385D01*
X145750242Y-78700217D01*
X145856106Y-78502172D01*
X145000000Y-77646066D01*
X144143894Y-78502172D01*
X133511000Y-78502172D01*
X134452394Y-77560778D01*
X143618504Y-77560778D01*
X143649102Y-77829895D01*
X143731615Y-78087873D01*
X143839783Y-78290242D01*
X144037828Y-78396106D01*
X144893934Y-77540000D01*
X145106066Y-77540000D01*
X145962172Y-78396106D01*
X146160217Y-78290242D01*
X146284288Y-78049479D01*
X146359005Y-77789138D01*
X146381496Y-77519222D01*
X146350898Y-77250105D01*
X146268385Y-76992127D01*
X146160217Y-76789758D01*
X145962172Y-76683894D01*
X145106066Y-77540000D01*
X144893934Y-77540000D01*
X144037828Y-76683894D01*
X143839783Y-76789758D01*
X143715712Y-77030521D01*
X143640995Y-77290862D01*
X143618504Y-77560778D01*
X134452394Y-77560778D01*
X136897558Y-75115614D01*
X143623193Y-75115614D01*
X143671870Y-75380835D01*
X143771135Y-75631551D01*
X143917208Y-75858211D01*
X144104523Y-76052182D01*
X144325947Y-76206075D01*
X144465888Y-76267214D01*
X144452127Y-76271615D01*
X144249758Y-76379783D01*
X144143894Y-76577828D01*
X145000000Y-77433934D01*
X145856106Y-76577828D01*
X145750242Y-76379783D01*
X145533335Y-76268006D01*
X145622956Y-76233244D01*
X145850631Y-76088757D01*
X146045904Y-75902801D01*
X146201340Y-75682456D01*
X146311017Y-75436117D01*
X146370758Y-75173167D01*
X146375059Y-74865174D01*
X146322683Y-74600658D01*
X146219927Y-74351353D01*
X146070704Y-74126755D01*
X145880699Y-73935418D01*
X145657148Y-73784631D01*
X145533943Y-73732840D01*
X145547873Y-73728385D01*
X145750242Y-73620217D01*
X145856106Y-73422172D01*
X145000000Y-72566066D01*
X144143894Y-73422172D01*
X144249758Y-73620217D01*
X144467141Y-73732240D01*
X144359886Y-73775574D01*
X144134251Y-73923225D01*
X143941592Y-74111891D01*
X143789248Y-74334384D01*
X143683021Y-74582230D01*
X143626958Y-74845989D01*
X143623193Y-75115614D01*
X136897558Y-75115614D01*
X139532394Y-72480778D01*
X143618504Y-72480778D01*
X143649102Y-72749895D01*
X143731615Y-73007873D01*
X143839783Y-73210242D01*
X144037828Y-73316106D01*
X144893934Y-72460000D01*
X145106066Y-72460000D01*
X145962172Y-73316106D01*
X146160217Y-73210242D01*
X146284288Y-72969479D01*
X146359005Y-72709138D01*
X146381496Y-72439222D01*
X146350898Y-72170105D01*
X146268385Y-71912127D01*
X146160217Y-71709758D01*
X145962172Y-71603894D01*
X145106066Y-72460000D01*
X144893934Y-72460000D01*
X144037828Y-71603894D01*
X143839783Y-71709758D01*
X143715712Y-71950521D01*
X143640995Y-72210862D01*
X143618504Y-72480778D01*
X139532394Y-72480778D01*
X140515344Y-71497828D01*
X144143894Y-71497828D01*
X145000000Y-72353934D01*
X145856106Y-71497828D01*
X145750242Y-71299783D01*
X145509479Y-71175712D01*
X145249138Y-71100995D01*
X144979222Y-71078504D01*
X144710105Y-71109102D01*
X144452127Y-71191615D01*
X144249758Y-71299783D01*
X144143894Y-71497828D01*
X140515344Y-71497828D01*
X141488173Y-70525000D01*
X145461828Y-70525000D01*
X146725000Y-71788173D01*
X146725000Y-77811827D01*
X139643414Y-84893414D01*
X139609708Y-84934448D01*
X139575560Y-84975144D01*
X139574104Y-84977793D01*
X139572184Y-84980130D01*
X139547085Y-85026939D01*
X139521497Y-85073483D01*
X139520583Y-85076366D01*
X139519154Y-85079030D01*
X139503626Y-85129820D01*
X139487565Y-85180451D01*
X139487228Y-85183456D01*
X139486344Y-85186347D01*
X139480974Y-85239209D01*
X139475056Y-85291972D01*
X139475015Y-85297877D01*
X139475003Y-85297993D01*
X139475013Y-85298101D01*
X139475000Y-85300000D01*
X139475000Y-87828319D01*
X139453443Y-87849429D01*
X139367576Y-87974834D01*
X139307703Y-88114529D01*
X139276103Y-88263194D01*
X139273981Y-88415164D01*
X139301417Y-88564653D01*
X139357367Y-88705965D01*
X139439699Y-88833719D01*
X139545277Y-88943048D01*
X139670079Y-89029788D01*
X139809353Y-89090635D01*
X139957793Y-89123272D01*
X140109745Y-89126455D01*
X140259421Y-89100063D01*
X140401121Y-89045101D01*
X140529446Y-88963663D01*
X140639510Y-88858851D01*
X140727119Y-88734657D01*
X140788937Y-88595812D01*
X140822609Y-88447603D01*
X140825033Y-88274007D01*
X140795513Y-88124916D01*
X140737595Y-87984399D01*
X140653488Y-87857807D01*
X140625000Y-87829119D01*
X140625000Y-86909661D01*
X140642965Y-86928264D01*
X140743612Y-86998216D01*
X140855930Y-87047286D01*
X140975639Y-87073606D01*
X141098181Y-87076173D01*
X141218888Y-87054889D01*
X141333162Y-87010565D01*
X141436650Y-86944890D01*
X141525411Y-86860364D01*
X141596064Y-86760207D01*
X141645917Y-86648235D01*
X141671507Y-86535599D01*
X149303553Y-78903553D01*
X149332832Y-78867908D01*
X149362557Y-78832484D01*
X149363825Y-78830177D01*
X149365492Y-78828148D01*
X149387299Y-78787479D01*
X149409568Y-78746971D01*
X149410363Y-78744464D01*
X149411605Y-78742148D01*
X149425107Y-78697985D01*
X149439074Y-78653956D01*
X149439367Y-78651345D01*
X149440136Y-78648829D01*
X149444806Y-78602853D01*
X149449951Y-78556981D01*
X149449987Y-78551843D01*
X149449997Y-78551745D01*
X149449988Y-78551654D01*
X149450000Y-78550000D01*
X149450000Y-70900000D01*
X149445499Y-70854098D01*
X149441469Y-70808025D01*
X149440734Y-70805496D01*
X149440478Y-70802883D01*
X149427154Y-70758752D01*
X149414244Y-70714316D01*
X149413031Y-70711976D01*
X149412273Y-70709465D01*
X149390614Y-70668730D01*
X149369336Y-70627681D01*
X149367696Y-70625626D01*
X149366461Y-70623304D01*
X149337254Y-70587494D01*
X149308455Y-70551418D01*
X149304844Y-70547756D01*
X149304785Y-70547683D01*
X149304718Y-70547627D01*
X149303554Y-70546447D01*
X147053553Y-68296447D01*
X147017908Y-68267168D01*
X146982484Y-68237443D01*
X146980177Y-68236175D01*
X146978148Y-68234508D01*
X146937479Y-68212701D01*
X146896971Y-68190432D01*
X146894464Y-68189637D01*
X146892148Y-68188395D01*
X146847985Y-68174893D01*
X146803956Y-68160926D01*
X146801345Y-68160633D01*
X146798829Y-68159864D01*
X146752853Y-68155194D01*
X146706981Y-68150049D01*
X146701843Y-68150013D01*
X146701745Y-68150003D01*
X146701654Y-68150012D01*
X146700000Y-68150000D01*
X140100000Y-68150000D01*
X140054052Y-68154505D01*
X140008025Y-68158532D01*
X140005501Y-68159265D01*
X140002883Y-68159522D01*
X139958665Y-68172873D01*
X139914316Y-68185757D01*
X139911981Y-68186967D01*
X139909465Y-68187727D01*
X139868694Y-68209405D01*
X139827681Y-68230664D01*
X139825626Y-68232304D01*
X139823304Y-68233539D01*
X139787494Y-68262746D01*
X139751418Y-68291545D01*
X139747760Y-68295152D01*
X139747683Y-68295215D01*
X139747624Y-68295286D01*
X139746447Y-68296447D01*
X127142894Y-80900000D01*
X114707107Y-80900000D01*
X112309279Y-78502172D01*
X114143894Y-78502172D01*
X114249758Y-78700217D01*
X114490521Y-78824288D01*
X114750862Y-78899005D01*
X115020778Y-78921496D01*
X115289895Y-78890898D01*
X115547873Y-78808385D01*
X115750242Y-78700217D01*
X115856106Y-78502172D01*
X115000000Y-77646066D01*
X114143894Y-78502172D01*
X112309279Y-78502172D01*
X111367885Y-77560778D01*
X113618504Y-77560778D01*
X113649102Y-77829895D01*
X113731615Y-78087873D01*
X113839783Y-78290242D01*
X114037828Y-78396106D01*
X114893934Y-77540000D01*
X115106066Y-77540000D01*
X115962172Y-78396106D01*
X116160217Y-78290242D01*
X116284288Y-78049479D01*
X116359005Y-77789138D01*
X116381496Y-77519222D01*
X116350898Y-77250105D01*
X116268385Y-76992127D01*
X116160217Y-76789758D01*
X115962172Y-76683894D01*
X115106066Y-77540000D01*
X114893934Y-77540000D01*
X114037828Y-76683894D01*
X113839783Y-76789758D01*
X113715712Y-77030521D01*
X113640995Y-77290862D01*
X113618504Y-77560778D01*
X111367885Y-77560778D01*
X110910000Y-77102894D01*
X110910000Y-75115614D01*
X113623193Y-75115614D01*
X113671870Y-75380835D01*
X113771135Y-75631551D01*
X113917208Y-75858211D01*
X114104523Y-76052182D01*
X114325947Y-76206075D01*
X114465888Y-76267214D01*
X114452127Y-76271615D01*
X114249758Y-76379783D01*
X114143894Y-76577828D01*
X115000000Y-77433934D01*
X115856106Y-76577828D01*
X115750242Y-76379783D01*
X115533335Y-76268006D01*
X115622956Y-76233244D01*
X115850631Y-76088757D01*
X116045904Y-75902801D01*
X116201340Y-75682456D01*
X116311017Y-75436117D01*
X116370758Y-75173167D01*
X116375059Y-74865174D01*
X116322683Y-74600658D01*
X116219927Y-74351353D01*
X116070704Y-74126755D01*
X115880699Y-73935418D01*
X115657148Y-73784631D01*
X115533943Y-73732840D01*
X115547873Y-73728385D01*
X115750242Y-73620217D01*
X115856106Y-73422172D01*
X115000000Y-72566066D01*
X114143894Y-73422172D01*
X114249758Y-73620217D01*
X114467141Y-73732240D01*
X114359886Y-73775574D01*
X114134251Y-73923225D01*
X113941592Y-74111891D01*
X113789248Y-74334384D01*
X113683021Y-74582230D01*
X113626958Y-74845989D01*
X113623193Y-75115614D01*
X110910000Y-75115614D01*
X110910000Y-72480778D01*
X113618504Y-72480778D01*
X113649102Y-72749895D01*
X113731615Y-73007873D01*
X113839783Y-73210242D01*
X114037828Y-73316106D01*
X114893934Y-72460000D01*
X115106066Y-72460000D01*
X115962172Y-73316106D01*
X116160217Y-73210242D01*
X116284288Y-72969479D01*
X116359005Y-72709138D01*
X116381496Y-72439222D01*
X116350898Y-72170105D01*
X116268385Y-71912127D01*
X116160217Y-71709758D01*
X115962172Y-71603894D01*
X115106066Y-72460000D01*
X114893934Y-72460000D01*
X114037828Y-71603894D01*
X113839783Y-71709758D01*
X113715712Y-71950521D01*
X113640995Y-72210862D01*
X113618504Y-72480778D01*
X110910000Y-72480778D01*
X110910000Y-71497828D01*
X114143894Y-71497828D01*
X115000000Y-72353934D01*
X115856106Y-71497828D01*
X115750242Y-71299783D01*
X115509479Y-71175712D01*
X115249138Y-71100995D01*
X114979222Y-71078504D01*
X114710105Y-71109102D01*
X114452127Y-71191615D01*
X114249758Y-71299783D01*
X114143894Y-71497828D01*
X110910000Y-71497828D01*
X110910000Y-63892814D01*
X111273600Y-63892814D01*
X111333317Y-63888052D01*
X111434604Y-63856685D01*
X111523143Y-63798343D01*
X111591922Y-63717643D01*
X111635496Y-63620978D01*
X111650414Y-63516000D01*
X111650414Y-62952929D01*
X111721135Y-63131551D01*
X111867208Y-63358211D01*
X112054523Y-63552182D01*
X112275947Y-63706075D01*
X112523046Y-63814030D01*
X112786407Y-63871934D01*
X113055999Y-63877581D01*
X113321554Y-63830756D01*
X113572956Y-63733244D01*
X113800631Y-63588757D01*
X113995904Y-63402801D01*
X114151340Y-63182456D01*
X114220123Y-63027966D01*
X114261135Y-63131551D01*
X114407208Y-63358211D01*
X114594523Y-63552182D01*
X114815947Y-63706075D01*
X115063046Y-63814030D01*
X115326407Y-63871934D01*
X115595999Y-63877581D01*
X115861554Y-63830756D01*
X116112956Y-63733244D01*
X116340631Y-63588757D01*
X116473558Y-63462172D01*
X117173894Y-63462172D01*
X117279758Y-63660217D01*
X117520521Y-63784288D01*
X117780862Y-63859005D01*
X118050778Y-63881496D01*
X118319895Y-63850898D01*
X118577873Y-63768385D01*
X118780242Y-63660217D01*
X118886106Y-63462172D01*
X118030000Y-62606066D01*
X117173894Y-63462172D01*
X116473558Y-63462172D01*
X116535904Y-63402801D01*
X116691340Y-63182456D01*
X116757286Y-63034338D01*
X116761615Y-63047873D01*
X116869783Y-63250242D01*
X117067828Y-63356106D01*
X117923934Y-62500000D01*
X118136066Y-62500000D01*
X118992172Y-63356106D01*
X119190217Y-63250242D01*
X119314288Y-63009479D01*
X119389005Y-62749138D01*
X119391537Y-62718750D01*
X125725000Y-62718750D01*
X125725000Y-65126935D01*
X125739411Y-65199384D01*
X125767679Y-65267629D01*
X125808719Y-65329049D01*
X125860952Y-65381282D01*
X125922371Y-65422321D01*
X125990617Y-65450589D01*
X126063066Y-65465000D01*
X126831250Y-65465000D01*
X126925000Y-65371250D01*
X126925000Y-62625000D01*
X127075000Y-62625000D01*
X127075000Y-65371250D01*
X127168750Y-65465000D01*
X127936934Y-65465000D01*
X128009383Y-65450589D01*
X128077629Y-65422321D01*
X128139048Y-65381282D01*
X128191281Y-65329049D01*
X128232321Y-65267629D01*
X128260589Y-65199384D01*
X128275000Y-65126935D01*
X128275000Y-62718750D01*
X131725000Y-62718750D01*
X131725000Y-65126935D01*
X131739411Y-65199384D01*
X131767679Y-65267629D01*
X131808719Y-65329049D01*
X131860952Y-65381282D01*
X131922371Y-65422321D01*
X131990617Y-65450589D01*
X132063066Y-65465000D01*
X132831250Y-65465000D01*
X132925000Y-65371250D01*
X132925000Y-62625000D01*
X133075000Y-62625000D01*
X133075000Y-65371250D01*
X133168750Y-65465000D01*
X133936934Y-65465000D01*
X134009383Y-65450589D01*
X134077629Y-65422321D01*
X134139048Y-65381282D01*
X134191281Y-65329049D01*
X134232321Y-65267629D01*
X134260589Y-65199384D01*
X134275000Y-65126935D01*
X134275000Y-62718750D01*
X134181250Y-62625000D01*
X133075000Y-62625000D01*
X132925000Y-62625000D01*
X131818750Y-62625000D01*
X131725000Y-62718750D01*
X128275000Y-62718750D01*
X128181250Y-62625000D01*
X127075000Y-62625000D01*
X126925000Y-62625000D01*
X125818750Y-62625000D01*
X125725000Y-62718750D01*
X119391537Y-62718750D01*
X119411496Y-62479222D01*
X119380898Y-62210105D01*
X119298385Y-61952127D01*
X119190217Y-61749758D01*
X118992172Y-61643894D01*
X118136066Y-62500000D01*
X117923934Y-62500000D01*
X117067828Y-61643894D01*
X116869783Y-61749758D01*
X116757700Y-61967258D01*
X116709927Y-61851353D01*
X116560704Y-61626755D01*
X116370699Y-61435418D01*
X116147148Y-61284631D01*
X115898566Y-61180137D01*
X115634422Y-61125916D01*
X115503251Y-61125000D01*
X117952088Y-61125000D01*
X117740105Y-61149102D01*
X117482127Y-61231615D01*
X117279758Y-61339783D01*
X117173894Y-61537828D01*
X118030000Y-62393934D01*
X118886106Y-61537828D01*
X118780242Y-61339783D01*
X118539479Y-61215712D01*
X118279138Y-61140995D01*
X118087181Y-61125000D01*
X125725000Y-61125000D01*
X125725000Y-62381250D01*
X125818750Y-62475000D01*
X126925000Y-62475000D01*
X126925000Y-62455000D01*
X127075000Y-62455000D01*
X127075000Y-62475000D01*
X128181250Y-62475000D01*
X128275000Y-62381250D01*
X128275000Y-61125000D01*
X131725000Y-61125000D01*
X131725000Y-62381250D01*
X131818750Y-62475000D01*
X132925000Y-62475000D01*
X132925000Y-62455000D01*
X133075000Y-62455000D01*
X133075000Y-62475000D01*
X134181250Y-62475000D01*
X134275000Y-62381250D01*
X134275000Y-61125000D01*
X140977252Y-61125000D01*
X140940283Y-61127948D01*
X140838996Y-61159315D01*
X140750457Y-61217657D01*
X140681678Y-61298357D01*
X140638104Y-61395022D01*
X140623186Y-61500000D01*
X140623186Y-63500000D01*
X140627948Y-63559717D01*
X140659315Y-63661004D01*
X140717657Y-63749543D01*
X140798357Y-63818322D01*
X140895022Y-63861896D01*
X141000000Y-63876814D01*
X141425000Y-63876814D01*
X141425000Y-64400000D01*
X141430184Y-64452867D01*
X141434812Y-64505772D01*
X141435656Y-64508677D01*
X141435951Y-64511685D01*
X141451290Y-64562490D01*
X141466120Y-64613536D01*
X141467513Y-64616223D01*
X141468386Y-64619115D01*
X141493299Y-64665969D01*
X141517764Y-64713168D01*
X141519652Y-64715533D01*
X141521070Y-64718200D01*
X141554640Y-64759361D01*
X141587777Y-64800870D01*
X141591922Y-64805073D01*
X141591997Y-64805165D01*
X141592082Y-64805235D01*
X141593414Y-64806586D01*
X142343413Y-65556586D01*
X142384473Y-65590313D01*
X142425144Y-65624440D01*
X142427793Y-65625896D01*
X142430130Y-65627816D01*
X142476904Y-65652896D01*
X142523483Y-65678503D01*
X142526370Y-65679419D01*
X142529030Y-65680845D01*
X142579774Y-65696359D01*
X142630451Y-65712435D01*
X142633456Y-65712772D01*
X142636347Y-65713656D01*
X142689164Y-65719021D01*
X142741972Y-65724944D01*
X142747887Y-65724985D01*
X142747993Y-65724996D01*
X142748092Y-65724987D01*
X142750000Y-65725000D01*
X149761828Y-65725000D01*
X152025000Y-67988173D01*
X152025000Y-78611827D01*
X146162144Y-84474683D01*
X146129420Y-84474455D01*
X145980127Y-84502934D01*
X145839208Y-84559869D01*
X145712032Y-84643091D01*
X145603443Y-84749429D01*
X145517576Y-84874834D01*
X145457703Y-85014529D01*
X145426103Y-85163194D01*
X145423981Y-85315164D01*
X145451417Y-85464653D01*
X145507367Y-85605965D01*
X145589699Y-85733719D01*
X145625000Y-85770274D01*
X145625000Y-95219486D01*
X145591264Y-95229415D01*
X145310210Y-95376347D01*
X145063047Y-95575071D01*
X144859191Y-95818018D01*
X144706405Y-96095933D01*
X144610510Y-96398233D01*
X144575158Y-96713400D01*
X144575000Y-96736089D01*
X144575000Y-99263911D01*
X144605948Y-99579542D01*
X144697613Y-99883150D01*
X144846503Y-100163172D01*
X145046948Y-100408942D01*
X145291312Y-100611097D01*
X145570287Y-100761939D01*
X145873248Y-100855721D01*
X146188655Y-100888871D01*
X146504495Y-100860128D01*
X146808736Y-100770585D01*
X147089790Y-100623653D01*
X147336953Y-100424929D01*
X147540809Y-100181982D01*
X147693595Y-99904067D01*
X147789490Y-99601767D01*
X147824842Y-99286600D01*
X147825000Y-99263911D01*
X147825000Y-98075000D01*
X150675000Y-98075000D01*
X150675000Y-98825000D01*
X150720856Y-99140581D01*
X150827397Y-99441152D01*
X150990530Y-99715162D01*
X151203985Y-99952082D01*
X151459559Y-100142806D01*
X151747431Y-100280006D01*
X151971988Y-100341550D01*
X152225000Y-100279412D01*
X152225000Y-98075000D01*
X152375000Y-98075000D01*
X152375000Y-100279412D01*
X152628012Y-100341550D01*
X152852569Y-100280006D01*
X153140441Y-100142806D01*
X153396015Y-99952082D01*
X153609470Y-99715162D01*
X153772603Y-99441152D01*
X153879144Y-99140581D01*
X153925000Y-98825000D01*
X153925000Y-98075000D01*
X152375000Y-98075000D01*
X152225000Y-98075000D01*
X150675000Y-98075000D01*
X147825000Y-98075000D01*
X147825000Y-97175000D01*
X150675000Y-97175000D01*
X150675000Y-97925000D01*
X152225000Y-97925000D01*
X152225000Y-95720588D01*
X152375000Y-95720588D01*
X152375000Y-97925000D01*
X153925000Y-97925000D01*
X153925000Y-97175000D01*
X153879144Y-96859419D01*
X153772603Y-96558848D01*
X153609470Y-96284838D01*
X153396015Y-96047918D01*
X153140441Y-95857194D01*
X152852569Y-95719994D01*
X152628012Y-95658450D01*
X152375000Y-95720588D01*
X152225000Y-95720588D01*
X151971988Y-95658450D01*
X151747431Y-95719994D01*
X151459559Y-95857194D01*
X151203985Y-96047918D01*
X150990530Y-96284838D01*
X150827397Y-96558848D01*
X150720856Y-96859419D01*
X150675000Y-97175000D01*
X147825000Y-97175000D01*
X147825000Y-96736089D01*
X147794052Y-96420458D01*
X147702387Y-96116850D01*
X147553497Y-95836828D01*
X147353052Y-95591058D01*
X147108688Y-95388903D01*
X146829713Y-95238061D01*
X146775000Y-95221125D01*
X146775000Y-93788398D01*
X146819994Y-93952569D01*
X146957194Y-94240441D01*
X147147918Y-94496015D01*
X147384838Y-94709470D01*
X147658848Y-94872603D01*
X147959419Y-94979144D01*
X148275000Y-95025000D01*
X149025000Y-95025000D01*
X149025000Y-93475000D01*
X149175000Y-93475000D01*
X149175000Y-95025000D01*
X149925000Y-95025000D01*
X150240581Y-94979144D01*
X150541152Y-94872603D01*
X150815162Y-94709470D01*
X151052082Y-94496015D01*
X151242806Y-94240441D01*
X151380006Y-93952569D01*
X151441550Y-93728012D01*
X151379412Y-93475000D01*
X149175000Y-93475000D01*
X149025000Y-93475000D01*
X149005000Y-93475000D01*
X149005000Y-93325000D01*
X149025000Y-93325000D01*
X149025000Y-91775000D01*
X149175000Y-91775000D01*
X149175000Y-93325000D01*
X151379412Y-93325000D01*
X151441550Y-93071988D01*
X151380006Y-92847431D01*
X151242806Y-92559559D01*
X151052082Y-92303985D01*
X150815162Y-92090530D01*
X150541152Y-91927397D01*
X150240581Y-91820856D01*
X149925000Y-91775000D01*
X149175000Y-91775000D01*
X149025000Y-91775000D01*
X148275000Y-91775000D01*
X147959419Y-91820856D01*
X147658848Y-91927397D01*
X147384838Y-92090530D01*
X147147918Y-92303985D01*
X146957194Y-92559559D01*
X146819994Y-92847431D01*
X146775000Y-93011602D01*
X146775000Y-89649430D01*
X155422616Y-89649430D01*
X155422616Y-91150570D01*
X155427378Y-91210287D01*
X155458745Y-91311574D01*
X155517087Y-91400113D01*
X155597787Y-91468892D01*
X155694452Y-91512466D01*
X155799430Y-91527384D01*
X157300570Y-91527384D01*
X157360287Y-91522622D01*
X157461574Y-91491255D01*
X157550113Y-91432913D01*
X157618892Y-91352213D01*
X157662466Y-91255548D01*
X157677384Y-91150570D01*
X157677384Y-89649430D01*
X157672622Y-89589713D01*
X157641255Y-89488426D01*
X157582913Y-89399887D01*
X157502213Y-89331108D01*
X157405548Y-89287534D01*
X157300570Y-89272616D01*
X155799430Y-89272616D01*
X155739713Y-89277378D01*
X155638426Y-89308745D01*
X155549887Y-89367087D01*
X155481108Y-89447787D01*
X155437534Y-89544452D01*
X155422616Y-89649430D01*
X146775000Y-89649430D01*
X146775000Y-85772669D01*
X146789510Y-85758851D01*
X146877119Y-85634657D01*
X146938937Y-85495812D01*
X146972609Y-85347603D01*
X146973417Y-85289755D01*
X153006587Y-79256586D01*
X153040317Y-79215522D01*
X153074440Y-79174856D01*
X153075896Y-79172207D01*
X153077816Y-79169870D01*
X153102915Y-79123061D01*
X153128503Y-79076517D01*
X153129417Y-79073634D01*
X153130846Y-79070970D01*
X153146374Y-79020180D01*
X153162435Y-78969549D01*
X153162772Y-78966544D01*
X153163656Y-78963653D01*
X153169026Y-78910791D01*
X153174944Y-78858028D01*
X153174985Y-78852123D01*
X153174997Y-78852007D01*
X153174987Y-78851899D01*
X153175000Y-78850000D01*
X153175000Y-73468750D01*
X154924430Y-73468750D01*
X154924430Y-74087505D01*
X154938841Y-74159954D01*
X154967109Y-74228199D01*
X155008149Y-74289619D01*
X155060382Y-74341852D01*
X155121801Y-74382891D01*
X155190047Y-74411159D01*
X155262496Y-74425570D01*
X155881250Y-74425570D01*
X155975000Y-74331820D01*
X155975000Y-73375000D01*
X156125000Y-73375000D01*
X156125000Y-74331820D01*
X156218750Y-74425570D01*
X156837504Y-74425570D01*
X156909953Y-74411159D01*
X156978199Y-74382891D01*
X157039618Y-74341852D01*
X157091851Y-74289619D01*
X157132891Y-74228199D01*
X157161159Y-74159954D01*
X157175570Y-74087505D01*
X157175570Y-73468750D01*
X157081820Y-73375000D01*
X156125000Y-73375000D01*
X155975000Y-73375000D01*
X155018180Y-73375000D01*
X154924430Y-73468750D01*
X153175000Y-73468750D01*
X153175000Y-72512495D01*
X154924430Y-72512495D01*
X154924430Y-73131250D01*
X155018180Y-73225000D01*
X155975000Y-73225000D01*
X155975000Y-72268180D01*
X156125000Y-72268180D01*
X156125000Y-73225000D01*
X157081820Y-73225000D01*
X157175570Y-73131250D01*
X157175570Y-72512495D01*
X157161159Y-72440046D01*
X157132891Y-72371801D01*
X157091851Y-72310381D01*
X157039618Y-72258148D01*
X156978199Y-72217109D01*
X156909953Y-72188841D01*
X156837504Y-72174430D01*
X156218750Y-72174430D01*
X156125000Y-72268180D01*
X155975000Y-72268180D01*
X155881250Y-72174430D01*
X155262496Y-72174430D01*
X155190047Y-72188841D01*
X155121801Y-72217109D01*
X155060382Y-72258148D01*
X155008149Y-72310381D01*
X154967109Y-72371801D01*
X154938841Y-72440046D01*
X154924430Y-72512495D01*
X153175000Y-72512495D01*
X153175000Y-67750000D01*
X153169811Y-67697083D01*
X153165187Y-67644228D01*
X153164344Y-67641328D01*
X153164049Y-67638315D01*
X153148701Y-67587481D01*
X153133880Y-67536463D01*
X153132486Y-67533775D01*
X153131614Y-67530885D01*
X153106690Y-67484010D01*
X153082235Y-67436832D01*
X153080350Y-67434471D01*
X153078930Y-67431800D01*
X153045337Y-67390611D01*
X153012223Y-67349130D01*
X153008074Y-67344922D01*
X153008003Y-67344835D01*
X153007922Y-67344768D01*
X153006586Y-67343413D01*
X151359300Y-65696127D01*
X154409939Y-65696127D01*
X154639715Y-65999868D01*
X155056007Y-66226820D01*
X155508577Y-66368196D01*
X155980032Y-66418563D01*
X156452253Y-66375987D01*
X156907096Y-66242103D01*
X157327079Y-66022056D01*
X157360285Y-65999868D01*
X157590061Y-65696127D01*
X156000000Y-64106066D01*
X154409939Y-65696127D01*
X151359300Y-65696127D01*
X150406586Y-64743414D01*
X150365552Y-64709708D01*
X150324856Y-64675560D01*
X150322207Y-64674104D01*
X150319870Y-64672184D01*
X150273061Y-64647085D01*
X150226517Y-64621497D01*
X150223634Y-64620583D01*
X150220970Y-64619154D01*
X150170180Y-64603626D01*
X150119549Y-64587565D01*
X150116544Y-64587228D01*
X150113653Y-64586344D01*
X150060791Y-64580974D01*
X150008028Y-64575056D01*
X150002123Y-64575015D01*
X150002007Y-64575003D01*
X150001899Y-64575013D01*
X150000000Y-64575000D01*
X142988173Y-64575000D01*
X142575000Y-64161828D01*
X142575000Y-63980032D01*
X153581437Y-63980032D01*
X153624013Y-64452253D01*
X153757897Y-64907096D01*
X153977944Y-65327079D01*
X154000132Y-65360285D01*
X154303873Y-65590061D01*
X155893934Y-64000000D01*
X156106066Y-64000000D01*
X157696127Y-65590061D01*
X157999868Y-65360285D01*
X158226820Y-64943993D01*
X158368196Y-64491423D01*
X158418563Y-64019968D01*
X158375987Y-63547747D01*
X158242103Y-63092904D01*
X158022056Y-62672921D01*
X157999868Y-62639715D01*
X157696127Y-62409939D01*
X156106066Y-64000000D01*
X155893934Y-64000000D01*
X154303873Y-62409939D01*
X154000132Y-62639715D01*
X153773180Y-63056007D01*
X153631804Y-63508577D01*
X153581437Y-63980032D01*
X142575000Y-63980032D01*
X142575000Y-63876814D01*
X143000000Y-63876814D01*
X143059717Y-63872052D01*
X143161004Y-63840685D01*
X143249543Y-63782343D01*
X143318322Y-63701643D01*
X143361896Y-63604978D01*
X143376814Y-63500000D01*
X143376814Y-63462172D01*
X143683894Y-63462172D01*
X143789758Y-63660217D01*
X144030521Y-63784288D01*
X144290862Y-63859005D01*
X144560778Y-63881496D01*
X144829895Y-63850898D01*
X145087873Y-63768385D01*
X145290242Y-63660217D01*
X145396106Y-63462172D01*
X144540000Y-62606066D01*
X143683894Y-63462172D01*
X143376814Y-63462172D01*
X143376814Y-63244687D01*
X143379783Y-63250242D01*
X143577828Y-63356106D01*
X144433934Y-62500000D01*
X144646066Y-62500000D01*
X145502172Y-63356106D01*
X145700217Y-63250242D01*
X145824288Y-63009479D01*
X145899005Y-62749138D01*
X145921496Y-62479222D01*
X145901560Y-62303873D01*
X154409939Y-62303873D01*
X156000000Y-63893934D01*
X157590061Y-62303873D01*
X157360285Y-62000132D01*
X156943993Y-61773180D01*
X156491423Y-61631804D01*
X156019968Y-61581437D01*
X155547747Y-61624013D01*
X155092904Y-61757897D01*
X154672921Y-61977944D01*
X154639715Y-62000132D01*
X154409939Y-62303873D01*
X145901560Y-62303873D01*
X145890898Y-62210105D01*
X145808385Y-61952127D01*
X145700217Y-61749758D01*
X145502172Y-61643894D01*
X144646066Y-62500000D01*
X144433934Y-62500000D01*
X143577828Y-61643894D01*
X143379783Y-61749758D01*
X143376814Y-61755519D01*
X143376814Y-61500000D01*
X143372052Y-61440283D01*
X143340685Y-61338996D01*
X143282343Y-61250457D01*
X143201643Y-61181678D01*
X143104978Y-61138104D01*
X143012765Y-61125000D01*
X144462088Y-61125000D01*
X144250105Y-61149102D01*
X143992127Y-61231615D01*
X143789758Y-61339783D01*
X143683894Y-61537828D01*
X144540000Y-62393934D01*
X145396106Y-61537828D01*
X145290242Y-61339783D01*
X145049479Y-61215712D01*
X144789138Y-61140995D01*
X144597181Y-61125000D01*
X158875000Y-61125000D01*
X158875000Y-108875000D01*
X134275000Y-108875000D01*
X134275000Y-107696127D01*
X154409939Y-107696127D01*
X154639715Y-107999868D01*
X155056007Y-108226820D01*
X155508577Y-108368196D01*
X155980032Y-108418563D01*
X156452253Y-108375987D01*
X156907096Y-108242103D01*
X157327079Y-108022056D01*
X157360285Y-107999868D01*
X157590061Y-107696127D01*
X156000000Y-106106066D01*
X154409939Y-107696127D01*
X134275000Y-107696127D01*
X134275000Y-107628750D01*
X134181250Y-107535000D01*
X133075000Y-107535000D01*
X133075000Y-107555000D01*
X132925000Y-107555000D01*
X132925000Y-107535000D01*
X131818750Y-107535000D01*
X131725000Y-107628750D01*
X131725000Y-108875000D01*
X128275000Y-108875000D01*
X128275000Y-107628750D01*
X128181250Y-107535000D01*
X127075000Y-107535000D01*
X127075000Y-107555000D01*
X126925000Y-107555000D01*
X126925000Y-107535000D01*
X125818750Y-107535000D01*
X125725000Y-107628750D01*
X125725000Y-108875000D01*
X101125000Y-108875000D01*
X101125000Y-107696127D01*
X102409939Y-107696127D01*
X102639715Y-107999868D01*
X103056007Y-108226820D01*
X103508577Y-108368196D01*
X103980032Y-108418563D01*
X104452253Y-108375987D01*
X104907096Y-108242103D01*
X105327079Y-108022056D01*
X105360285Y-107999868D01*
X105590061Y-107696127D01*
X104000000Y-106106066D01*
X102409939Y-107696127D01*
X101125000Y-107696127D01*
X101125000Y-105980032D01*
X101581437Y-105980032D01*
X101624013Y-106452253D01*
X101757897Y-106907096D01*
X101977944Y-107327079D01*
X102000132Y-107360285D01*
X102303873Y-107590061D01*
X103893934Y-106000000D01*
X104106066Y-106000000D01*
X105696127Y-107590061D01*
X105999868Y-107360285D01*
X106226820Y-106943993D01*
X106368196Y-106491423D01*
X106418563Y-106019968D01*
X106375987Y-105547747D01*
X106242103Y-105092904D01*
X106132160Y-104883065D01*
X125725000Y-104883065D01*
X125725000Y-107291250D01*
X125818750Y-107385000D01*
X126925000Y-107385000D01*
X126925000Y-104638750D01*
X127075000Y-104638750D01*
X127075000Y-107385000D01*
X128181250Y-107385000D01*
X128275000Y-107291250D01*
X128275000Y-104883065D01*
X131725000Y-104883065D01*
X131725000Y-107291250D01*
X131818750Y-107385000D01*
X132925000Y-107385000D01*
X132925000Y-104638750D01*
X133075000Y-104638750D01*
X133075000Y-107385000D01*
X134181250Y-107385000D01*
X134275000Y-107291250D01*
X134275000Y-105980032D01*
X153581437Y-105980032D01*
X153624013Y-106452253D01*
X153757897Y-106907096D01*
X153977944Y-107327079D01*
X154000132Y-107360285D01*
X154303873Y-107590061D01*
X155893934Y-106000000D01*
X156106066Y-106000000D01*
X157696127Y-107590061D01*
X157999868Y-107360285D01*
X158226820Y-106943993D01*
X158368196Y-106491423D01*
X158418563Y-106019968D01*
X158375987Y-105547747D01*
X158242103Y-105092904D01*
X158022056Y-104672921D01*
X157999868Y-104639715D01*
X157696127Y-104409939D01*
X156106066Y-106000000D01*
X155893934Y-106000000D01*
X154303873Y-104409939D01*
X154000132Y-104639715D01*
X153773180Y-105056007D01*
X153631804Y-105508577D01*
X153581437Y-105980032D01*
X134275000Y-105980032D01*
X134275000Y-104883065D01*
X134260589Y-104810616D01*
X134232321Y-104742371D01*
X134191281Y-104680951D01*
X134139048Y-104628718D01*
X134077629Y-104587679D01*
X134009383Y-104559411D01*
X133936934Y-104545000D01*
X133168750Y-104545000D01*
X133075000Y-104638750D01*
X132925000Y-104638750D01*
X132831250Y-104545000D01*
X132063066Y-104545000D01*
X131990617Y-104559411D01*
X131922371Y-104587679D01*
X131860952Y-104628718D01*
X131808719Y-104680951D01*
X131767679Y-104742371D01*
X131739411Y-104810616D01*
X131725000Y-104883065D01*
X128275000Y-104883065D01*
X128260589Y-104810616D01*
X128232321Y-104742371D01*
X128191281Y-104680951D01*
X128139048Y-104628718D01*
X128077629Y-104587679D01*
X128009383Y-104559411D01*
X127936934Y-104545000D01*
X127168750Y-104545000D01*
X127075000Y-104638750D01*
X126925000Y-104638750D01*
X126831250Y-104545000D01*
X126063066Y-104545000D01*
X125990617Y-104559411D01*
X125922371Y-104587679D01*
X125860952Y-104628718D01*
X125808719Y-104680951D01*
X125767679Y-104742371D01*
X125739411Y-104810616D01*
X125725000Y-104883065D01*
X106132160Y-104883065D01*
X106022056Y-104672921D01*
X105999868Y-104639715D01*
X105696127Y-104409939D01*
X104106066Y-106000000D01*
X103893934Y-106000000D01*
X102303873Y-104409939D01*
X102000132Y-104639715D01*
X101773180Y-105056007D01*
X101631804Y-105508577D01*
X101581437Y-105980032D01*
X101125000Y-105980032D01*
X101125000Y-104303873D01*
X102409939Y-104303873D01*
X104000000Y-105893934D01*
X105590061Y-104303873D01*
X154409939Y-104303873D01*
X156000000Y-105893934D01*
X157590061Y-104303873D01*
X157360285Y-104000132D01*
X156943993Y-103773180D01*
X156491423Y-103631804D01*
X156019968Y-103581437D01*
X155547747Y-103624013D01*
X155092904Y-103757897D01*
X154672921Y-103977944D01*
X154639715Y-104000132D01*
X154409939Y-104303873D01*
X105590061Y-104303873D01*
X105360285Y-104000132D01*
X104943993Y-103773180D01*
X104491423Y-103631804D01*
X104019968Y-103581437D01*
X103547747Y-103624013D01*
X103092904Y-103757897D01*
X102672921Y-103977944D01*
X102639715Y-104000132D01*
X102409939Y-104303873D01*
X101125000Y-104303873D01*
X101125000Y-97749430D01*
X102322616Y-97749430D01*
X102322616Y-99250570D01*
X102327378Y-99310287D01*
X102358745Y-99411574D01*
X102417087Y-99500113D01*
X102497787Y-99568892D01*
X102594452Y-99612466D01*
X102699430Y-99627384D01*
X104200570Y-99627384D01*
X104260287Y-99622622D01*
X104361574Y-99591255D01*
X104450113Y-99532913D01*
X104518892Y-99452213D01*
X104562466Y-99355548D01*
X104577384Y-99250570D01*
X104577384Y-99000000D01*
X109542894Y-99000000D01*
X111030638Y-100487745D01*
X111046305Y-100573107D01*
X111091425Y-100687068D01*
X111157822Y-100790096D01*
X111242965Y-100878264D01*
X111343612Y-100948216D01*
X111455930Y-100997286D01*
X111575639Y-101023606D01*
X111698181Y-101026173D01*
X111818888Y-101004889D01*
X111933162Y-100960565D01*
X112036650Y-100894890D01*
X112125411Y-100810364D01*
X112196064Y-100710207D01*
X112245917Y-100598235D01*
X112271507Y-100485599D01*
X118003553Y-94753554D01*
X118032853Y-94717884D01*
X118062557Y-94682484D01*
X118063825Y-94680177D01*
X118065492Y-94678148D01*
X118087299Y-94637479D01*
X118109568Y-94596971D01*
X118110363Y-94594464D01*
X118111605Y-94592148D01*
X118125107Y-94547985D01*
X118139074Y-94503956D01*
X118139367Y-94501345D01*
X118140136Y-94498829D01*
X118144801Y-94452897D01*
X118149951Y-94406981D01*
X118149987Y-94401832D01*
X118149996Y-94401745D01*
X118149988Y-94401664D01*
X118150000Y-94400000D01*
X118150000Y-93725507D01*
X118196064Y-93660207D01*
X118245917Y-93548235D01*
X118273072Y-93428712D01*
X118275027Y-93288716D01*
X118251220Y-93168481D01*
X118204512Y-93055161D01*
X118136684Y-92953070D01*
X118050318Y-92866099D01*
X117948703Y-92797560D01*
X117835712Y-92750062D01*
X117715646Y-92725416D01*
X117593081Y-92724561D01*
X117472683Y-92747528D01*
X117359039Y-92793443D01*
X117256478Y-92860557D01*
X117168906Y-92946314D01*
X117099658Y-93047447D01*
X117051373Y-93160104D01*
X117025890Y-93279995D01*
X117024179Y-93402552D01*
X117046305Y-93523107D01*
X117091425Y-93637068D01*
X117150000Y-93727959D01*
X117150000Y-94192893D01*
X111650000Y-99692894D01*
X110103553Y-98146447D01*
X110067908Y-98117168D01*
X110032484Y-98087443D01*
X110030177Y-98086175D01*
X110028148Y-98084508D01*
X109987479Y-98062701D01*
X109946971Y-98040432D01*
X109944464Y-98039637D01*
X109942148Y-98038395D01*
X109897985Y-98024893D01*
X109853956Y-98010926D01*
X109851345Y-98010633D01*
X109848829Y-98009864D01*
X109802853Y-98005194D01*
X109756981Y-98000049D01*
X109751843Y-98000013D01*
X109751745Y-98000003D01*
X109751654Y-98000012D01*
X109750000Y-98000000D01*
X104577384Y-98000000D01*
X104577384Y-97749430D01*
X104572622Y-97689713D01*
X104541255Y-97588426D01*
X104482913Y-97499887D01*
X104402213Y-97431108D01*
X104305548Y-97387534D01*
X104200570Y-97372616D01*
X102699430Y-97372616D01*
X102639713Y-97377378D01*
X102538426Y-97408745D01*
X102449887Y-97467087D01*
X102381108Y-97547787D01*
X102337534Y-97644452D01*
X102322616Y-97749430D01*
X101125000Y-97749430D01*
X101125000Y-95002552D01*
X101174179Y-95002552D01*
X101196305Y-95123107D01*
X101241425Y-95237068D01*
X101307822Y-95340096D01*
X101392965Y-95428264D01*
X101493612Y-95498216D01*
X101605930Y-95547286D01*
X101725639Y-95573606D01*
X101848181Y-95576173D01*
X101968888Y-95554889D01*
X102083162Y-95510565D01*
X102186650Y-95444890D01*
X102275411Y-95360364D01*
X102346064Y-95260207D01*
X102395917Y-95148235D01*
X102421507Y-95035599D01*
X105457107Y-92000000D01*
X116650000Y-92000000D01*
X116695944Y-91995495D01*
X116741976Y-91991468D01*
X116744501Y-91990735D01*
X116747117Y-91990478D01*
X116791323Y-91977131D01*
X116835684Y-91964243D01*
X116838019Y-91963033D01*
X116840535Y-91962273D01*
X116881285Y-91940606D01*
X116922320Y-91919336D01*
X116924376Y-91917694D01*
X116926696Y-91916461D01*
X116962485Y-91887272D01*
X116998582Y-91858455D01*
X117002240Y-91854848D01*
X117002317Y-91854785D01*
X117002376Y-91854714D01*
X117003553Y-91853553D01*
X117903553Y-90953554D01*
X117932853Y-90917884D01*
X117962557Y-90882484D01*
X117963825Y-90880177D01*
X117965492Y-90878148D01*
X117987299Y-90837479D01*
X118009568Y-90796971D01*
X118010363Y-90794464D01*
X118011605Y-90792148D01*
X118025107Y-90747985D01*
X118039074Y-90703956D01*
X118039367Y-90701345D01*
X118040136Y-90698829D01*
X118044801Y-90652897D01*
X118049951Y-90606981D01*
X118049987Y-90601832D01*
X118049996Y-90601745D01*
X118049988Y-90601664D01*
X118050000Y-90600000D01*
X118050000Y-90025507D01*
X118096064Y-89960207D01*
X118145917Y-89848235D01*
X118173072Y-89728712D01*
X118175027Y-89588716D01*
X118151220Y-89468481D01*
X118104512Y-89355161D01*
X118036684Y-89253070D01*
X117950318Y-89166099D01*
X117848703Y-89097560D01*
X117735712Y-89050062D01*
X117615646Y-89025416D01*
X117493081Y-89024561D01*
X117372683Y-89047528D01*
X117259039Y-89093443D01*
X117156478Y-89160557D01*
X117068906Y-89246314D01*
X116999658Y-89347447D01*
X116951373Y-89460104D01*
X116925890Y-89579995D01*
X116924179Y-89702552D01*
X116946305Y-89823107D01*
X116991425Y-89937068D01*
X117050000Y-90027959D01*
X117050000Y-90392893D01*
X116442894Y-91000000D01*
X105250000Y-91000000D01*
X105204048Y-91004505D01*
X105158025Y-91008532D01*
X105155501Y-91009265D01*
X105152883Y-91009522D01*
X105108665Y-91022873D01*
X105064316Y-91035757D01*
X105061981Y-91036967D01*
X105059465Y-91037727D01*
X105018694Y-91059405D01*
X104977681Y-91080664D01*
X104975626Y-91082304D01*
X104973304Y-91083539D01*
X104937494Y-91112746D01*
X104901418Y-91141545D01*
X104897756Y-91145156D01*
X104897683Y-91145215D01*
X104897627Y-91145282D01*
X104896447Y-91146446D01*
X101712499Y-94330395D01*
X101622683Y-94347528D01*
X101509039Y-94393443D01*
X101406478Y-94460557D01*
X101318906Y-94546314D01*
X101249658Y-94647447D01*
X101201373Y-94760104D01*
X101175890Y-94879995D01*
X101174179Y-95002552D01*
X101125000Y-95002552D01*
X101125000Y-86565164D01*
X108673981Y-86565164D01*
X108701417Y-86714653D01*
X108757367Y-86855965D01*
X108839699Y-86983719D01*
X108945277Y-87093048D01*
X109070079Y-87179788D01*
X109209353Y-87240635D01*
X109357793Y-87273272D01*
X109509745Y-87276455D01*
X109659421Y-87250063D01*
X109801121Y-87195101D01*
X109929446Y-87113663D01*
X109970046Y-87075000D01*
X122227848Y-87075000D01*
X122245277Y-87093048D01*
X122370079Y-87179788D01*
X122509353Y-87240635D01*
X122657793Y-87273272D01*
X122809745Y-87276455D01*
X122959421Y-87250063D01*
X123101121Y-87195101D01*
X123229446Y-87113663D01*
X123339510Y-87008851D01*
X123427119Y-86884657D01*
X123488937Y-86745812D01*
X123522609Y-86597603D01*
X123525033Y-86424007D01*
X123495513Y-86274916D01*
X123437595Y-86134399D01*
X123353488Y-86007807D01*
X123246394Y-85899963D01*
X123120392Y-85814974D01*
X122980283Y-85756077D01*
X122831402Y-85725516D01*
X122679420Y-85724455D01*
X122530127Y-85752934D01*
X122389208Y-85809869D01*
X122262032Y-85893091D01*
X122229448Y-85925000D01*
X109971257Y-85925000D01*
X109946394Y-85899963D01*
X109820392Y-85814974D01*
X109680283Y-85756077D01*
X109531402Y-85725516D01*
X109379420Y-85724455D01*
X109230127Y-85752934D01*
X109089208Y-85809869D01*
X108962032Y-85893091D01*
X108853443Y-85999429D01*
X108767576Y-86124834D01*
X108707703Y-86264529D01*
X108676103Y-86413194D01*
X108673981Y-86565164D01*
X101125000Y-86565164D01*
X101125000Y-65696127D01*
X102409939Y-65696127D01*
X102639715Y-65999868D01*
X103056007Y-66226820D01*
X103508577Y-66368196D01*
X103980032Y-66418563D01*
X104452253Y-66375987D01*
X104907096Y-66242103D01*
X105327079Y-66022056D01*
X105360285Y-65999868D01*
X105590061Y-65696127D01*
X104000000Y-64106066D01*
X102409939Y-65696127D01*
X101125000Y-65696127D01*
X101125000Y-63980032D01*
X101581437Y-63980032D01*
X101624013Y-64452253D01*
X101757897Y-64907096D01*
X101977944Y-65327079D01*
X102000132Y-65360285D01*
X102303873Y-65590061D01*
X103893934Y-64000000D01*
X104106066Y-64000000D01*
X105696127Y-65590061D01*
X105999868Y-65360285D01*
X106226820Y-64943993D01*
X106368196Y-64491423D01*
X106418563Y-64019968D01*
X106375987Y-63547747D01*
X106242103Y-63092904D01*
X106022056Y-62672921D01*
X105999868Y-62639715D01*
X105696127Y-62409939D01*
X104106066Y-64000000D01*
X103893934Y-64000000D01*
X102303873Y-62409939D01*
X102000132Y-62639715D01*
X101773180Y-63056007D01*
X101631804Y-63508577D01*
X101581437Y-63980032D01*
X101125000Y-63980032D01*
X101125000Y-62303873D01*
X102409939Y-62303873D01*
X104000000Y-63893934D01*
X105590061Y-62303873D01*
X105360285Y-62000132D01*
X104943993Y-61773180D01*
X104491423Y-61631804D01*
X104019968Y-61581437D01*
X103547747Y-61624013D01*
X103092904Y-61757897D01*
X102672921Y-61977944D01*
X102639715Y-62000132D01*
X102409939Y-62303873D01*
X101125000Y-62303873D01*
X101125000Y-61125000D01*
X109444537Y-61125000D01*
X109385396Y-61143315D01*
X109385396Y-61143315D01*
G37*
X109385396Y-61143315D02*
X109296857Y-61201657D01*
X109228078Y-61282357D01*
X109184504Y-61379022D01*
X109169586Y-61484000D01*
X109169586Y-63516000D01*
X109174348Y-63575717D01*
X109205715Y-63677004D01*
X109264057Y-63765543D01*
X109344757Y-63834322D01*
X109441422Y-63877896D01*
X109546400Y-63892814D01*
X109910000Y-63892814D01*
X109910000Y-77310000D01*
X109914505Y-77355944D01*
X109918532Y-77401976D01*
X109919265Y-77404501D01*
X109919522Y-77407117D01*
X109932869Y-77451323D01*
X109945757Y-77495684D01*
X109946967Y-77498019D01*
X109947727Y-77500535D01*
X109969394Y-77541285D01*
X109990664Y-77582320D01*
X109992306Y-77584376D01*
X109993539Y-77586696D01*
X110022728Y-77622485D01*
X110051545Y-77658582D01*
X110055152Y-77662240D01*
X110055215Y-77662317D01*
X110055286Y-77662376D01*
X110056447Y-77663553D01*
X114146446Y-81753553D01*
X114182138Y-81782871D01*
X114217516Y-81812557D01*
X114219820Y-81813823D01*
X114221851Y-81815492D01*
X114262542Y-81837310D01*
X114303029Y-81859568D01*
X114305536Y-81860363D01*
X114307852Y-81861605D01*
X114352015Y-81875107D01*
X114396044Y-81889074D01*
X114398655Y-81889367D01*
X114401171Y-81890136D01*
X114447103Y-81894801D01*
X114493019Y-81899951D01*
X114498168Y-81899987D01*
X114498255Y-81899996D01*
X114498336Y-81899988D01*
X114500000Y-81900000D01*
X127350000Y-81900000D01*
X127395944Y-81895495D01*
X127441976Y-81891468D01*
X127444501Y-81890735D01*
X127447117Y-81890478D01*
X127491323Y-81877131D01*
X127535684Y-81864243D01*
X127538019Y-81863033D01*
X127540535Y-81862273D01*
X127581285Y-81840606D01*
X127622320Y-81819336D01*
X127624376Y-81817694D01*
X127626696Y-81816461D01*
X127662485Y-81787272D01*
X127698582Y-81758455D01*
X127702240Y-81754848D01*
X127702317Y-81754785D01*
X127702376Y-81754714D01*
X127703553Y-81753553D01*
X140307106Y-69150000D01*
X146492894Y-69150000D01*
X148450000Y-71107107D01*
X148450000Y-78342894D01*
X140962499Y-85830395D01*
X140872683Y-85847528D01*
X140759039Y-85893443D01*
X140656478Y-85960557D01*
X140625000Y-85991383D01*
X140625000Y-85538172D01*
X147706586Y-78456587D01*
X147740313Y-78415527D01*
X147774440Y-78374856D01*
X147775896Y-78372207D01*
X147777816Y-78369870D01*
X147802896Y-78323096D01*
X147828503Y-78276517D01*
X147829419Y-78273630D01*
X147830845Y-78270970D01*
X147846363Y-78220214D01*
X147862435Y-78169549D01*
X147862772Y-78166546D01*
X147863656Y-78163654D01*
X147869021Y-78110831D01*
X147874944Y-78058028D01*
X147874985Y-78052113D01*
X147874996Y-78052007D01*
X147874987Y-78051908D01*
X147875000Y-78050000D01*
X147875000Y-71550000D01*
X147869821Y-71497178D01*
X147865188Y-71444228D01*
X147864344Y-71441323D01*
X147864049Y-71438315D01*
X147848710Y-71387510D01*
X147833880Y-71336464D01*
X147832487Y-71333777D01*
X147831614Y-71330885D01*
X147806690Y-71284010D01*
X147782236Y-71236833D01*
X147780350Y-71234470D01*
X147778930Y-71231800D01*
X147745367Y-71190647D01*
X147712224Y-71149130D01*
X147708073Y-71144921D01*
X147708003Y-71144835D01*
X147707924Y-71144769D01*
X147706587Y-71143414D01*
X146106586Y-69543414D01*
X146065552Y-69509708D01*
X146024856Y-69475560D01*
X146022207Y-69474104D01*
X146019870Y-69472184D01*
X145973061Y-69447085D01*
X145926517Y-69421497D01*
X145923634Y-69420583D01*
X145920970Y-69419154D01*
X145870180Y-69403626D01*
X145819549Y-69387565D01*
X145816544Y-69387228D01*
X145813653Y-69386344D01*
X145760791Y-69380974D01*
X145708028Y-69375056D01*
X145702123Y-69375015D01*
X145702007Y-69375003D01*
X145701899Y-69375013D01*
X145700000Y-69375000D01*
X141250000Y-69375000D01*
X141197178Y-69380179D01*
X141144228Y-69384812D01*
X141141323Y-69385656D01*
X141138315Y-69385951D01*
X141087510Y-69401290D01*
X141036464Y-69416120D01*
X141033777Y-69417513D01*
X141030885Y-69418386D01*
X140984010Y-69443310D01*
X140936833Y-69467764D01*
X140934470Y-69469650D01*
X140931800Y-69471070D01*
X140890647Y-69504633D01*
X140849130Y-69537776D01*
X140844921Y-69541927D01*
X140844835Y-69541997D01*
X140844769Y-69542076D01*
X140843414Y-69543413D01*
X125393484Y-84993344D01*
X125393413Y-84993414D01*
X121943413Y-88443415D01*
X121909707Y-88484449D01*
X121875559Y-88525145D01*
X121874103Y-88527794D01*
X121872183Y-88530131D01*
X121847084Y-88576940D01*
X121821496Y-88623484D01*
X121820582Y-88626367D01*
X121819153Y-88629031D01*
X121803625Y-88679821D01*
X121787564Y-88730452D01*
X121787227Y-88733457D01*
X121786343Y-88736348D01*
X121780973Y-88789210D01*
X121775055Y-88841973D01*
X121775014Y-88847878D01*
X121775002Y-88847994D01*
X121775012Y-88848102D01*
X121774999Y-88850001D01*
X121774999Y-94544374D01*
X121730127Y-94552934D01*
X121589208Y-94609869D01*
X121462032Y-94693091D01*
X121353443Y-94799429D01*
X121267576Y-94924834D01*
X121207703Y-95064529D01*
X121176103Y-95213194D01*
X121173981Y-95365164D01*
X121201417Y-95514653D01*
X121257367Y-95655965D01*
X121339699Y-95783719D01*
X121445277Y-95893048D01*
X121570079Y-95979788D01*
X121709353Y-96040635D01*
X121857793Y-96073272D01*
X122009745Y-96076455D01*
X122159421Y-96050063D01*
X122301121Y-95995101D01*
X122429446Y-95913663D01*
X122539510Y-95808851D01*
X122627119Y-95684657D01*
X122688937Y-95545812D01*
X122722609Y-95397603D01*
X122723417Y-95339755D01*
X122756585Y-95306587D01*
X122790291Y-95265553D01*
X122824439Y-95224857D01*
X122825895Y-95222208D01*
X122827815Y-95219871D01*
X122852914Y-95173062D01*
X122878502Y-95126518D01*
X122879416Y-95123635D01*
X122880845Y-95120971D01*
X122896373Y-95070181D01*
X122912434Y-95019550D01*
X122912771Y-95016545D01*
X122913655Y-95013654D01*
X122919025Y-94960792D01*
X122924943Y-94908029D01*
X122924984Y-94902124D01*
X122924996Y-94902008D01*
X122924986Y-94901900D01*
X122924999Y-94900001D01*
X122924999Y-94753001D01*
X134373390Y-94753001D01*
X134416757Y-94989289D01*
X134505193Y-95212654D01*
X134635331Y-95414588D01*
X134802212Y-95587398D01*
X134999480Y-95724503D01*
X135219623Y-95820681D01*
X135454253Y-95872268D01*
X135694436Y-95877299D01*
X135931021Y-95835583D01*
X136154997Y-95748708D01*
X136357834Y-95619984D01*
X136531806Y-95454313D01*
X136670285Y-95258006D01*
X136767997Y-95038541D01*
X136821221Y-94804276D01*
X136821936Y-94753001D01*
X136823390Y-94753001D01*
X136866757Y-94989289D01*
X136955193Y-95212654D01*
X137085331Y-95414588D01*
X137252212Y-95587398D01*
X137449480Y-95724503D01*
X137669623Y-95820681D01*
X137904253Y-95872268D01*
X138144436Y-95877299D01*
X138381021Y-95835583D01*
X138604997Y-95748708D01*
X138807834Y-95619984D01*
X138981806Y-95454313D01*
X139120285Y-95258006D01*
X139217997Y-95038541D01*
X139271221Y-94804276D01*
X139271936Y-94753001D01*
X139273390Y-94753001D01*
X139316757Y-94989289D01*
X139405193Y-95212654D01*
X139535331Y-95414588D01*
X139702212Y-95587398D01*
X139899480Y-95724503D01*
X140119623Y-95820681D01*
X140354253Y-95872268D01*
X140594436Y-95877299D01*
X140831021Y-95835583D01*
X141054997Y-95748708D01*
X141257834Y-95619984D01*
X141431806Y-95454313D01*
X141570285Y-95258006D01*
X141667997Y-95038541D01*
X141721221Y-94804276D01*
X141725052Y-94529883D01*
X141678390Y-94294223D01*
X141586844Y-94072115D01*
X141453900Y-93872018D01*
X141284622Y-93701554D01*
X141085459Y-93567217D01*
X140863995Y-93474122D01*
X140628667Y-93425816D01*
X140388438Y-93424139D01*
X140152458Y-93469155D01*
X139929716Y-93559148D01*
X139728696Y-93690692D01*
X139557055Y-93858775D01*
X139421330Y-94056996D01*
X139326692Y-94277805D01*
X139276744Y-94512790D01*
X139273390Y-94753001D01*
X139271936Y-94753001D01*
X139275052Y-94529883D01*
X139228390Y-94294223D01*
X139136844Y-94072115D01*
X139003900Y-93872018D01*
X138834622Y-93701554D01*
X138635459Y-93567217D01*
X138413995Y-93474122D01*
X138178667Y-93425816D01*
X137938438Y-93424139D01*
X137702458Y-93469155D01*
X137479716Y-93559148D01*
X137278696Y-93690692D01*
X137107055Y-93858775D01*
X136971330Y-94056996D01*
X136876692Y-94277805D01*
X136826744Y-94512790D01*
X136823390Y-94753001D01*
X136821936Y-94753001D01*
X136825052Y-94529883D01*
X136778390Y-94294223D01*
X136686844Y-94072115D01*
X136553900Y-93872018D01*
X136384622Y-93701554D01*
X136185459Y-93567217D01*
X135963995Y-93474122D01*
X135728667Y-93425816D01*
X135488438Y-93424139D01*
X135252458Y-93469155D01*
X135029716Y-93559148D01*
X134828696Y-93690692D01*
X134657055Y-93858775D01*
X134521330Y-94056996D01*
X134426692Y-94277805D01*
X134376744Y-94512790D01*
X134373390Y-94753001D01*
X122924999Y-94753001D01*
X122924999Y-89088173D01*
X126206586Y-85806587D01*
X126206591Y-85806581D01*
X133511000Y-78502172D01*
X144143894Y-78502172D01*
X144249758Y-78700217D01*
X144490521Y-78824288D01*
X144750862Y-78899005D01*
X145020778Y-78921496D01*
X145289895Y-78890898D01*
X145547873Y-78808385D01*
X145750242Y-78700217D01*
X145856106Y-78502172D01*
X145000000Y-77646066D01*
X144143894Y-78502172D01*
X133511000Y-78502172D01*
X134452394Y-77560778D01*
X143618504Y-77560778D01*
X143649102Y-77829895D01*
X143731615Y-78087873D01*
X143839783Y-78290242D01*
X144037828Y-78396106D01*
X144893934Y-77540000D01*
X145106066Y-77540000D01*
X145962172Y-78396106D01*
X146160217Y-78290242D01*
X146284288Y-78049479D01*
X146359005Y-77789138D01*
X146381496Y-77519222D01*
X146350898Y-77250105D01*
X146268385Y-76992127D01*
X146160217Y-76789758D01*
X145962172Y-76683894D01*
X145106066Y-77540000D01*
X144893934Y-77540000D01*
X144037828Y-76683894D01*
X143839783Y-76789758D01*
X143715712Y-77030521D01*
X143640995Y-77290862D01*
X143618504Y-77560778D01*
X134452394Y-77560778D01*
X136897558Y-75115614D01*
X143623193Y-75115614D01*
X143671870Y-75380835D01*
X143771135Y-75631551D01*
X143917208Y-75858211D01*
X144104523Y-76052182D01*
X144325947Y-76206075D01*
X144465888Y-76267214D01*
X144452127Y-76271615D01*
X144249758Y-76379783D01*
X144143894Y-76577828D01*
X145000000Y-77433934D01*
X145856106Y-76577828D01*
X145750242Y-76379783D01*
X145533335Y-76268006D01*
X145622956Y-76233244D01*
X145850631Y-76088757D01*
X146045904Y-75902801D01*
X146201340Y-75682456D01*
X146311017Y-75436117D01*
X146370758Y-75173167D01*
X146375059Y-74865174D01*
X146322683Y-74600658D01*
X146219927Y-74351353D01*
X146070704Y-74126755D01*
X145880699Y-73935418D01*
X145657148Y-73784631D01*
X145533943Y-73732840D01*
X145547873Y-73728385D01*
X145750242Y-73620217D01*
X145856106Y-73422172D01*
X145000000Y-72566066D01*
X144143894Y-73422172D01*
X144249758Y-73620217D01*
X144467141Y-73732240D01*
X144359886Y-73775574D01*
X144134251Y-73923225D01*
X143941592Y-74111891D01*
X143789248Y-74334384D01*
X143683021Y-74582230D01*
X143626958Y-74845989D01*
X143623193Y-75115614D01*
X136897558Y-75115614D01*
X139532394Y-72480778D01*
X143618504Y-72480778D01*
X143649102Y-72749895D01*
X143731615Y-73007873D01*
X143839783Y-73210242D01*
X144037828Y-73316106D01*
X144893934Y-72460000D01*
X145106066Y-72460000D01*
X145962172Y-73316106D01*
X146160217Y-73210242D01*
X146284288Y-72969479D01*
X146359005Y-72709138D01*
X146381496Y-72439222D01*
X146350898Y-72170105D01*
X146268385Y-71912127D01*
X146160217Y-71709758D01*
X145962172Y-71603894D01*
X145106066Y-72460000D01*
X144893934Y-72460000D01*
X144037828Y-71603894D01*
X143839783Y-71709758D01*
X143715712Y-71950521D01*
X143640995Y-72210862D01*
X143618504Y-72480778D01*
X139532394Y-72480778D01*
X140515344Y-71497828D01*
X144143894Y-71497828D01*
X145000000Y-72353934D01*
X145856106Y-71497828D01*
X145750242Y-71299783D01*
X145509479Y-71175712D01*
X145249138Y-71100995D01*
X144979222Y-71078504D01*
X144710105Y-71109102D01*
X144452127Y-71191615D01*
X144249758Y-71299783D01*
X144143894Y-71497828D01*
X140515344Y-71497828D01*
X141488173Y-70525000D01*
X145461828Y-70525000D01*
X146725000Y-71788173D01*
X146725000Y-77811827D01*
X139643414Y-84893414D01*
X139609708Y-84934448D01*
X139575560Y-84975144D01*
X139574104Y-84977793D01*
X139572184Y-84980130D01*
X139547085Y-85026939D01*
X139521497Y-85073483D01*
X139520583Y-85076366D01*
X139519154Y-85079030D01*
X139503626Y-85129820D01*
X139487565Y-85180451D01*
X139487228Y-85183456D01*
X139486344Y-85186347D01*
X139480974Y-85239209D01*
X139475056Y-85291972D01*
X139475015Y-85297877D01*
X139475003Y-85297993D01*
X139475013Y-85298101D01*
X139475000Y-85300000D01*
X139475000Y-87828319D01*
X139453443Y-87849429D01*
X139367576Y-87974834D01*
X139307703Y-88114529D01*
X139276103Y-88263194D01*
X139273981Y-88415164D01*
X139301417Y-88564653D01*
X139357367Y-88705965D01*
X139439699Y-88833719D01*
X139545277Y-88943048D01*
X139670079Y-89029788D01*
X139809353Y-89090635D01*
X139957793Y-89123272D01*
X140109745Y-89126455D01*
X140259421Y-89100063D01*
X140401121Y-89045101D01*
X140529446Y-88963663D01*
X140639510Y-88858851D01*
X140727119Y-88734657D01*
X140788937Y-88595812D01*
X140822609Y-88447603D01*
X140825033Y-88274007D01*
X140795513Y-88124916D01*
X140737595Y-87984399D01*
X140653488Y-87857807D01*
X140625000Y-87829119D01*
X140625000Y-86909661D01*
X140642965Y-86928264D01*
X140743612Y-86998216D01*
X140855930Y-87047286D01*
X140975639Y-87073606D01*
X141098181Y-87076173D01*
X141218888Y-87054889D01*
X141333162Y-87010565D01*
X141436650Y-86944890D01*
X141525411Y-86860364D01*
X141596064Y-86760207D01*
X141645917Y-86648235D01*
X141671507Y-86535599D01*
X149303553Y-78903553D01*
X149332832Y-78867908D01*
X149362557Y-78832484D01*
X149363825Y-78830177D01*
X149365492Y-78828148D01*
X149387299Y-78787479D01*
X149409568Y-78746971D01*
X149410363Y-78744464D01*
X149411605Y-78742148D01*
X149425107Y-78697985D01*
X149439074Y-78653956D01*
X149439367Y-78651345D01*
X149440136Y-78648829D01*
X149444806Y-78602853D01*
X149449951Y-78556981D01*
X149449987Y-78551843D01*
X149449997Y-78551745D01*
X149449988Y-78551654D01*
X149450000Y-78550000D01*
X149450000Y-70900000D01*
X149445499Y-70854098D01*
X149441469Y-70808025D01*
X149440734Y-70805496D01*
X149440478Y-70802883D01*
X149427154Y-70758752D01*
X149414244Y-70714316D01*
X149413031Y-70711976D01*
X149412273Y-70709465D01*
X149390614Y-70668730D01*
X149369336Y-70627681D01*
X149367696Y-70625626D01*
X149366461Y-70623304D01*
X149337254Y-70587494D01*
X149308455Y-70551418D01*
X149304844Y-70547756D01*
X149304785Y-70547683D01*
X149304718Y-70547627D01*
X149303554Y-70546447D01*
X147053553Y-68296447D01*
X147017908Y-68267168D01*
X146982484Y-68237443D01*
X146980177Y-68236175D01*
X146978148Y-68234508D01*
X146937479Y-68212701D01*
X146896971Y-68190432D01*
X146894464Y-68189637D01*
X146892148Y-68188395D01*
X146847985Y-68174893D01*
X146803956Y-68160926D01*
X146801345Y-68160633D01*
X146798829Y-68159864D01*
X146752853Y-68155194D01*
X146706981Y-68150049D01*
X146701843Y-68150013D01*
X146701745Y-68150003D01*
X146701654Y-68150012D01*
X146700000Y-68150000D01*
X140100000Y-68150000D01*
X140054052Y-68154505D01*
X140008025Y-68158532D01*
X140005501Y-68159265D01*
X140002883Y-68159522D01*
X139958665Y-68172873D01*
X139914316Y-68185757D01*
X139911981Y-68186967D01*
X139909465Y-68187727D01*
X139868694Y-68209405D01*
X139827681Y-68230664D01*
X139825626Y-68232304D01*
X139823304Y-68233539D01*
X139787494Y-68262746D01*
X139751418Y-68291545D01*
X139747760Y-68295152D01*
X139747683Y-68295215D01*
X139747624Y-68295286D01*
X139746447Y-68296447D01*
X127142894Y-80900000D01*
X114707107Y-80900000D01*
X112309279Y-78502172D01*
X114143894Y-78502172D01*
X114249758Y-78700217D01*
X114490521Y-78824288D01*
X114750862Y-78899005D01*
X115020778Y-78921496D01*
X115289895Y-78890898D01*
X115547873Y-78808385D01*
X115750242Y-78700217D01*
X115856106Y-78502172D01*
X115000000Y-77646066D01*
X114143894Y-78502172D01*
X112309279Y-78502172D01*
X111367885Y-77560778D01*
X113618504Y-77560778D01*
X113649102Y-77829895D01*
X113731615Y-78087873D01*
X113839783Y-78290242D01*
X114037828Y-78396106D01*
X114893934Y-77540000D01*
X115106066Y-77540000D01*
X115962172Y-78396106D01*
X116160217Y-78290242D01*
X116284288Y-78049479D01*
X116359005Y-77789138D01*
X116381496Y-77519222D01*
X116350898Y-77250105D01*
X116268385Y-76992127D01*
X116160217Y-76789758D01*
X115962172Y-76683894D01*
X115106066Y-77540000D01*
X114893934Y-77540000D01*
X114037828Y-76683894D01*
X113839783Y-76789758D01*
X113715712Y-77030521D01*
X113640995Y-77290862D01*
X113618504Y-77560778D01*
X111367885Y-77560778D01*
X110910000Y-77102894D01*
X110910000Y-75115614D01*
X113623193Y-75115614D01*
X113671870Y-75380835D01*
X113771135Y-75631551D01*
X113917208Y-75858211D01*
X114104523Y-76052182D01*
X114325947Y-76206075D01*
X114465888Y-76267214D01*
X114452127Y-76271615D01*
X114249758Y-76379783D01*
X114143894Y-76577828D01*
X115000000Y-77433934D01*
X115856106Y-76577828D01*
X115750242Y-76379783D01*
X115533335Y-76268006D01*
X115622956Y-76233244D01*
X115850631Y-76088757D01*
X116045904Y-75902801D01*
X116201340Y-75682456D01*
X116311017Y-75436117D01*
X116370758Y-75173167D01*
X116375059Y-74865174D01*
X116322683Y-74600658D01*
X116219927Y-74351353D01*
X116070704Y-74126755D01*
X115880699Y-73935418D01*
X115657148Y-73784631D01*
X115533943Y-73732840D01*
X115547873Y-73728385D01*
X115750242Y-73620217D01*
X115856106Y-73422172D01*
X115000000Y-72566066D01*
X114143894Y-73422172D01*
X114249758Y-73620217D01*
X114467141Y-73732240D01*
X114359886Y-73775574D01*
X114134251Y-73923225D01*
X113941592Y-74111891D01*
X113789248Y-74334384D01*
X113683021Y-74582230D01*
X113626958Y-74845989D01*
X113623193Y-75115614D01*
X110910000Y-75115614D01*
X110910000Y-72480778D01*
X113618504Y-72480778D01*
X113649102Y-72749895D01*
X113731615Y-73007873D01*
X113839783Y-73210242D01*
X114037828Y-73316106D01*
X114893934Y-72460000D01*
X115106066Y-72460000D01*
X115962172Y-73316106D01*
X116160217Y-73210242D01*
X116284288Y-72969479D01*
X116359005Y-72709138D01*
X116381496Y-72439222D01*
X116350898Y-72170105D01*
X116268385Y-71912127D01*
X116160217Y-71709758D01*
X115962172Y-71603894D01*
X115106066Y-72460000D01*
X114893934Y-72460000D01*
X114037828Y-71603894D01*
X113839783Y-71709758D01*
X113715712Y-71950521D01*
X113640995Y-72210862D01*
X113618504Y-72480778D01*
X110910000Y-72480778D01*
X110910000Y-71497828D01*
X114143894Y-71497828D01*
X115000000Y-72353934D01*
X115856106Y-71497828D01*
X115750242Y-71299783D01*
X115509479Y-71175712D01*
X115249138Y-71100995D01*
X114979222Y-71078504D01*
X114710105Y-71109102D01*
X114452127Y-71191615D01*
X114249758Y-71299783D01*
X114143894Y-71497828D01*
X110910000Y-71497828D01*
X110910000Y-63892814D01*
X111273600Y-63892814D01*
X111333317Y-63888052D01*
X111434604Y-63856685D01*
X111523143Y-63798343D01*
X111591922Y-63717643D01*
X111635496Y-63620978D01*
X111650414Y-63516000D01*
X111650414Y-62952929D01*
X111721135Y-63131551D01*
X111867208Y-63358211D01*
X112054523Y-63552182D01*
X112275947Y-63706075D01*
X112523046Y-63814030D01*
X112786407Y-63871934D01*
X113055999Y-63877581D01*
X113321554Y-63830756D01*
X113572956Y-63733244D01*
X113800631Y-63588757D01*
X113995904Y-63402801D01*
X114151340Y-63182456D01*
X114220123Y-63027966D01*
X114261135Y-63131551D01*
X114407208Y-63358211D01*
X114594523Y-63552182D01*
X114815947Y-63706075D01*
X115063046Y-63814030D01*
X115326407Y-63871934D01*
X115595999Y-63877581D01*
X115861554Y-63830756D01*
X116112956Y-63733244D01*
X116340631Y-63588757D01*
X116473558Y-63462172D01*
X117173894Y-63462172D01*
X117279758Y-63660217D01*
X117520521Y-63784288D01*
X117780862Y-63859005D01*
X118050778Y-63881496D01*
X118319895Y-63850898D01*
X118577873Y-63768385D01*
X118780242Y-63660217D01*
X118886106Y-63462172D01*
X118030000Y-62606066D01*
X117173894Y-63462172D01*
X116473558Y-63462172D01*
X116535904Y-63402801D01*
X116691340Y-63182456D01*
X116757286Y-63034338D01*
X116761615Y-63047873D01*
X116869783Y-63250242D01*
X117067828Y-63356106D01*
X117923934Y-62500000D01*
X118136066Y-62500000D01*
X118992172Y-63356106D01*
X119190217Y-63250242D01*
X119314288Y-63009479D01*
X119389005Y-62749138D01*
X119391537Y-62718750D01*
X125725000Y-62718750D01*
X125725000Y-65126935D01*
X125739411Y-65199384D01*
X125767679Y-65267629D01*
X125808719Y-65329049D01*
X125860952Y-65381282D01*
X125922371Y-65422321D01*
X125990617Y-65450589D01*
X126063066Y-65465000D01*
X126831250Y-65465000D01*
X126925000Y-65371250D01*
X126925000Y-62625000D01*
X127075000Y-62625000D01*
X127075000Y-65371250D01*
X127168750Y-65465000D01*
X127936934Y-65465000D01*
X128009383Y-65450589D01*
X128077629Y-65422321D01*
X128139048Y-65381282D01*
X128191281Y-65329049D01*
X128232321Y-65267629D01*
X128260589Y-65199384D01*
X128275000Y-65126935D01*
X128275000Y-62718750D01*
X131725000Y-62718750D01*
X131725000Y-65126935D01*
X131739411Y-65199384D01*
X131767679Y-65267629D01*
X131808719Y-65329049D01*
X131860952Y-65381282D01*
X131922371Y-65422321D01*
X131990617Y-65450589D01*
X132063066Y-65465000D01*
X132831250Y-65465000D01*
X132925000Y-65371250D01*
X132925000Y-62625000D01*
X133075000Y-62625000D01*
X133075000Y-65371250D01*
X133168750Y-65465000D01*
X133936934Y-65465000D01*
X134009383Y-65450589D01*
X134077629Y-65422321D01*
X134139048Y-65381282D01*
X134191281Y-65329049D01*
X134232321Y-65267629D01*
X134260589Y-65199384D01*
X134275000Y-65126935D01*
X134275000Y-62718750D01*
X134181250Y-62625000D01*
X133075000Y-62625000D01*
X132925000Y-62625000D01*
X131818750Y-62625000D01*
X131725000Y-62718750D01*
X128275000Y-62718750D01*
X128181250Y-62625000D01*
X127075000Y-62625000D01*
X126925000Y-62625000D01*
X125818750Y-62625000D01*
X125725000Y-62718750D01*
X119391537Y-62718750D01*
X119411496Y-62479222D01*
X119380898Y-62210105D01*
X119298385Y-61952127D01*
X119190217Y-61749758D01*
X118992172Y-61643894D01*
X118136066Y-62500000D01*
X117923934Y-62500000D01*
X117067828Y-61643894D01*
X116869783Y-61749758D01*
X116757700Y-61967258D01*
X116709927Y-61851353D01*
X116560704Y-61626755D01*
X116370699Y-61435418D01*
X116147148Y-61284631D01*
X115898566Y-61180137D01*
X115634422Y-61125916D01*
X115503251Y-61125000D01*
X117952088Y-61125000D01*
X117740105Y-61149102D01*
X117482127Y-61231615D01*
X117279758Y-61339783D01*
X117173894Y-61537828D01*
X118030000Y-62393934D01*
X118886106Y-61537828D01*
X118780242Y-61339783D01*
X118539479Y-61215712D01*
X118279138Y-61140995D01*
X118087181Y-61125000D01*
X125725000Y-61125000D01*
X125725000Y-62381250D01*
X125818750Y-62475000D01*
X126925000Y-62475000D01*
X126925000Y-62455000D01*
X127075000Y-62455000D01*
X127075000Y-62475000D01*
X128181250Y-62475000D01*
X128275000Y-62381250D01*
X128275000Y-61125000D01*
X131725000Y-61125000D01*
X131725000Y-62381250D01*
X131818750Y-62475000D01*
X132925000Y-62475000D01*
X132925000Y-62455000D01*
X133075000Y-62455000D01*
X133075000Y-62475000D01*
X134181250Y-62475000D01*
X134275000Y-62381250D01*
X134275000Y-61125000D01*
X140977252Y-61125000D01*
X140940283Y-61127948D01*
X140838996Y-61159315D01*
X140750457Y-61217657D01*
X140681678Y-61298357D01*
X140638104Y-61395022D01*
X140623186Y-61500000D01*
X140623186Y-63500000D01*
X140627948Y-63559717D01*
X140659315Y-63661004D01*
X140717657Y-63749543D01*
X140798357Y-63818322D01*
X140895022Y-63861896D01*
X141000000Y-63876814D01*
X141425000Y-63876814D01*
X141425000Y-64400000D01*
X141430184Y-64452867D01*
X141434812Y-64505772D01*
X141435656Y-64508677D01*
X141435951Y-64511685D01*
X141451290Y-64562490D01*
X141466120Y-64613536D01*
X141467513Y-64616223D01*
X141468386Y-64619115D01*
X141493299Y-64665969D01*
X141517764Y-64713168D01*
X141519652Y-64715533D01*
X141521070Y-64718200D01*
X141554640Y-64759361D01*
X141587777Y-64800870D01*
X141591922Y-64805073D01*
X141591997Y-64805165D01*
X141592082Y-64805235D01*
X141593414Y-64806586D01*
X142343413Y-65556586D01*
X142384473Y-65590313D01*
X142425144Y-65624440D01*
X142427793Y-65625896D01*
X142430130Y-65627816D01*
X142476904Y-65652896D01*
X142523483Y-65678503D01*
X142526370Y-65679419D01*
X142529030Y-65680845D01*
X142579774Y-65696359D01*
X142630451Y-65712435D01*
X142633456Y-65712772D01*
X142636347Y-65713656D01*
X142689164Y-65719021D01*
X142741972Y-65724944D01*
X142747887Y-65724985D01*
X142747993Y-65724996D01*
X142748092Y-65724987D01*
X142750000Y-65725000D01*
X149761828Y-65725000D01*
X152025000Y-67988173D01*
X152025000Y-78611827D01*
X146162144Y-84474683D01*
X146129420Y-84474455D01*
X145980127Y-84502934D01*
X145839208Y-84559869D01*
X145712032Y-84643091D01*
X145603443Y-84749429D01*
X145517576Y-84874834D01*
X145457703Y-85014529D01*
X145426103Y-85163194D01*
X145423981Y-85315164D01*
X145451417Y-85464653D01*
X145507367Y-85605965D01*
X145589699Y-85733719D01*
X145625000Y-85770274D01*
X145625000Y-95219486D01*
X145591264Y-95229415D01*
X145310210Y-95376347D01*
X145063047Y-95575071D01*
X144859191Y-95818018D01*
X144706405Y-96095933D01*
X144610510Y-96398233D01*
X144575158Y-96713400D01*
X144575000Y-96736089D01*
X144575000Y-99263911D01*
X144605948Y-99579542D01*
X144697613Y-99883150D01*
X144846503Y-100163172D01*
X145046948Y-100408942D01*
X145291312Y-100611097D01*
X145570287Y-100761939D01*
X145873248Y-100855721D01*
X146188655Y-100888871D01*
X146504495Y-100860128D01*
X146808736Y-100770585D01*
X147089790Y-100623653D01*
X147336953Y-100424929D01*
X147540809Y-100181982D01*
X147693595Y-99904067D01*
X147789490Y-99601767D01*
X147824842Y-99286600D01*
X147825000Y-99263911D01*
X147825000Y-98075000D01*
X150675000Y-98075000D01*
X150675000Y-98825000D01*
X150720856Y-99140581D01*
X150827397Y-99441152D01*
X150990530Y-99715162D01*
X151203985Y-99952082D01*
X151459559Y-100142806D01*
X151747431Y-100280006D01*
X151971988Y-100341550D01*
X152225000Y-100279412D01*
X152225000Y-98075000D01*
X152375000Y-98075000D01*
X152375000Y-100279412D01*
X152628012Y-100341550D01*
X152852569Y-100280006D01*
X153140441Y-100142806D01*
X153396015Y-99952082D01*
X153609470Y-99715162D01*
X153772603Y-99441152D01*
X153879144Y-99140581D01*
X153925000Y-98825000D01*
X153925000Y-98075000D01*
X152375000Y-98075000D01*
X152225000Y-98075000D01*
X150675000Y-98075000D01*
X147825000Y-98075000D01*
X147825000Y-97175000D01*
X150675000Y-97175000D01*
X150675000Y-97925000D01*
X152225000Y-97925000D01*
X152225000Y-95720588D01*
X152375000Y-95720588D01*
X152375000Y-97925000D01*
X153925000Y-97925000D01*
X153925000Y-97175000D01*
X153879144Y-96859419D01*
X153772603Y-96558848D01*
X153609470Y-96284838D01*
X153396015Y-96047918D01*
X153140441Y-95857194D01*
X152852569Y-95719994D01*
X152628012Y-95658450D01*
X152375000Y-95720588D01*
X152225000Y-95720588D01*
X151971988Y-95658450D01*
X151747431Y-95719994D01*
X151459559Y-95857194D01*
X151203985Y-96047918D01*
X150990530Y-96284838D01*
X150827397Y-96558848D01*
X150720856Y-96859419D01*
X150675000Y-97175000D01*
X147825000Y-97175000D01*
X147825000Y-96736089D01*
X147794052Y-96420458D01*
X147702387Y-96116850D01*
X147553497Y-95836828D01*
X147353052Y-95591058D01*
X147108688Y-95388903D01*
X146829713Y-95238061D01*
X146775000Y-95221125D01*
X146775000Y-93788398D01*
X146819994Y-93952569D01*
X146957194Y-94240441D01*
X147147918Y-94496015D01*
X147384838Y-94709470D01*
X147658848Y-94872603D01*
X147959419Y-94979144D01*
X148275000Y-95025000D01*
X149025000Y-95025000D01*
X149025000Y-93475000D01*
X149175000Y-93475000D01*
X149175000Y-95025000D01*
X149925000Y-95025000D01*
X150240581Y-94979144D01*
X150541152Y-94872603D01*
X150815162Y-94709470D01*
X151052082Y-94496015D01*
X151242806Y-94240441D01*
X151380006Y-93952569D01*
X151441550Y-93728012D01*
X151379412Y-93475000D01*
X149175000Y-93475000D01*
X149025000Y-93475000D01*
X149005000Y-93475000D01*
X149005000Y-93325000D01*
X149025000Y-93325000D01*
X149025000Y-91775000D01*
X149175000Y-91775000D01*
X149175000Y-93325000D01*
X151379412Y-93325000D01*
X151441550Y-93071988D01*
X151380006Y-92847431D01*
X151242806Y-92559559D01*
X151052082Y-92303985D01*
X150815162Y-92090530D01*
X150541152Y-91927397D01*
X150240581Y-91820856D01*
X149925000Y-91775000D01*
X149175000Y-91775000D01*
X149025000Y-91775000D01*
X148275000Y-91775000D01*
X147959419Y-91820856D01*
X147658848Y-91927397D01*
X147384838Y-92090530D01*
X147147918Y-92303985D01*
X146957194Y-92559559D01*
X146819994Y-92847431D01*
X146775000Y-93011602D01*
X146775000Y-89649430D01*
X155422616Y-89649430D01*
X155422616Y-91150570D01*
X155427378Y-91210287D01*
X155458745Y-91311574D01*
X155517087Y-91400113D01*
X155597787Y-91468892D01*
X155694452Y-91512466D01*
X155799430Y-91527384D01*
X157300570Y-91527384D01*
X157360287Y-91522622D01*
X157461574Y-91491255D01*
X157550113Y-91432913D01*
X157618892Y-91352213D01*
X157662466Y-91255548D01*
X157677384Y-91150570D01*
X157677384Y-89649430D01*
X157672622Y-89589713D01*
X157641255Y-89488426D01*
X157582913Y-89399887D01*
X157502213Y-89331108D01*
X157405548Y-89287534D01*
X157300570Y-89272616D01*
X155799430Y-89272616D01*
X155739713Y-89277378D01*
X155638426Y-89308745D01*
X155549887Y-89367087D01*
X155481108Y-89447787D01*
X155437534Y-89544452D01*
X155422616Y-89649430D01*
X146775000Y-89649430D01*
X146775000Y-85772669D01*
X146789510Y-85758851D01*
X146877119Y-85634657D01*
X146938937Y-85495812D01*
X146972609Y-85347603D01*
X146973417Y-85289755D01*
X153006587Y-79256586D01*
X153040317Y-79215522D01*
X153074440Y-79174856D01*
X153075896Y-79172207D01*
X153077816Y-79169870D01*
X153102915Y-79123061D01*
X153128503Y-79076517D01*
X153129417Y-79073634D01*
X153130846Y-79070970D01*
X153146374Y-79020180D01*
X153162435Y-78969549D01*
X153162772Y-78966544D01*
X153163656Y-78963653D01*
X153169026Y-78910791D01*
X153174944Y-78858028D01*
X153174985Y-78852123D01*
X153174997Y-78852007D01*
X153174987Y-78851899D01*
X153175000Y-78850000D01*
X153175000Y-73468750D01*
X154924430Y-73468750D01*
X154924430Y-74087505D01*
X154938841Y-74159954D01*
X154967109Y-74228199D01*
X155008149Y-74289619D01*
X155060382Y-74341852D01*
X155121801Y-74382891D01*
X155190047Y-74411159D01*
X155262496Y-74425570D01*
X155881250Y-74425570D01*
X155975000Y-74331820D01*
X155975000Y-73375000D01*
X156125000Y-73375000D01*
X156125000Y-74331820D01*
X156218750Y-74425570D01*
X156837504Y-74425570D01*
X156909953Y-74411159D01*
X156978199Y-74382891D01*
X157039618Y-74341852D01*
X157091851Y-74289619D01*
X157132891Y-74228199D01*
X157161159Y-74159954D01*
X157175570Y-74087505D01*
X157175570Y-73468750D01*
X157081820Y-73375000D01*
X156125000Y-73375000D01*
X155975000Y-73375000D01*
X155018180Y-73375000D01*
X154924430Y-73468750D01*
X153175000Y-73468750D01*
X153175000Y-72512495D01*
X154924430Y-72512495D01*
X154924430Y-73131250D01*
X155018180Y-73225000D01*
X155975000Y-73225000D01*
X155975000Y-72268180D01*
X156125000Y-72268180D01*
X156125000Y-73225000D01*
X157081820Y-73225000D01*
X157175570Y-73131250D01*
X157175570Y-72512495D01*
X157161159Y-72440046D01*
X157132891Y-72371801D01*
X157091851Y-72310381D01*
X157039618Y-72258148D01*
X156978199Y-72217109D01*
X156909953Y-72188841D01*
X156837504Y-72174430D01*
X156218750Y-72174430D01*
X156125000Y-72268180D01*
X155975000Y-72268180D01*
X155881250Y-72174430D01*
X155262496Y-72174430D01*
X155190047Y-72188841D01*
X155121801Y-72217109D01*
X155060382Y-72258148D01*
X155008149Y-72310381D01*
X154967109Y-72371801D01*
X154938841Y-72440046D01*
X154924430Y-72512495D01*
X153175000Y-72512495D01*
X153175000Y-67750000D01*
X153169811Y-67697083D01*
X153165187Y-67644228D01*
X153164344Y-67641328D01*
X153164049Y-67638315D01*
X153148701Y-67587481D01*
X153133880Y-67536463D01*
X153132486Y-67533775D01*
X153131614Y-67530885D01*
X153106690Y-67484010D01*
X153082235Y-67436832D01*
X153080350Y-67434471D01*
X153078930Y-67431800D01*
X153045337Y-67390611D01*
X153012223Y-67349130D01*
X153008074Y-67344922D01*
X153008003Y-67344835D01*
X153007922Y-67344768D01*
X153006586Y-67343413D01*
X151359300Y-65696127D01*
X154409939Y-65696127D01*
X154639715Y-65999868D01*
X155056007Y-66226820D01*
X155508577Y-66368196D01*
X155980032Y-66418563D01*
X156452253Y-66375987D01*
X156907096Y-66242103D01*
X157327079Y-66022056D01*
X157360285Y-65999868D01*
X157590061Y-65696127D01*
X156000000Y-64106066D01*
X154409939Y-65696127D01*
X151359300Y-65696127D01*
X150406586Y-64743414D01*
X150365552Y-64709708D01*
X150324856Y-64675560D01*
X150322207Y-64674104D01*
X150319870Y-64672184D01*
X150273061Y-64647085D01*
X150226517Y-64621497D01*
X150223634Y-64620583D01*
X150220970Y-64619154D01*
X150170180Y-64603626D01*
X150119549Y-64587565D01*
X150116544Y-64587228D01*
X150113653Y-64586344D01*
X150060791Y-64580974D01*
X150008028Y-64575056D01*
X150002123Y-64575015D01*
X150002007Y-64575003D01*
X150001899Y-64575013D01*
X150000000Y-64575000D01*
X142988173Y-64575000D01*
X142575000Y-64161828D01*
X142575000Y-63980032D01*
X153581437Y-63980032D01*
X153624013Y-64452253D01*
X153757897Y-64907096D01*
X153977944Y-65327079D01*
X154000132Y-65360285D01*
X154303873Y-65590061D01*
X155893934Y-64000000D01*
X156106066Y-64000000D01*
X157696127Y-65590061D01*
X157999868Y-65360285D01*
X158226820Y-64943993D01*
X158368196Y-64491423D01*
X158418563Y-64019968D01*
X158375987Y-63547747D01*
X158242103Y-63092904D01*
X158022056Y-62672921D01*
X157999868Y-62639715D01*
X157696127Y-62409939D01*
X156106066Y-64000000D01*
X155893934Y-64000000D01*
X154303873Y-62409939D01*
X154000132Y-62639715D01*
X153773180Y-63056007D01*
X153631804Y-63508577D01*
X153581437Y-63980032D01*
X142575000Y-63980032D01*
X142575000Y-63876814D01*
X143000000Y-63876814D01*
X143059717Y-63872052D01*
X143161004Y-63840685D01*
X143249543Y-63782343D01*
X143318322Y-63701643D01*
X143361896Y-63604978D01*
X143376814Y-63500000D01*
X143376814Y-63462172D01*
X143683894Y-63462172D01*
X143789758Y-63660217D01*
X144030521Y-63784288D01*
X144290862Y-63859005D01*
X144560778Y-63881496D01*
X144829895Y-63850898D01*
X145087873Y-63768385D01*
X145290242Y-63660217D01*
X145396106Y-63462172D01*
X144540000Y-62606066D01*
X143683894Y-63462172D01*
X143376814Y-63462172D01*
X143376814Y-63244687D01*
X143379783Y-63250242D01*
X143577828Y-63356106D01*
X144433934Y-62500000D01*
X144646066Y-62500000D01*
X145502172Y-63356106D01*
X145700217Y-63250242D01*
X145824288Y-63009479D01*
X145899005Y-62749138D01*
X145921496Y-62479222D01*
X145901560Y-62303873D01*
X154409939Y-62303873D01*
X156000000Y-63893934D01*
X157590061Y-62303873D01*
X157360285Y-62000132D01*
X156943993Y-61773180D01*
X156491423Y-61631804D01*
X156019968Y-61581437D01*
X155547747Y-61624013D01*
X155092904Y-61757897D01*
X154672921Y-61977944D01*
X154639715Y-62000132D01*
X154409939Y-62303873D01*
X145901560Y-62303873D01*
X145890898Y-62210105D01*
X145808385Y-61952127D01*
X145700217Y-61749758D01*
X145502172Y-61643894D01*
X144646066Y-62500000D01*
X144433934Y-62500000D01*
X143577828Y-61643894D01*
X143379783Y-61749758D01*
X143376814Y-61755519D01*
X143376814Y-61500000D01*
X143372052Y-61440283D01*
X143340685Y-61338996D01*
X143282343Y-61250457D01*
X143201643Y-61181678D01*
X143104978Y-61138104D01*
X143012765Y-61125000D01*
X144462088Y-61125000D01*
X144250105Y-61149102D01*
X143992127Y-61231615D01*
X143789758Y-61339783D01*
X143683894Y-61537828D01*
X144540000Y-62393934D01*
X145396106Y-61537828D01*
X145290242Y-61339783D01*
X145049479Y-61215712D01*
X144789138Y-61140995D01*
X144597181Y-61125000D01*
X158875000Y-61125000D01*
X158875000Y-108875000D01*
X134275000Y-108875000D01*
X134275000Y-107696127D01*
X154409939Y-107696127D01*
X154639715Y-107999868D01*
X155056007Y-108226820D01*
X155508577Y-108368196D01*
X155980032Y-108418563D01*
X156452253Y-108375987D01*
X156907096Y-108242103D01*
X157327079Y-108022056D01*
X157360285Y-107999868D01*
X157590061Y-107696127D01*
X156000000Y-106106066D01*
X154409939Y-107696127D01*
X134275000Y-107696127D01*
X134275000Y-107628750D01*
X134181250Y-107535000D01*
X133075000Y-107535000D01*
X133075000Y-107555000D01*
X132925000Y-107555000D01*
X132925000Y-107535000D01*
X131818750Y-107535000D01*
X131725000Y-107628750D01*
X131725000Y-108875000D01*
X128275000Y-108875000D01*
X128275000Y-107628750D01*
X128181250Y-107535000D01*
X127075000Y-107535000D01*
X127075000Y-107555000D01*
X126925000Y-107555000D01*
X126925000Y-107535000D01*
X125818750Y-107535000D01*
X125725000Y-107628750D01*
X125725000Y-108875000D01*
X101125000Y-108875000D01*
X101125000Y-107696127D01*
X102409939Y-107696127D01*
X102639715Y-107999868D01*
X103056007Y-108226820D01*
X103508577Y-108368196D01*
X103980032Y-108418563D01*
X104452253Y-108375987D01*
X104907096Y-108242103D01*
X105327079Y-108022056D01*
X105360285Y-107999868D01*
X105590061Y-107696127D01*
X104000000Y-106106066D01*
X102409939Y-107696127D01*
X101125000Y-107696127D01*
X101125000Y-105980032D01*
X101581437Y-105980032D01*
X101624013Y-106452253D01*
X101757897Y-106907096D01*
X101977944Y-107327079D01*
X102000132Y-107360285D01*
X102303873Y-107590061D01*
X103893934Y-106000000D01*
X104106066Y-106000000D01*
X105696127Y-107590061D01*
X105999868Y-107360285D01*
X106226820Y-106943993D01*
X106368196Y-106491423D01*
X106418563Y-106019968D01*
X106375987Y-105547747D01*
X106242103Y-105092904D01*
X106132160Y-104883065D01*
X125725000Y-104883065D01*
X125725000Y-107291250D01*
X125818750Y-107385000D01*
X126925000Y-107385000D01*
X126925000Y-104638750D01*
X127075000Y-104638750D01*
X127075000Y-107385000D01*
X128181250Y-107385000D01*
X128275000Y-107291250D01*
X128275000Y-104883065D01*
X131725000Y-104883065D01*
X131725000Y-107291250D01*
X131818750Y-107385000D01*
X132925000Y-107385000D01*
X132925000Y-104638750D01*
X133075000Y-104638750D01*
X133075000Y-107385000D01*
X134181250Y-107385000D01*
X134275000Y-107291250D01*
X134275000Y-105980032D01*
X153581437Y-105980032D01*
X153624013Y-106452253D01*
X153757897Y-106907096D01*
X153977944Y-107327079D01*
X154000132Y-107360285D01*
X154303873Y-107590061D01*
X155893934Y-106000000D01*
X156106066Y-106000000D01*
X157696127Y-107590061D01*
X157999868Y-107360285D01*
X158226820Y-106943993D01*
X158368196Y-106491423D01*
X158418563Y-106019968D01*
X158375987Y-105547747D01*
X158242103Y-105092904D01*
X158022056Y-104672921D01*
X157999868Y-104639715D01*
X157696127Y-104409939D01*
X156106066Y-106000000D01*
X155893934Y-106000000D01*
X154303873Y-104409939D01*
X154000132Y-104639715D01*
X153773180Y-105056007D01*
X153631804Y-105508577D01*
X153581437Y-105980032D01*
X134275000Y-105980032D01*
X134275000Y-104883065D01*
X134260589Y-104810616D01*
X134232321Y-104742371D01*
X134191281Y-104680951D01*
X134139048Y-104628718D01*
X134077629Y-104587679D01*
X134009383Y-104559411D01*
X133936934Y-104545000D01*
X133168750Y-104545000D01*
X133075000Y-104638750D01*
X132925000Y-104638750D01*
X132831250Y-104545000D01*
X132063066Y-104545000D01*
X131990617Y-104559411D01*
X131922371Y-104587679D01*
X131860952Y-104628718D01*
X131808719Y-104680951D01*
X131767679Y-104742371D01*
X131739411Y-104810616D01*
X131725000Y-104883065D01*
X128275000Y-104883065D01*
X128260589Y-104810616D01*
X128232321Y-104742371D01*
X128191281Y-104680951D01*
X128139048Y-104628718D01*
X128077629Y-104587679D01*
X128009383Y-104559411D01*
X127936934Y-104545000D01*
X127168750Y-104545000D01*
X127075000Y-104638750D01*
X126925000Y-104638750D01*
X126831250Y-104545000D01*
X126063066Y-104545000D01*
X125990617Y-104559411D01*
X125922371Y-104587679D01*
X125860952Y-104628718D01*
X125808719Y-104680951D01*
X125767679Y-104742371D01*
X125739411Y-104810616D01*
X125725000Y-104883065D01*
X106132160Y-104883065D01*
X106022056Y-104672921D01*
X105999868Y-104639715D01*
X105696127Y-104409939D01*
X104106066Y-106000000D01*
X103893934Y-106000000D01*
X102303873Y-104409939D01*
X102000132Y-104639715D01*
X101773180Y-105056007D01*
X101631804Y-105508577D01*
X101581437Y-105980032D01*
X101125000Y-105980032D01*
X101125000Y-104303873D01*
X102409939Y-104303873D01*
X104000000Y-105893934D01*
X105590061Y-104303873D01*
X154409939Y-104303873D01*
X156000000Y-105893934D01*
X157590061Y-104303873D01*
X157360285Y-104000132D01*
X156943993Y-103773180D01*
X156491423Y-103631804D01*
X156019968Y-103581437D01*
X155547747Y-103624013D01*
X155092904Y-103757897D01*
X154672921Y-103977944D01*
X154639715Y-104000132D01*
X154409939Y-104303873D01*
X105590061Y-104303873D01*
X105360285Y-104000132D01*
X104943993Y-103773180D01*
X104491423Y-103631804D01*
X104019968Y-103581437D01*
X103547747Y-103624013D01*
X103092904Y-103757897D01*
X102672921Y-103977944D01*
X102639715Y-104000132D01*
X102409939Y-104303873D01*
X101125000Y-104303873D01*
X101125000Y-97749430D01*
X102322616Y-97749430D01*
X102322616Y-99250570D01*
X102327378Y-99310287D01*
X102358745Y-99411574D01*
X102417087Y-99500113D01*
X102497787Y-99568892D01*
X102594452Y-99612466D01*
X102699430Y-99627384D01*
X104200570Y-99627384D01*
X104260287Y-99622622D01*
X104361574Y-99591255D01*
X104450113Y-99532913D01*
X104518892Y-99452213D01*
X104562466Y-99355548D01*
X104577384Y-99250570D01*
X104577384Y-99000000D01*
X109542894Y-99000000D01*
X111030638Y-100487745D01*
X111046305Y-100573107D01*
X111091425Y-100687068D01*
X111157822Y-100790096D01*
X111242965Y-100878264D01*
X111343612Y-100948216D01*
X111455930Y-100997286D01*
X111575639Y-101023606D01*
X111698181Y-101026173D01*
X111818888Y-101004889D01*
X111933162Y-100960565D01*
X112036650Y-100894890D01*
X112125411Y-100810364D01*
X112196064Y-100710207D01*
X112245917Y-100598235D01*
X112271507Y-100485599D01*
X118003553Y-94753554D01*
X118032853Y-94717884D01*
X118062557Y-94682484D01*
X118063825Y-94680177D01*
X118065492Y-94678148D01*
X118087299Y-94637479D01*
X118109568Y-94596971D01*
X118110363Y-94594464D01*
X118111605Y-94592148D01*
X118125107Y-94547985D01*
X118139074Y-94503956D01*
X118139367Y-94501345D01*
X118140136Y-94498829D01*
X118144801Y-94452897D01*
X118149951Y-94406981D01*
X118149987Y-94401832D01*
X118149996Y-94401745D01*
X118149988Y-94401664D01*
X118150000Y-94400000D01*
X118150000Y-93725507D01*
X118196064Y-93660207D01*
X118245917Y-93548235D01*
X118273072Y-93428712D01*
X118275027Y-93288716D01*
X118251220Y-93168481D01*
X118204512Y-93055161D01*
X118136684Y-92953070D01*
X118050318Y-92866099D01*
X117948703Y-92797560D01*
X117835712Y-92750062D01*
X117715646Y-92725416D01*
X117593081Y-92724561D01*
X117472683Y-92747528D01*
X117359039Y-92793443D01*
X117256478Y-92860557D01*
X117168906Y-92946314D01*
X117099658Y-93047447D01*
X117051373Y-93160104D01*
X117025890Y-93279995D01*
X117024179Y-93402552D01*
X117046305Y-93523107D01*
X117091425Y-93637068D01*
X117150000Y-93727959D01*
X117150000Y-94192893D01*
X111650000Y-99692894D01*
X110103553Y-98146447D01*
X110067908Y-98117168D01*
X110032484Y-98087443D01*
X110030177Y-98086175D01*
X110028148Y-98084508D01*
X109987479Y-98062701D01*
X109946971Y-98040432D01*
X109944464Y-98039637D01*
X109942148Y-98038395D01*
X109897985Y-98024893D01*
X109853956Y-98010926D01*
X109851345Y-98010633D01*
X109848829Y-98009864D01*
X109802853Y-98005194D01*
X109756981Y-98000049D01*
X109751843Y-98000013D01*
X109751745Y-98000003D01*
X109751654Y-98000012D01*
X109750000Y-98000000D01*
X104577384Y-98000000D01*
X104577384Y-97749430D01*
X104572622Y-97689713D01*
X104541255Y-97588426D01*
X104482913Y-97499887D01*
X104402213Y-97431108D01*
X104305548Y-97387534D01*
X104200570Y-97372616D01*
X102699430Y-97372616D01*
X102639713Y-97377378D01*
X102538426Y-97408745D01*
X102449887Y-97467087D01*
X102381108Y-97547787D01*
X102337534Y-97644452D01*
X102322616Y-97749430D01*
X101125000Y-97749430D01*
X101125000Y-95002552D01*
X101174179Y-95002552D01*
X101196305Y-95123107D01*
X101241425Y-95237068D01*
X101307822Y-95340096D01*
X101392965Y-95428264D01*
X101493612Y-95498216D01*
X101605930Y-95547286D01*
X101725639Y-95573606D01*
X101848181Y-95576173D01*
X101968888Y-95554889D01*
X102083162Y-95510565D01*
X102186650Y-95444890D01*
X102275411Y-95360364D01*
X102346064Y-95260207D01*
X102395917Y-95148235D01*
X102421507Y-95035599D01*
X105457107Y-92000000D01*
X116650000Y-92000000D01*
X116695944Y-91995495D01*
X116741976Y-91991468D01*
X116744501Y-91990735D01*
X116747117Y-91990478D01*
X116791323Y-91977131D01*
X116835684Y-91964243D01*
X116838019Y-91963033D01*
X116840535Y-91962273D01*
X116881285Y-91940606D01*
X116922320Y-91919336D01*
X116924376Y-91917694D01*
X116926696Y-91916461D01*
X116962485Y-91887272D01*
X116998582Y-91858455D01*
X117002240Y-91854848D01*
X117002317Y-91854785D01*
X117002376Y-91854714D01*
X117003553Y-91853553D01*
X117903553Y-90953554D01*
X117932853Y-90917884D01*
X117962557Y-90882484D01*
X117963825Y-90880177D01*
X117965492Y-90878148D01*
X117987299Y-90837479D01*
X118009568Y-90796971D01*
X118010363Y-90794464D01*
X118011605Y-90792148D01*
X118025107Y-90747985D01*
X118039074Y-90703956D01*
X118039367Y-90701345D01*
X118040136Y-90698829D01*
X118044801Y-90652897D01*
X118049951Y-90606981D01*
X118049987Y-90601832D01*
X118049996Y-90601745D01*
X118049988Y-90601664D01*
X118050000Y-90600000D01*
X118050000Y-90025507D01*
X118096064Y-89960207D01*
X118145917Y-89848235D01*
X118173072Y-89728712D01*
X118175027Y-89588716D01*
X118151220Y-89468481D01*
X118104512Y-89355161D01*
X118036684Y-89253070D01*
X117950318Y-89166099D01*
X117848703Y-89097560D01*
X117735712Y-89050062D01*
X117615646Y-89025416D01*
X117493081Y-89024561D01*
X117372683Y-89047528D01*
X117259039Y-89093443D01*
X117156478Y-89160557D01*
X117068906Y-89246314D01*
X116999658Y-89347447D01*
X116951373Y-89460104D01*
X116925890Y-89579995D01*
X116924179Y-89702552D01*
X116946305Y-89823107D01*
X116991425Y-89937068D01*
X117050000Y-90027959D01*
X117050000Y-90392893D01*
X116442894Y-91000000D01*
X105250000Y-91000000D01*
X105204048Y-91004505D01*
X105158025Y-91008532D01*
X105155501Y-91009265D01*
X105152883Y-91009522D01*
X105108665Y-91022873D01*
X105064316Y-91035757D01*
X105061981Y-91036967D01*
X105059465Y-91037727D01*
X105018694Y-91059405D01*
X104977681Y-91080664D01*
X104975626Y-91082304D01*
X104973304Y-91083539D01*
X104937494Y-91112746D01*
X104901418Y-91141545D01*
X104897756Y-91145156D01*
X104897683Y-91145215D01*
X104897627Y-91145282D01*
X104896447Y-91146446D01*
X101712499Y-94330395D01*
X101622683Y-94347528D01*
X101509039Y-94393443D01*
X101406478Y-94460557D01*
X101318906Y-94546314D01*
X101249658Y-94647447D01*
X101201373Y-94760104D01*
X101175890Y-94879995D01*
X101174179Y-95002552D01*
X101125000Y-95002552D01*
X101125000Y-86565164D01*
X108673981Y-86565164D01*
X108701417Y-86714653D01*
X108757367Y-86855965D01*
X108839699Y-86983719D01*
X108945277Y-87093048D01*
X109070079Y-87179788D01*
X109209353Y-87240635D01*
X109357793Y-87273272D01*
X109509745Y-87276455D01*
X109659421Y-87250063D01*
X109801121Y-87195101D01*
X109929446Y-87113663D01*
X109970046Y-87075000D01*
X122227848Y-87075000D01*
X122245277Y-87093048D01*
X122370079Y-87179788D01*
X122509353Y-87240635D01*
X122657793Y-87273272D01*
X122809745Y-87276455D01*
X122959421Y-87250063D01*
X123101121Y-87195101D01*
X123229446Y-87113663D01*
X123339510Y-87008851D01*
X123427119Y-86884657D01*
X123488937Y-86745812D01*
X123522609Y-86597603D01*
X123525033Y-86424007D01*
X123495513Y-86274916D01*
X123437595Y-86134399D01*
X123353488Y-86007807D01*
X123246394Y-85899963D01*
X123120392Y-85814974D01*
X122980283Y-85756077D01*
X122831402Y-85725516D01*
X122679420Y-85724455D01*
X122530127Y-85752934D01*
X122389208Y-85809869D01*
X122262032Y-85893091D01*
X122229448Y-85925000D01*
X109971257Y-85925000D01*
X109946394Y-85899963D01*
X109820392Y-85814974D01*
X109680283Y-85756077D01*
X109531402Y-85725516D01*
X109379420Y-85724455D01*
X109230127Y-85752934D01*
X109089208Y-85809869D01*
X108962032Y-85893091D01*
X108853443Y-85999429D01*
X108767576Y-86124834D01*
X108707703Y-86264529D01*
X108676103Y-86413194D01*
X108673981Y-86565164D01*
X101125000Y-86565164D01*
X101125000Y-65696127D01*
X102409939Y-65696127D01*
X102639715Y-65999868D01*
X103056007Y-66226820D01*
X103508577Y-66368196D01*
X103980032Y-66418563D01*
X104452253Y-66375987D01*
X104907096Y-66242103D01*
X105327079Y-66022056D01*
X105360285Y-65999868D01*
X105590061Y-65696127D01*
X104000000Y-64106066D01*
X102409939Y-65696127D01*
X101125000Y-65696127D01*
X101125000Y-63980032D01*
X101581437Y-63980032D01*
X101624013Y-64452253D01*
X101757897Y-64907096D01*
X101977944Y-65327079D01*
X102000132Y-65360285D01*
X102303873Y-65590061D01*
X103893934Y-64000000D01*
X104106066Y-64000000D01*
X105696127Y-65590061D01*
X105999868Y-65360285D01*
X106226820Y-64943993D01*
X106368196Y-64491423D01*
X106418563Y-64019968D01*
X106375987Y-63547747D01*
X106242103Y-63092904D01*
X106022056Y-62672921D01*
X105999868Y-62639715D01*
X105696127Y-62409939D01*
X104106066Y-64000000D01*
X103893934Y-64000000D01*
X102303873Y-62409939D01*
X102000132Y-62639715D01*
X101773180Y-63056007D01*
X101631804Y-63508577D01*
X101581437Y-63980032D01*
X101125000Y-63980032D01*
X101125000Y-62303873D01*
X102409939Y-62303873D01*
X104000000Y-63893934D01*
X105590061Y-62303873D01*
X105360285Y-62000132D01*
X104943993Y-61773180D01*
X104491423Y-61631804D01*
X104019968Y-61581437D01*
X103547747Y-61624013D01*
X103092904Y-61757897D01*
X102672921Y-61977944D01*
X102639715Y-62000132D01*
X102409939Y-62303873D01*
X101125000Y-62303873D01*
X101125000Y-61125000D01*
X109444537Y-61125000D01*
X109385396Y-61143315D01*
M02*
