M48
INCH,TZ
T1C0.008
T2C0.016
T3C0.024
T4C0.031
T5C0.032
T6C0.039
T7C0.040
T8C0.120
%
G90
G05
T1
X49803Y-24248
X49803Y-25035
X49803Y-41929
X49803Y-42717
X50000Y-23854
X50000Y-24642
X50000Y-25429
X50000Y-41535
X50000Y-42323
X50000Y-43110
X50197Y-24248
X50197Y-25035
X50197Y-41929
X50197Y-42717
X52165Y-24248
X52165Y-25035
X52165Y-41929
X52165Y-42717
X52362Y-23854
X52362Y-24642
X52362Y-25429
X52362Y-41535
X52362Y-42323
X52362Y-43110
X52559Y-24248
X52559Y-25035
X52559Y-41929
X52559Y-42717
T2
X40079Y-37382
X43957Y-39528
X46063Y-29035
X46063Y-30020
X46280Y-35295
X46319Y-36752
X46850Y-29035
X46850Y-30020
X47638Y-29035
X47638Y-30020
X48465Y-28543
X48543Y-30020
X49094Y-27913
X49094Y-34941
X49094Y-35531
X49232Y-29331
X49685Y-27323
X49902Y-28661
X50177Y-26831
X50531Y-28031
X50689Y-26299
X51260Y-27303
X51673Y-26299
X53740Y-31299
X53740Y-32067
X53740Y-32874
X53858Y-30492
X54626Y-29724
X54921Y-31299
X54921Y-32087
X54921Y-32874
X55433Y-28996
X55531Y-34035
X55571Y-30650
X56280Y-30039
X56299Y-28996
T3
X43091Y-34055
X48012Y-37520
X48327Y-34055
X55138Y-34783
X57559Y-33563
T4
X53386Y-37264
X54350Y-37264
X55315Y-37264
T5
X40728Y-38780
X61437Y-28858
X61634Y-35591
T6
X44469Y-24606
X45276Y-28528
X45276Y-29528
X45276Y-30528
X45469Y-24606
X46469Y-24606
X55906Y-24606
X56906Y-24606
X57087Y-28528
X57087Y-29528
X57087Y-30528
T7
X43469Y-24606
T8
X40945Y-25197
X40945Y-41732
X61417Y-25197
X61417Y-41732
T6
X57559Y-39075G85X57559Y-38091
G05
X58406Y-36772G85X58996Y-36772
G05
X59961Y-38878G85X59961Y-38287
G05
T0
M30
