G04 #@! TF.FileFunction,Legend,Top*
%FSLAX46Y46*%
G04 Gerber Fmt 4.6, Leading zero omitted, Abs format (unit mm)*
G04 Created by KiCad (PCBNEW 0.201510291901+6286~30~ubuntu14.04.1-product) date Mon 02 Nov 2015 07:58:44 AM PST*
%MOMM*%
G01*
G04 APERTURE LIST*
%ADD10C,0.100000*%
%ADD11C,0.200000*%
%ADD12C,0.150000*%
%ADD13C,0.300000*%
%ADD14C,0.250000*%
%ADD15C,0.119380*%
%ADD16C,0.381000*%
%ADD17C,0.127000*%
%ADD18C,0.002540*%
%ADD19C,0.400000*%
%ADD20C,0.129540*%
G04 APERTURE END LIST*
D10*
D11*
X135619048Y-108235714D02*
X135523810Y-108292857D01*
X135333333Y-108292857D01*
X135238095Y-108235714D01*
X135190476Y-108121429D01*
X135190476Y-107664286D01*
X135238095Y-107550000D01*
X135333333Y-107492857D01*
X135523810Y-107492857D01*
X135619048Y-107550000D01*
X135666667Y-107664286D01*
X135666667Y-107778571D01*
X135190476Y-107892857D01*
X135952381Y-107492857D02*
X136333333Y-107492857D01*
X136095238Y-107092857D02*
X136095238Y-108121429D01*
X136142857Y-108235714D01*
X136238095Y-108292857D01*
X136333333Y-108292857D01*
X136666667Y-108292857D02*
X136666667Y-107092857D01*
X137095239Y-108292857D02*
X137095239Y-107664286D01*
X137047620Y-107550000D01*
X136952382Y-107492857D01*
X136809524Y-107492857D01*
X136714286Y-107550000D01*
X136666667Y-107607143D01*
X137952382Y-108235714D02*
X137857144Y-108292857D01*
X137666667Y-108292857D01*
X137571429Y-108235714D01*
X137523810Y-108121429D01*
X137523810Y-107664286D01*
X137571429Y-107550000D01*
X137666667Y-107492857D01*
X137857144Y-107492857D01*
X137952382Y-107550000D01*
X138000001Y-107664286D01*
X138000001Y-107778571D01*
X137523810Y-107892857D01*
X138428572Y-108292857D02*
X138428572Y-107492857D01*
X138428572Y-107721429D02*
X138476191Y-107607143D01*
X138523810Y-107550000D01*
X138619048Y-107492857D01*
X138714287Y-107492857D01*
X139047620Y-108292857D02*
X139047620Y-107092857D01*
X139142858Y-107835714D02*
X139428573Y-108292857D01*
X139428573Y-107492857D02*
X139047620Y-107950000D01*
X139857144Y-108292857D02*
X139857144Y-107492857D01*
X139857144Y-107092857D02*
X139809525Y-107150000D01*
X139857144Y-107207143D01*
X139904763Y-107150000D01*
X139857144Y-107092857D01*
X139857144Y-107207143D01*
X140190477Y-107492857D02*
X140571429Y-107492857D01*
X140333334Y-107092857D02*
X140333334Y-108121429D01*
X140380953Y-108235714D01*
X140476191Y-108292857D01*
X140571429Y-108292857D01*
X140904763Y-108178571D02*
X140952382Y-108235714D01*
X140904763Y-108292857D01*
X140857144Y-108235714D01*
X140904763Y-108178571D01*
X140904763Y-108292857D01*
X141809525Y-108235714D02*
X141714287Y-108292857D01*
X141523810Y-108292857D01*
X141428572Y-108235714D01*
X141380953Y-108178571D01*
X141333334Y-108064286D01*
X141333334Y-107721429D01*
X141380953Y-107607143D01*
X141428572Y-107550000D01*
X141523810Y-107492857D01*
X141714287Y-107492857D01*
X141809525Y-107550000D01*
X142380953Y-108292857D02*
X142285715Y-108235714D01*
X142238096Y-108178571D01*
X142190477Y-108064286D01*
X142190477Y-107721429D01*
X142238096Y-107607143D01*
X142285715Y-107550000D01*
X142380953Y-107492857D01*
X142523811Y-107492857D01*
X142619049Y-107550000D01*
X142666668Y-107607143D01*
X142714287Y-107721429D01*
X142714287Y-108064286D01*
X142666668Y-108178571D01*
X142619049Y-108235714D01*
X142523811Y-108292857D01*
X142380953Y-108292857D01*
X143142858Y-108292857D02*
X143142858Y-107492857D01*
X143142858Y-107607143D02*
X143190477Y-107550000D01*
X143285715Y-107492857D01*
X143428573Y-107492857D01*
X143523811Y-107550000D01*
X143571430Y-107664286D01*
X143571430Y-108292857D01*
X143571430Y-107664286D02*
X143619049Y-107550000D01*
X143714287Y-107492857D01*
X143857144Y-107492857D01*
X143952382Y-107550000D01*
X144000001Y-107664286D01*
X144000001Y-108292857D01*
X145190477Y-107207143D02*
X145238096Y-107150000D01*
X145333334Y-107092857D01*
X145571430Y-107092857D01*
X145666668Y-107150000D01*
X145714287Y-107207143D01*
X145761906Y-107321429D01*
X145761906Y-107435714D01*
X145714287Y-107607143D01*
X145142858Y-108292857D01*
X145761906Y-108292857D01*
X146380953Y-107092857D02*
X146476192Y-107092857D01*
X146571430Y-107150000D01*
X146619049Y-107207143D01*
X146666668Y-107321429D01*
X146714287Y-107550000D01*
X146714287Y-107835714D01*
X146666668Y-108064286D01*
X146619049Y-108178571D01*
X146571430Y-108235714D01*
X146476192Y-108292857D01*
X146380953Y-108292857D01*
X146285715Y-108235714D01*
X146238096Y-108178571D01*
X146190477Y-108064286D01*
X146142858Y-107835714D01*
X146142858Y-107550000D01*
X146190477Y-107321429D01*
X146238096Y-107207143D01*
X146285715Y-107150000D01*
X146380953Y-107092857D01*
X147666668Y-108292857D02*
X147095239Y-108292857D01*
X147380953Y-108292857D02*
X147380953Y-107092857D01*
X147285715Y-107264286D01*
X147190477Y-107378571D01*
X147095239Y-107435714D01*
X148571430Y-107092857D02*
X148095239Y-107092857D01*
X148047620Y-107664286D01*
X148095239Y-107607143D01*
X148190477Y-107550000D01*
X148428573Y-107550000D01*
X148523811Y-107607143D01*
X148571430Y-107664286D01*
X148619049Y-107778571D01*
X148619049Y-108064286D01*
X148571430Y-108178571D01*
X148523811Y-108235714D01*
X148428573Y-108292857D01*
X148190477Y-108292857D01*
X148095239Y-108235714D01*
X148047620Y-108178571D01*
D12*
X107585714Y-106065714D02*
X107557143Y-106103810D01*
X107471429Y-106141905D01*
X107414286Y-106141905D01*
X107328571Y-106103810D01*
X107271429Y-106027619D01*
X107242857Y-105951429D01*
X107214286Y-105799048D01*
X107214286Y-105684762D01*
X107242857Y-105532381D01*
X107271429Y-105456190D01*
X107328571Y-105380000D01*
X107414286Y-105341905D01*
X107471429Y-105341905D01*
X107557143Y-105380000D01*
X107585714Y-105418095D01*
X107842857Y-106141905D02*
X107842857Y-105608571D01*
X107842857Y-105760952D02*
X107871429Y-105684762D01*
X107900000Y-105646667D01*
X107957143Y-105608571D01*
X108014286Y-105608571D01*
X108442858Y-106103810D02*
X108385715Y-106141905D01*
X108271429Y-106141905D01*
X108214286Y-106103810D01*
X108185715Y-106027619D01*
X108185715Y-105722857D01*
X108214286Y-105646667D01*
X108271429Y-105608571D01*
X108385715Y-105608571D01*
X108442858Y-105646667D01*
X108471429Y-105722857D01*
X108471429Y-105799048D01*
X108185715Y-105875238D01*
X108985715Y-106141905D02*
X108985715Y-105722857D01*
X108957144Y-105646667D01*
X108900001Y-105608571D01*
X108785715Y-105608571D01*
X108728572Y-105646667D01*
X108985715Y-106103810D02*
X108928572Y-106141905D01*
X108785715Y-106141905D01*
X108728572Y-106103810D01*
X108700001Y-106027619D01*
X108700001Y-105951429D01*
X108728572Y-105875238D01*
X108785715Y-105837143D01*
X108928572Y-105837143D01*
X108985715Y-105799048D01*
X109185715Y-105608571D02*
X109414286Y-105608571D01*
X109271429Y-105341905D02*
X109271429Y-106027619D01*
X109300001Y-106103810D01*
X109357143Y-106141905D01*
X109414286Y-106141905D01*
X109614286Y-106141905D02*
X109614286Y-105608571D01*
X109614286Y-105341905D02*
X109585715Y-105380000D01*
X109614286Y-105418095D01*
X109642858Y-105380000D01*
X109614286Y-105341905D01*
X109614286Y-105418095D01*
X109842857Y-105608571D02*
X109985714Y-106141905D01*
X110128572Y-105608571D01*
X110585715Y-106103810D02*
X110528572Y-106141905D01*
X110414286Y-106141905D01*
X110357143Y-106103810D01*
X110328572Y-106027619D01*
X110328572Y-105722857D01*
X110357143Y-105646667D01*
X110414286Y-105608571D01*
X110528572Y-105608571D01*
X110585715Y-105646667D01*
X110614286Y-105722857D01*
X110614286Y-105799048D01*
X110328572Y-105875238D01*
X111671429Y-106065714D02*
X111642858Y-106103810D01*
X111557144Y-106141905D01*
X111500001Y-106141905D01*
X111414286Y-106103810D01*
X111357144Y-106027619D01*
X111328572Y-105951429D01*
X111300001Y-105799048D01*
X111300001Y-105684762D01*
X111328572Y-105532381D01*
X111357144Y-105456190D01*
X111414286Y-105380000D01*
X111500001Y-105341905D01*
X111557144Y-105341905D01*
X111642858Y-105380000D01*
X111671429Y-105418095D01*
X112014286Y-106141905D02*
X111957144Y-106103810D01*
X111928572Y-106065714D01*
X111900001Y-105989524D01*
X111900001Y-105760952D01*
X111928572Y-105684762D01*
X111957144Y-105646667D01*
X112014286Y-105608571D01*
X112100001Y-105608571D01*
X112157144Y-105646667D01*
X112185715Y-105684762D01*
X112214286Y-105760952D01*
X112214286Y-105989524D01*
X112185715Y-106065714D01*
X112157144Y-106103810D01*
X112100001Y-106141905D01*
X112014286Y-106141905D01*
X112471429Y-106141905D02*
X112471429Y-105608571D01*
X112471429Y-105684762D02*
X112500001Y-105646667D01*
X112557143Y-105608571D01*
X112642858Y-105608571D01*
X112700001Y-105646667D01*
X112728572Y-105722857D01*
X112728572Y-106141905D01*
X112728572Y-105722857D02*
X112757143Y-105646667D01*
X112814286Y-105608571D01*
X112900001Y-105608571D01*
X112957143Y-105646667D01*
X112985715Y-105722857D01*
X112985715Y-106141905D01*
X113271429Y-106141905D02*
X113271429Y-105608571D01*
X113271429Y-105684762D02*
X113300001Y-105646667D01*
X113357143Y-105608571D01*
X113442858Y-105608571D01*
X113500001Y-105646667D01*
X113528572Y-105722857D01*
X113528572Y-106141905D01*
X113528572Y-105722857D02*
X113557143Y-105646667D01*
X113614286Y-105608571D01*
X113700001Y-105608571D01*
X113757143Y-105646667D01*
X113785715Y-105722857D01*
X113785715Y-106141905D01*
X114157143Y-106141905D02*
X114100001Y-106103810D01*
X114071429Y-106065714D01*
X114042858Y-105989524D01*
X114042858Y-105760952D01*
X114071429Y-105684762D01*
X114100001Y-105646667D01*
X114157143Y-105608571D01*
X114242858Y-105608571D01*
X114300001Y-105646667D01*
X114328572Y-105684762D01*
X114357143Y-105760952D01*
X114357143Y-105989524D01*
X114328572Y-106065714D01*
X114300001Y-106103810D01*
X114242858Y-106141905D01*
X114157143Y-106141905D01*
X114614286Y-105608571D02*
X114614286Y-106141905D01*
X114614286Y-105684762D02*
X114642858Y-105646667D01*
X114700000Y-105608571D01*
X114785715Y-105608571D01*
X114842858Y-105646667D01*
X114871429Y-105722857D01*
X114871429Y-106141905D01*
X115128572Y-106103810D02*
X115185715Y-106141905D01*
X115300000Y-106141905D01*
X115357143Y-106103810D01*
X115385715Y-106027619D01*
X115385715Y-105989524D01*
X115357143Y-105913333D01*
X115300000Y-105875238D01*
X115214286Y-105875238D01*
X115157143Y-105837143D01*
X115128572Y-105760952D01*
X115128572Y-105722857D01*
X115157143Y-105646667D01*
X115214286Y-105608571D01*
X115300000Y-105608571D01*
X115357143Y-105646667D01*
X107528571Y-107411905D02*
X107242857Y-107411905D01*
X107242857Y-106611905D01*
X107728571Y-107411905D02*
X107728571Y-106878571D01*
X107728571Y-106611905D02*
X107700000Y-106650000D01*
X107728571Y-106688095D01*
X107757143Y-106650000D01*
X107728571Y-106611905D01*
X107728571Y-106688095D01*
X108271428Y-107373810D02*
X108214285Y-107411905D01*
X108099999Y-107411905D01*
X108042857Y-107373810D01*
X108014285Y-107335714D01*
X107985714Y-107259524D01*
X107985714Y-107030952D01*
X108014285Y-106954762D01*
X108042857Y-106916667D01*
X108099999Y-106878571D01*
X108214285Y-106878571D01*
X108271428Y-106916667D01*
X108757143Y-107373810D02*
X108700000Y-107411905D01*
X108585714Y-107411905D01*
X108528571Y-107373810D01*
X108500000Y-107297619D01*
X108500000Y-106992857D01*
X108528571Y-106916667D01*
X108585714Y-106878571D01*
X108700000Y-106878571D01*
X108757143Y-106916667D01*
X108785714Y-106992857D01*
X108785714Y-107069048D01*
X108500000Y-107145238D01*
X109042857Y-106878571D02*
X109042857Y-107411905D01*
X109042857Y-106954762D02*
X109071429Y-106916667D01*
X109128571Y-106878571D01*
X109214286Y-106878571D01*
X109271429Y-106916667D01*
X109300000Y-106992857D01*
X109300000Y-107411905D01*
X109557143Y-107373810D02*
X109614286Y-107411905D01*
X109728571Y-107411905D01*
X109785714Y-107373810D01*
X109814286Y-107297619D01*
X109814286Y-107259524D01*
X109785714Y-107183333D01*
X109728571Y-107145238D01*
X109642857Y-107145238D01*
X109585714Y-107107143D01*
X109557143Y-107030952D01*
X109557143Y-106992857D01*
X109585714Y-106916667D01*
X109642857Y-106878571D01*
X109728571Y-106878571D01*
X109785714Y-106916667D01*
X110300000Y-107373810D02*
X110242857Y-107411905D01*
X110128571Y-107411905D01*
X110071428Y-107373810D01*
X110042857Y-107297619D01*
X110042857Y-106992857D01*
X110071428Y-106916667D01*
X110128571Y-106878571D01*
X110242857Y-106878571D01*
X110300000Y-106916667D01*
X110328571Y-106992857D01*
X110328571Y-107069048D01*
X110042857Y-107145238D01*
X107585714Y-108605714D02*
X107557143Y-108643810D01*
X107471429Y-108681905D01*
X107414286Y-108681905D01*
X107328571Y-108643810D01*
X107271429Y-108567619D01*
X107242857Y-108491429D01*
X107214286Y-108339048D01*
X107214286Y-108224762D01*
X107242857Y-108072381D01*
X107271429Y-107996190D01*
X107328571Y-107920000D01*
X107414286Y-107881905D01*
X107471429Y-107881905D01*
X107557143Y-107920000D01*
X107585714Y-107958095D01*
X108185714Y-108605714D02*
X108157143Y-108643810D01*
X108071429Y-108681905D01*
X108014286Y-108681905D01*
X107928571Y-108643810D01*
X107871429Y-108567619D01*
X107842857Y-108491429D01*
X107814286Y-108339048D01*
X107814286Y-108224762D01*
X107842857Y-108072381D01*
X107871429Y-107996190D01*
X107928571Y-107920000D01*
X108014286Y-107881905D01*
X108071429Y-107881905D01*
X108157143Y-107920000D01*
X108185714Y-107958095D01*
X108442857Y-108377143D02*
X108900000Y-108377143D01*
X109385714Y-108262857D02*
X109471428Y-108300952D01*
X109500000Y-108339048D01*
X109528571Y-108415238D01*
X109528571Y-108529524D01*
X109500000Y-108605714D01*
X109471428Y-108643810D01*
X109414286Y-108681905D01*
X109185714Y-108681905D01*
X109185714Y-107881905D01*
X109385714Y-107881905D01*
X109442857Y-107920000D01*
X109471428Y-107958095D01*
X109500000Y-108034286D01*
X109500000Y-108110476D01*
X109471428Y-108186667D01*
X109442857Y-108224762D01*
X109385714Y-108262857D01*
X109185714Y-108262857D01*
X109900000Y-108300952D02*
X109900000Y-108681905D01*
X109700000Y-107881905D02*
X109900000Y-108300952D01*
X110100000Y-107881905D01*
X110300000Y-108377143D02*
X110757143Y-108377143D01*
X111014286Y-108643810D02*
X111100000Y-108681905D01*
X111242857Y-108681905D01*
X111300000Y-108643810D01*
X111328571Y-108605714D01*
X111357143Y-108529524D01*
X111357143Y-108453333D01*
X111328571Y-108377143D01*
X111300000Y-108339048D01*
X111242857Y-108300952D01*
X111128571Y-108262857D01*
X111071429Y-108224762D01*
X111042857Y-108186667D01*
X111014286Y-108110476D01*
X111014286Y-108034286D01*
X111042857Y-107958095D01*
X111071429Y-107920000D01*
X111128571Y-107881905D01*
X111271429Y-107881905D01*
X111357143Y-107920000D01*
X111585715Y-108453333D02*
X111871429Y-108453333D01*
X111528572Y-108681905D02*
X111728572Y-107881905D01*
X111928572Y-108681905D01*
D13*
X135857143Y-104428571D02*
X135285714Y-104428571D01*
X135285714Y-102928571D01*
X136200000Y-104000000D02*
X136771429Y-104000000D01*
X136085715Y-104428571D02*
X136485715Y-102928571D01*
X136885715Y-104428571D01*
X137514286Y-102928571D02*
X137628571Y-102928571D01*
X137742857Y-103000000D01*
X137800000Y-103071429D01*
X137857143Y-103214286D01*
X137914286Y-103500000D01*
X137914286Y-103857143D01*
X137857143Y-104142857D01*
X137800000Y-104285714D01*
X137742857Y-104357143D01*
X137628571Y-104428571D01*
X137514286Y-104428571D01*
X137400000Y-104357143D01*
X137342857Y-104285714D01*
X137285714Y-104142857D01*
X137228571Y-103857143D01*
X137228571Y-103500000D01*
X137285714Y-103214286D01*
X137342857Y-103071429D01*
X137400000Y-103000000D01*
X137514286Y-102928571D01*
X138314286Y-102928571D02*
X138600000Y-104428571D01*
X138828571Y-103357143D01*
X139057143Y-104428571D01*
X139342857Y-102928571D01*
X140371429Y-102928571D02*
X139800000Y-102928571D01*
X139742857Y-103642857D01*
X139800000Y-103571429D01*
X139914286Y-103500000D01*
X140200000Y-103500000D01*
X140314286Y-103571429D01*
X140371429Y-103642857D01*
X140428572Y-103785714D01*
X140428572Y-104142857D01*
X140371429Y-104285714D01*
X140314286Y-104357143D01*
X140200000Y-104428571D01*
X139914286Y-104428571D01*
X139800000Y-104357143D01*
X139742857Y-104285714D01*
X135857143Y-105028571D02*
X135285714Y-105028571D01*
X135228571Y-105742857D01*
X135285714Y-105671429D01*
X135400000Y-105600000D01*
X135685714Y-105600000D01*
X135800000Y-105671429D01*
X135857143Y-105742857D01*
X135914286Y-105885714D01*
X135914286Y-106242857D01*
X135857143Y-106385714D01*
X135800000Y-106457143D01*
X135685714Y-106528571D01*
X135400000Y-106528571D01*
X135285714Y-106457143D01*
X135228571Y-106385714D01*
X136657143Y-105028571D02*
X136771428Y-105028571D01*
X136885714Y-105100000D01*
X136942857Y-105171429D01*
X137000000Y-105314286D01*
X137057143Y-105600000D01*
X137057143Y-105957143D01*
X137000000Y-106242857D01*
X136942857Y-106385714D01*
X136885714Y-106457143D01*
X136771428Y-106528571D01*
X136657143Y-106528571D01*
X136542857Y-106457143D01*
X136485714Y-106385714D01*
X136428571Y-106242857D01*
X136371428Y-105957143D01*
X136371428Y-105600000D01*
X136428571Y-105314286D01*
X136485714Y-105171429D01*
X136542857Y-105100000D01*
X136657143Y-105028571D01*
X137800000Y-105028571D02*
X137914285Y-105028571D01*
X138028571Y-105100000D01*
X138085714Y-105171429D01*
X138142857Y-105314286D01*
X138200000Y-105600000D01*
X138200000Y-105957143D01*
X138142857Y-106242857D01*
X138085714Y-106385714D01*
X138028571Y-106457143D01*
X137914285Y-106528571D01*
X137800000Y-106528571D01*
X137685714Y-106457143D01*
X137628571Y-106385714D01*
X137571428Y-106242857D01*
X137514285Y-105957143D01*
X137514285Y-105600000D01*
X137571428Y-105314286D01*
X137628571Y-105171429D01*
X137685714Y-105100000D01*
X137800000Y-105028571D01*
X139628571Y-106528571D02*
X139628571Y-105528571D01*
X139628571Y-105671429D02*
X139685714Y-105600000D01*
X139800000Y-105528571D01*
X139971428Y-105528571D01*
X140085714Y-105600000D01*
X140142857Y-105742857D01*
X140142857Y-106528571D01*
X140142857Y-105742857D02*
X140200000Y-105600000D01*
X140314286Y-105528571D01*
X140485714Y-105528571D01*
X140600000Y-105600000D01*
X140657143Y-105742857D01*
X140657143Y-106528571D01*
X141114286Y-105028571D02*
X141400000Y-106528571D01*
X141628571Y-105457143D01*
X141857143Y-106528571D01*
X142142857Y-105028571D01*
X144085715Y-106528571D02*
X143514286Y-106528571D01*
X143514286Y-105028571D01*
X144485715Y-106528571D02*
X144485715Y-105528571D01*
X144485715Y-105028571D02*
X144428572Y-105100000D01*
X144485715Y-105171429D01*
X144542858Y-105100000D01*
X144485715Y-105028571D01*
X144485715Y-105171429D01*
X145057144Y-105528571D02*
X145057144Y-106528571D01*
X145057144Y-105671429D02*
X145114287Y-105600000D01*
X145228573Y-105528571D01*
X145400001Y-105528571D01*
X145514287Y-105600000D01*
X145571430Y-105742857D01*
X145571430Y-106528571D01*
X146600001Y-106457143D02*
X146485715Y-106528571D01*
X146257144Y-106528571D01*
X146142858Y-106457143D01*
X146085715Y-106314286D01*
X146085715Y-105742857D01*
X146142858Y-105600000D01*
X146257144Y-105528571D01*
X146485715Y-105528571D01*
X146600001Y-105600000D01*
X146657144Y-105742857D01*
X146657144Y-105885714D01*
X146085715Y-106028571D01*
X147685715Y-106528571D02*
X147685715Y-105742857D01*
X147628572Y-105600000D01*
X147514286Y-105528571D01*
X147285715Y-105528571D01*
X147171429Y-105600000D01*
X147685715Y-106457143D02*
X147571429Y-106528571D01*
X147285715Y-106528571D01*
X147171429Y-106457143D01*
X147114286Y-106314286D01*
X147114286Y-106171429D01*
X147171429Y-106028571D01*
X147285715Y-105957143D01*
X147571429Y-105957143D01*
X147685715Y-105885714D01*
X148257143Y-106528571D02*
X148257143Y-105528571D01*
X148257143Y-105814286D02*
X148314286Y-105671429D01*
X148371429Y-105600000D01*
X148485715Y-105528571D01*
X148600000Y-105528571D01*
X149857143Y-106100000D02*
X150428572Y-106100000D01*
X149742858Y-106528571D02*
X150142858Y-105028571D01*
X150542858Y-106528571D01*
X150942857Y-106528571D02*
X150942857Y-105528571D01*
X150942857Y-105671429D02*
X151000000Y-105600000D01*
X151114286Y-105528571D01*
X151285714Y-105528571D01*
X151400000Y-105600000D01*
X151457143Y-105742857D01*
X151457143Y-106528571D01*
X151457143Y-105742857D02*
X151514286Y-105600000D01*
X151628572Y-105528571D01*
X151800000Y-105528571D01*
X151914286Y-105600000D01*
X151971429Y-105742857D01*
X151971429Y-106528571D01*
X152542857Y-105528571D02*
X152542857Y-107028571D01*
X152542857Y-105600000D02*
X152657143Y-105528571D01*
X152885714Y-105528571D01*
X153000000Y-105600000D01*
X153057143Y-105671429D01*
X153114286Y-105814286D01*
X153114286Y-106242857D01*
X153057143Y-106385714D01*
X153000000Y-106457143D01*
X152885714Y-106528571D01*
X152657143Y-106528571D01*
X152542857Y-106457143D01*
D12*
X107409524Y-103450000D02*
X107333333Y-103402381D01*
X107219048Y-103402381D01*
X107104762Y-103450000D01*
X107028571Y-103545238D01*
X106990476Y-103640476D01*
X106952381Y-103830952D01*
X106952381Y-103973810D01*
X106990476Y-104164286D01*
X107028571Y-104259524D01*
X107104762Y-104354762D01*
X107219048Y-104402381D01*
X107295238Y-104402381D01*
X107409524Y-104354762D01*
X107447619Y-104307143D01*
X107447619Y-103973810D01*
X107295238Y-103973810D01*
X108133333Y-104402381D02*
X108133333Y-103878571D01*
X108095238Y-103783333D01*
X108019048Y-103735714D01*
X107866667Y-103735714D01*
X107790476Y-103783333D01*
X108133333Y-104354762D02*
X108057143Y-104402381D01*
X107866667Y-104402381D01*
X107790476Y-104354762D01*
X107752381Y-104259524D01*
X107752381Y-104164286D01*
X107790476Y-104069048D01*
X107866667Y-104021429D01*
X108057143Y-104021429D01*
X108133333Y-103973810D01*
X108400000Y-103735714D02*
X108704762Y-103735714D01*
X108514286Y-103402381D02*
X108514286Y-104259524D01*
X108552381Y-104354762D01*
X108628572Y-104402381D01*
X108704762Y-104402381D01*
X109276191Y-104354762D02*
X109200001Y-104402381D01*
X109047620Y-104402381D01*
X108971429Y-104354762D01*
X108933334Y-104259524D01*
X108933334Y-103878571D01*
X108971429Y-103783333D01*
X109047620Y-103735714D01*
X109200001Y-103735714D01*
X109276191Y-103783333D01*
X109314286Y-103878571D01*
X109314286Y-103973810D01*
X108933334Y-104069048D01*
X110533334Y-103878571D02*
X110647620Y-103926190D01*
X110685715Y-103973810D01*
X110723810Y-104069048D01*
X110723810Y-104211905D01*
X110685715Y-104307143D01*
X110647620Y-104354762D01*
X110571429Y-104402381D01*
X110266667Y-104402381D01*
X110266667Y-103402381D01*
X110533334Y-103402381D01*
X110609524Y-103450000D01*
X110647620Y-103497619D01*
X110685715Y-103592857D01*
X110685715Y-103688095D01*
X110647620Y-103783333D01*
X110609524Y-103830952D01*
X110533334Y-103878571D01*
X110266667Y-103878571D01*
X111066667Y-104402381D02*
X111066667Y-103735714D01*
X111066667Y-103402381D02*
X111028572Y-103450000D01*
X111066667Y-103497619D01*
X111104762Y-103450000D01*
X111066667Y-103402381D01*
X111066667Y-103497619D01*
X111790476Y-104402381D02*
X111790476Y-103878571D01*
X111752381Y-103783333D01*
X111676191Y-103735714D01*
X111523810Y-103735714D01*
X111447619Y-103783333D01*
X111790476Y-104354762D02*
X111714286Y-104402381D01*
X111523810Y-104402381D01*
X111447619Y-104354762D01*
X111409524Y-104259524D01*
X111409524Y-104164286D01*
X111447619Y-104069048D01*
X111523810Y-104021429D01*
X111714286Y-104021429D01*
X111790476Y-103973810D01*
X112133334Y-104354762D02*
X112209524Y-104402381D01*
X112361905Y-104402381D01*
X112438096Y-104354762D01*
X112476191Y-104259524D01*
X112476191Y-104211905D01*
X112438096Y-104116667D01*
X112361905Y-104069048D01*
X112247620Y-104069048D01*
X112171429Y-104021429D01*
X112133334Y-103926190D01*
X112133334Y-103878571D01*
X112171429Y-103783333D01*
X112247620Y-103735714D01*
X112361905Y-103735714D01*
X112438096Y-103783333D01*
X118626190Y-85502381D02*
X119083333Y-85502381D01*
X118854762Y-86502381D02*
X118854762Y-85502381D01*
X119273810Y-85502381D02*
X119807143Y-86502381D01*
X119807143Y-85502381D02*
X119273810Y-86502381D01*
X120873810Y-85502381D02*
X121026191Y-85502381D01*
X121102382Y-85550000D01*
X121178572Y-85645238D01*
X121216667Y-85835714D01*
X121216667Y-86169048D01*
X121178572Y-86359524D01*
X121102382Y-86454762D01*
X121026191Y-86502381D01*
X120873810Y-86502381D01*
X120797620Y-86454762D01*
X120721429Y-86359524D01*
X120683334Y-86169048D01*
X120683334Y-85835714D01*
X120721429Y-85645238D01*
X120797620Y-85550000D01*
X120873810Y-85502381D01*
X121559524Y-85835714D02*
X121559524Y-86502381D01*
X121559524Y-85930952D02*
X121597619Y-85883333D01*
X121673810Y-85835714D01*
X121788096Y-85835714D01*
X121864286Y-85883333D01*
X121902381Y-85978571D01*
X121902381Y-86502381D01*
D11*
X105921429Y-73430952D02*
X105921429Y-73697619D01*
X105397619Y-73811905D02*
X105397619Y-73430952D01*
X106397619Y-73430952D01*
X106397619Y-73811905D01*
X106064286Y-74040476D02*
X106064286Y-74345238D01*
X106397619Y-74154762D02*
X105540476Y-74154762D01*
X105445238Y-74192857D01*
X105397619Y-74269048D01*
X105397619Y-74345238D01*
X105397619Y-74611905D02*
X106397619Y-74611905D01*
X105397619Y-74954762D02*
X105921429Y-74954762D01*
X106016667Y-74916667D01*
X106064286Y-74840477D01*
X106064286Y-74726191D01*
X106016667Y-74650000D01*
X105969048Y-74611905D01*
X105445238Y-75640477D02*
X105397619Y-75564287D01*
X105397619Y-75411906D01*
X105445238Y-75335715D01*
X105540476Y-75297620D01*
X105921429Y-75297620D01*
X106016667Y-75335715D01*
X106064286Y-75411906D01*
X106064286Y-75564287D01*
X106016667Y-75640477D01*
X105921429Y-75678572D01*
X105826190Y-75678572D01*
X105730952Y-75297620D01*
X105397619Y-76021429D02*
X106064286Y-76021429D01*
X105873810Y-76021429D02*
X105969048Y-76059524D01*
X106016667Y-76097620D01*
X106064286Y-76173810D01*
X106064286Y-76250001D01*
X105397619Y-76516667D02*
X106397619Y-76516667D01*
X105778571Y-76592858D02*
X105397619Y-76821429D01*
X106064286Y-76821429D02*
X105683333Y-76516667D01*
X105397619Y-77164286D02*
X106064286Y-77164286D01*
X106397619Y-77164286D02*
X106350000Y-77126191D01*
X106302381Y-77164286D01*
X106350000Y-77202381D01*
X106397619Y-77164286D01*
X106302381Y-77164286D01*
X106064286Y-77430952D02*
X106064286Y-77735714D01*
X106397619Y-77545238D02*
X105540476Y-77545238D01*
X105445238Y-77583333D01*
X105397619Y-77659524D01*
X105397619Y-77735714D01*
X105397619Y-78992858D02*
X105397619Y-78611905D01*
X106397619Y-78611905D01*
X105397619Y-79373810D02*
X105445238Y-79297619D01*
X105492857Y-79259524D01*
X105588095Y-79221429D01*
X105873810Y-79221429D01*
X105969048Y-79259524D01*
X106016667Y-79297619D01*
X106064286Y-79373810D01*
X106064286Y-79488096D01*
X106016667Y-79564286D01*
X105969048Y-79602381D01*
X105873810Y-79640477D01*
X105588095Y-79640477D01*
X105492857Y-79602381D01*
X105445238Y-79564286D01*
X105397619Y-79488096D01*
X105397619Y-79373810D01*
X106064286Y-79907144D02*
X105397619Y-80059525D01*
X105873810Y-80211906D01*
X105397619Y-80364287D01*
X106064286Y-80516668D01*
X105397619Y-81430953D02*
X106397619Y-81430953D01*
X106397619Y-81735715D01*
X106350000Y-81811906D01*
X106302381Y-81850001D01*
X106207143Y-81888096D01*
X106064286Y-81888096D01*
X105969048Y-81850001D01*
X105921429Y-81811906D01*
X105873810Y-81735715D01*
X105873810Y-81430953D01*
X105397619Y-82573810D02*
X105921429Y-82573810D01*
X106016667Y-82535715D01*
X106064286Y-82459525D01*
X106064286Y-82307144D01*
X106016667Y-82230953D01*
X105445238Y-82573810D02*
X105397619Y-82497620D01*
X105397619Y-82307144D01*
X105445238Y-82230953D01*
X105540476Y-82192858D01*
X105635714Y-82192858D01*
X105730952Y-82230953D01*
X105778571Y-82307144D01*
X105778571Y-82497620D01*
X105826190Y-82573810D01*
X105445238Y-82916668D02*
X105397619Y-82992858D01*
X105397619Y-83145239D01*
X105445238Y-83221430D01*
X105540476Y-83259525D01*
X105588095Y-83259525D01*
X105683333Y-83221430D01*
X105730952Y-83145239D01*
X105730952Y-83030954D01*
X105778571Y-82954763D01*
X105873810Y-82916668D01*
X105921429Y-82916668D01*
X106016667Y-82954763D01*
X106064286Y-83030954D01*
X106064286Y-83145239D01*
X106016667Y-83221430D01*
X105445238Y-83564287D02*
X105397619Y-83640477D01*
X105397619Y-83792858D01*
X105445238Y-83869049D01*
X105540476Y-83907144D01*
X105588095Y-83907144D01*
X105683333Y-83869049D01*
X105730952Y-83792858D01*
X105730952Y-83678573D01*
X105778571Y-83602382D01*
X105873810Y-83564287D01*
X105921429Y-83564287D01*
X106016667Y-83602382D01*
X106064286Y-83678573D01*
X106064286Y-83792858D01*
X106016667Y-83869049D01*
X104321429Y-75145238D02*
X104321429Y-74878571D01*
X103797619Y-74878571D02*
X104797619Y-74878571D01*
X104797619Y-75259524D01*
X103797619Y-75564285D02*
X104464286Y-75564285D01*
X104797619Y-75564285D02*
X104750000Y-75526190D01*
X104702381Y-75564285D01*
X104750000Y-75602380D01*
X104797619Y-75564285D01*
X104702381Y-75564285D01*
X103797619Y-76059523D02*
X103845238Y-75983332D01*
X103940476Y-75945237D01*
X104797619Y-75945237D01*
X104464286Y-76249999D02*
X104464286Y-76554761D01*
X104797619Y-76364285D02*
X103940476Y-76364285D01*
X103845238Y-76402380D01*
X103797619Y-76478571D01*
X103797619Y-76554761D01*
X103845238Y-77126190D02*
X103797619Y-77050000D01*
X103797619Y-76897619D01*
X103845238Y-76821428D01*
X103940476Y-76783333D01*
X104321429Y-76783333D01*
X104416667Y-76821428D01*
X104464286Y-76897619D01*
X104464286Y-77050000D01*
X104416667Y-77126190D01*
X104321429Y-77164285D01*
X104226190Y-77164285D01*
X104130952Y-76783333D01*
X103797619Y-77507142D02*
X104464286Y-77507142D01*
X104273810Y-77507142D02*
X104369048Y-77545237D01*
X104416667Y-77583333D01*
X104464286Y-77659523D01*
X104464286Y-77735714D01*
X103797619Y-78611904D02*
X104797619Y-78611904D01*
X104083333Y-78878571D01*
X104797619Y-79145238D01*
X103797619Y-79145238D01*
X103797619Y-79640476D02*
X103845238Y-79564285D01*
X103892857Y-79526190D01*
X103988095Y-79488095D01*
X104273810Y-79488095D01*
X104369048Y-79526190D01*
X104416667Y-79564285D01*
X104464286Y-79640476D01*
X104464286Y-79754762D01*
X104416667Y-79830952D01*
X104369048Y-79869047D01*
X104273810Y-79907143D01*
X103988095Y-79907143D01*
X103892857Y-79869047D01*
X103845238Y-79830952D01*
X103797619Y-79754762D01*
X103797619Y-79640476D01*
X103797619Y-80592857D02*
X104797619Y-80592857D01*
X103845238Y-80592857D02*
X103797619Y-80516667D01*
X103797619Y-80364286D01*
X103845238Y-80288095D01*
X103892857Y-80250000D01*
X103988095Y-80211905D01*
X104273810Y-80211905D01*
X104369048Y-80250000D01*
X104416667Y-80288095D01*
X104464286Y-80364286D01*
X104464286Y-80516667D01*
X104416667Y-80592857D01*
X104464286Y-81316667D02*
X103797619Y-81316667D01*
X104464286Y-80973810D02*
X103940476Y-80973810D01*
X103845238Y-81011905D01*
X103797619Y-81088096D01*
X103797619Y-81202382D01*
X103845238Y-81278572D01*
X103892857Y-81316667D01*
X103797619Y-81811906D02*
X103845238Y-81735715D01*
X103940476Y-81697620D01*
X104797619Y-81697620D01*
X103845238Y-82421430D02*
X103797619Y-82345240D01*
X103797619Y-82192859D01*
X103845238Y-82116668D01*
X103940476Y-82078573D01*
X104321429Y-82078573D01*
X104416667Y-82116668D01*
X104464286Y-82192859D01*
X104464286Y-82345240D01*
X104416667Y-82421430D01*
X104321429Y-82459525D01*
X104226190Y-82459525D01*
X104130952Y-82078573D01*
D14*
X150545238Y-102842857D02*
X150878571Y-104042857D01*
X151211905Y-102842857D01*
X151545238Y-104042857D02*
X151545238Y-102842857D01*
X151783333Y-102842857D01*
X151926191Y-102900000D01*
X152021429Y-103014286D01*
X152069048Y-103128571D01*
X152116667Y-103357143D01*
X152116667Y-103528571D01*
X152069048Y-103757143D01*
X152021429Y-103871429D01*
X151926191Y-103985714D01*
X151783333Y-104042857D01*
X151545238Y-104042857D01*
X152545238Y-104042857D02*
X152545238Y-102842857D01*
X152783333Y-102842857D01*
X152926191Y-102900000D01*
X153021429Y-103014286D01*
X153069048Y-103128571D01*
X153116667Y-103357143D01*
X153116667Y-103528571D01*
X153069048Y-103757143D01*
X153021429Y-103871429D01*
X152926191Y-103985714D01*
X152783333Y-104042857D01*
X152545238Y-104042857D01*
D12*
X137395238Y-62402381D02*
X137728571Y-63402381D01*
X138061905Y-62402381D01*
X138395238Y-63402381D02*
X138395238Y-62402381D01*
X138633333Y-62402381D01*
X138776191Y-62450000D01*
X138871429Y-62545238D01*
X138919048Y-62640476D01*
X138966667Y-62830952D01*
X138966667Y-62973810D01*
X138919048Y-63164286D01*
X138871429Y-63259524D01*
X138776191Y-63354762D01*
X138633333Y-63402381D01*
X138395238Y-63402381D01*
X139395238Y-63402381D02*
X139395238Y-62402381D01*
X139633333Y-62402381D01*
X139776191Y-62450000D01*
X139871429Y-62545238D01*
X139919048Y-62640476D01*
X139966667Y-62830952D01*
X139966667Y-62973810D01*
X139919048Y-63164286D01*
X139871429Y-63259524D01*
X139776191Y-63354762D01*
X139633333Y-63402381D01*
X139395238Y-63402381D01*
X114892857Y-64792857D02*
X114978571Y-64830952D01*
X115007143Y-64869048D01*
X115035714Y-64945238D01*
X115035714Y-65059524D01*
X115007143Y-65135714D01*
X114978571Y-65173810D01*
X114921429Y-65211905D01*
X114692857Y-65211905D01*
X114692857Y-64411905D01*
X114892857Y-64411905D01*
X114950000Y-64450000D01*
X114978571Y-64488095D01*
X115007143Y-64564286D01*
X115007143Y-64640476D01*
X114978571Y-64716667D01*
X114950000Y-64754762D01*
X114892857Y-64792857D01*
X114692857Y-64792857D01*
X115292857Y-65211905D02*
X115292857Y-64678571D01*
X115292857Y-64411905D02*
X115264286Y-64450000D01*
X115292857Y-64488095D01*
X115321429Y-64450000D01*
X115292857Y-64411905D01*
X115292857Y-64488095D01*
X115835714Y-65211905D02*
X115835714Y-64792857D01*
X115807143Y-64716667D01*
X115750000Y-64678571D01*
X115635714Y-64678571D01*
X115578571Y-64716667D01*
X115835714Y-65173810D02*
X115778571Y-65211905D01*
X115635714Y-65211905D01*
X115578571Y-65173810D01*
X115550000Y-65097619D01*
X115550000Y-65021429D01*
X115578571Y-64945238D01*
X115635714Y-64907143D01*
X115778571Y-64907143D01*
X115835714Y-64869048D01*
X116092857Y-65173810D02*
X116150000Y-65211905D01*
X116264285Y-65211905D01*
X116321428Y-65173810D01*
X116350000Y-65097619D01*
X116350000Y-65059524D01*
X116321428Y-64983333D01*
X116264285Y-64945238D01*
X116178571Y-64945238D01*
X116121428Y-64907143D01*
X116092857Y-64830952D01*
X116092857Y-64792857D01*
X116121428Y-64716667D01*
X116178571Y-64678571D01*
X116264285Y-64678571D01*
X116321428Y-64716667D01*
X154690476Y-92702381D02*
X154690476Y-91702381D01*
X154995238Y-91702381D01*
X155071429Y-91750000D01*
X155109524Y-91797619D01*
X155147619Y-91892857D01*
X155147619Y-92035714D01*
X155109524Y-92130952D01*
X155071429Y-92178571D01*
X154995238Y-92226190D01*
X154690476Y-92226190D01*
X155452381Y-92416667D02*
X155833333Y-92416667D01*
X155376190Y-92702381D02*
X155642857Y-91702381D01*
X155909524Y-92702381D01*
X157242857Y-92607143D02*
X157204762Y-92654762D01*
X157090476Y-92702381D01*
X157014286Y-92702381D01*
X156900000Y-92654762D01*
X156823809Y-92559524D01*
X156785714Y-92464286D01*
X156747619Y-92273810D01*
X156747619Y-92130952D01*
X156785714Y-91940476D01*
X156823809Y-91845238D01*
X156900000Y-91750000D01*
X157014286Y-91702381D01*
X157090476Y-91702381D01*
X157204762Y-91750000D01*
X157242857Y-91797619D01*
X157928571Y-92035714D02*
X157928571Y-92702381D01*
X157585714Y-92035714D02*
X157585714Y-92559524D01*
X157623809Y-92654762D01*
X157700000Y-92702381D01*
X157814286Y-92702381D01*
X157890476Y-92654762D01*
X157928571Y-92607143D01*
X158309524Y-92702381D02*
X158309524Y-92035714D01*
X158309524Y-92226190D02*
X158347619Y-92130952D01*
X158385715Y-92083333D01*
X158461905Y-92035714D01*
X158538096Y-92035714D01*
X158804762Y-92607143D02*
X158842857Y-92654762D01*
X158804762Y-92702381D01*
X158766667Y-92654762D01*
X158804762Y-92607143D01*
X158804762Y-92702381D01*
X117557143Y-64450000D02*
X117500000Y-64411905D01*
X117414286Y-64411905D01*
X117328571Y-64450000D01*
X117271429Y-64526190D01*
X117242857Y-64602381D01*
X117214286Y-64754762D01*
X117214286Y-64869048D01*
X117242857Y-65021429D01*
X117271429Y-65097619D01*
X117328571Y-65173810D01*
X117414286Y-65211905D01*
X117471429Y-65211905D01*
X117557143Y-65173810D01*
X117585714Y-65135714D01*
X117585714Y-64869048D01*
X117471429Y-64869048D01*
X117842857Y-65211905D02*
X117842857Y-64411905D01*
X118185714Y-65211905D01*
X118185714Y-64411905D01*
X118471428Y-65211905D02*
X118471428Y-64411905D01*
X118614285Y-64411905D01*
X118700000Y-64450000D01*
X118757142Y-64526190D01*
X118785714Y-64602381D01*
X118814285Y-64754762D01*
X118814285Y-64869048D01*
X118785714Y-65021429D01*
X118757142Y-65097619D01*
X118700000Y-65173810D01*
X118614285Y-65211905D01*
X118471428Y-65211905D01*
X112292857Y-65211905D02*
X112292857Y-64411905D01*
X112635714Y-65211905D02*
X112378571Y-64754762D01*
X112635714Y-64411905D02*
X112292857Y-64869048D01*
X113121429Y-65173810D02*
X113064286Y-65211905D01*
X112950000Y-65211905D01*
X112892857Y-65173810D01*
X112864286Y-65097619D01*
X112864286Y-64792857D01*
X112892857Y-64716667D01*
X112950000Y-64678571D01*
X113064286Y-64678571D01*
X113121429Y-64716667D01*
X113150000Y-64792857D01*
X113150000Y-64869048D01*
X112864286Y-64945238D01*
X113350000Y-64678571D02*
X113492857Y-65211905D01*
X113635715Y-64678571D02*
X113492857Y-65211905D01*
X113435715Y-65402381D01*
X113407143Y-65440476D01*
X113350000Y-65478571D01*
X109642857Y-65211905D02*
X109642857Y-64411905D01*
X109871429Y-64411905D01*
X109928571Y-64450000D01*
X109957143Y-64488095D01*
X109985714Y-64564286D01*
X109985714Y-64678571D01*
X109957143Y-64754762D01*
X109928571Y-64792857D01*
X109871429Y-64830952D01*
X109642857Y-64830952D01*
X110214286Y-64983333D02*
X110500000Y-64983333D01*
X110157143Y-65211905D02*
X110357143Y-64411905D01*
X110557143Y-65211905D01*
X111214286Y-65211905D02*
X111214286Y-64411905D01*
X155261905Y-74550000D02*
X155166667Y-74502381D01*
X155023810Y-74502381D01*
X154880952Y-74550000D01*
X154785714Y-74645238D01*
X154738095Y-74740476D01*
X154690476Y-74930952D01*
X154690476Y-75073810D01*
X154738095Y-75264286D01*
X154785714Y-75359524D01*
X154880952Y-75454762D01*
X155023810Y-75502381D01*
X155119048Y-75502381D01*
X155261905Y-75454762D01*
X155309524Y-75407143D01*
X155309524Y-75073810D01*
X155119048Y-75073810D01*
X155738095Y-75502381D02*
X155738095Y-74502381D01*
X156309524Y-75502381D01*
X156309524Y-74502381D01*
X156785714Y-75502381D02*
X156785714Y-74502381D01*
X157023809Y-74502381D01*
X157166667Y-74550000D01*
X157261905Y-74645238D01*
X157309524Y-74740476D01*
X157357143Y-74930952D01*
X157357143Y-75073810D01*
X157309524Y-75264286D01*
X157261905Y-75359524D01*
X157166667Y-75454762D01*
X157023809Y-75502381D01*
X156785714Y-75502381D01*
X105157143Y-98678571D02*
X105271429Y-98726190D01*
X105309524Y-98773810D01*
X105347619Y-98869048D01*
X105347619Y-99011905D01*
X105309524Y-99107143D01*
X105271429Y-99154762D01*
X105195238Y-99202381D01*
X104890476Y-99202381D01*
X104890476Y-98202381D01*
X105157143Y-98202381D01*
X105233333Y-98250000D01*
X105271429Y-98297619D01*
X105309524Y-98392857D01*
X105309524Y-98488095D01*
X105271429Y-98583333D01*
X105233333Y-98630952D01*
X105157143Y-98678571D01*
X104890476Y-98678571D01*
X105690476Y-99202381D02*
X105690476Y-98535714D01*
X105690476Y-98202381D02*
X105652381Y-98250000D01*
X105690476Y-98297619D01*
X105728571Y-98250000D01*
X105690476Y-98202381D01*
X105690476Y-98297619D01*
X106414285Y-99202381D02*
X106414285Y-98678571D01*
X106376190Y-98583333D01*
X106300000Y-98535714D01*
X106147619Y-98535714D01*
X106071428Y-98583333D01*
X106414285Y-99154762D02*
X106338095Y-99202381D01*
X106147619Y-99202381D01*
X106071428Y-99154762D01*
X106033333Y-99059524D01*
X106033333Y-98964286D01*
X106071428Y-98869048D01*
X106147619Y-98821429D01*
X106338095Y-98821429D01*
X106414285Y-98773810D01*
X106757143Y-99154762D02*
X106833333Y-99202381D01*
X106985714Y-99202381D01*
X107061905Y-99154762D01*
X107100000Y-99059524D01*
X107100000Y-99011905D01*
X107061905Y-98916667D01*
X106985714Y-98869048D01*
X106871429Y-98869048D01*
X106795238Y-98821429D01*
X106757143Y-98726190D01*
X106757143Y-98678571D01*
X106795238Y-98583333D01*
X106871429Y-98535714D01*
X106985714Y-98535714D01*
X107061905Y-98583333D01*
X107938095Y-98202381D02*
X108204762Y-99202381D01*
X108471429Y-98202381D01*
D14*
X121166666Y-64392857D02*
X120833332Y-63821429D01*
X120595237Y-64392857D02*
X120595237Y-63192857D01*
X120976190Y-63192857D01*
X121071428Y-63250000D01*
X121119047Y-63307143D01*
X121166666Y-63421429D01*
X121166666Y-63592857D01*
X121119047Y-63707143D01*
X121071428Y-63764286D01*
X120976190Y-63821429D01*
X120595237Y-63821429D01*
X121928571Y-63764286D02*
X121595237Y-63764286D01*
X121595237Y-64392857D02*
X121595237Y-63192857D01*
X122071428Y-63192857D01*
X123404761Y-63192857D02*
X123595238Y-63192857D01*
X123690476Y-63250000D01*
X123785714Y-63364286D01*
X123833333Y-63592857D01*
X123833333Y-63992857D01*
X123785714Y-64221429D01*
X123690476Y-64335714D01*
X123595238Y-64392857D01*
X123404761Y-64392857D01*
X123309523Y-64335714D01*
X123214285Y-64221429D01*
X123166666Y-63992857D01*
X123166666Y-63592857D01*
X123214285Y-63364286D01*
X123309523Y-63250000D01*
X123404761Y-63192857D01*
X124690476Y-63592857D02*
X124690476Y-64392857D01*
X124261904Y-63592857D02*
X124261904Y-64221429D01*
X124309523Y-64335714D01*
X124404761Y-64392857D01*
X124547619Y-64392857D01*
X124642857Y-64335714D01*
X124690476Y-64278571D01*
X125023809Y-63592857D02*
X125404761Y-63592857D01*
X125166666Y-63192857D02*
X125166666Y-64221429D01*
X125214285Y-64335714D01*
X125309523Y-64392857D01*
X125404761Y-64392857D01*
X122409524Y-108192857D02*
X122076190Y-107621429D01*
X121838095Y-108192857D02*
X121838095Y-106992857D01*
X122219048Y-106992857D01*
X122314286Y-107050000D01*
X122361905Y-107107143D01*
X122409524Y-107221429D01*
X122409524Y-107392857D01*
X122361905Y-107507143D01*
X122314286Y-107564286D01*
X122219048Y-107621429D01*
X121838095Y-107621429D01*
X123171429Y-107564286D02*
X122838095Y-107564286D01*
X122838095Y-108192857D02*
X122838095Y-106992857D01*
X123314286Y-106992857D01*
X124457143Y-108192857D02*
X124457143Y-106992857D01*
X124933333Y-107392857D02*
X124933333Y-108192857D01*
X124933333Y-107507143D02*
X124980952Y-107450000D01*
X125076190Y-107392857D01*
X125219048Y-107392857D01*
X125314286Y-107450000D01*
X125361905Y-107564286D01*
X125361905Y-108192857D01*
D15*
X101976000Y-93569000D02*
X105024000Y-93569000D01*
X105024000Y-93569000D02*
X105024000Y-94331000D01*
X105024000Y-94331000D02*
X101976000Y-94331000D01*
X101976000Y-94331000D02*
X101976000Y-93569000D01*
X110526000Y-94069000D02*
X113574000Y-94069000D01*
X113574000Y-94069000D02*
X113574000Y-94831000D01*
X113574000Y-94831000D02*
X110526000Y-94831000D01*
X110526000Y-94831000D02*
X110526000Y-94069000D01*
D12*
X109150000Y-93650000D02*
X109650000Y-93650000D01*
X109650000Y-93650000D02*
X109650000Y-96050000D01*
X106650000Y-96050000D02*
X106650000Y-93650000D01*
X106650000Y-93650000D02*
X107150000Y-93650000D01*
D16*
X106286000Y-64000000D02*
G75*
G03X106286000Y-64000000I-2286000J0D01*
G01*
X106286000Y-106000000D02*
G75*
G03X106286000Y-106000000I-2286000J0D01*
G01*
X158286000Y-106000000D02*
G75*
G03X158286000Y-106000000I-2286000J0D01*
G01*
X158286000Y-64000000D02*
G75*
G03X158286000Y-64000000I-2286000J0D01*
G01*
D17*
X119774000Y-101361000D02*
X119774000Y-103139000D01*
X119774000Y-103139000D02*
X116726000Y-103139000D01*
X116726000Y-103139000D02*
X116726000Y-101361000D01*
X116726000Y-101361000D02*
X119774000Y-101361000D01*
X144839000Y-88924000D02*
X143061000Y-88924000D01*
X143061000Y-88924000D02*
X143061000Y-85876000D01*
X143061000Y-85876000D02*
X144839000Y-85876000D01*
X144839000Y-85876000D02*
X144839000Y-88924000D01*
D12*
X144550000Y-92575000D02*
X143350000Y-92575000D01*
X143350000Y-90825000D02*
X144550000Y-90825000D01*
X120000000Y-92475000D02*
X121200000Y-92475000D01*
X121200000Y-94225000D02*
X120000000Y-94225000D01*
X131775000Y-95750000D02*
X131775000Y-94550000D01*
X133525000Y-94550000D02*
X133525000Y-95750000D01*
X121200000Y-97925000D02*
X120000000Y-97925000D01*
X120000000Y-96175000D02*
X121200000Y-96175000D01*
X126750000Y-99275000D02*
X127950000Y-99275000D01*
X127950000Y-101025000D02*
X126750000Y-101025000D01*
X115100000Y-90525000D02*
X113900000Y-90525000D01*
X113900000Y-88775000D02*
X115100000Y-88775000D01*
X134600000Y-101025000D02*
X133400000Y-101025000D01*
X133400000Y-99275000D02*
X134600000Y-99275000D01*
X109500000Y-90525000D02*
X108300000Y-90525000D01*
X108300000Y-88775000D02*
X109500000Y-88775000D01*
X141100000Y-101025000D02*
X139900000Y-101025000D01*
X139900000Y-99275000D02*
X141100000Y-99275000D01*
X104425000Y-87600000D02*
X104425000Y-88800000D01*
X102675000Y-88800000D02*
X102675000Y-87600000D01*
X118750000Y-106100000D02*
X117750000Y-106100000D01*
X117750000Y-107800000D02*
X118750000Y-107800000D01*
X121250000Y-101700000D02*
X121250000Y-102700000D01*
X122950000Y-102700000D02*
X122950000Y-101700000D01*
X113400000Y-101750000D02*
X113400000Y-102750000D01*
X115100000Y-102750000D02*
X115100000Y-101750000D01*
X138900000Y-89100000D02*
X138900000Y-88100000D01*
X137200000Y-88100000D02*
X137200000Y-89100000D01*
X151450000Y-87200000D02*
X150450000Y-87200000D01*
X150450000Y-88900000D02*
X151450000Y-88900000D01*
X133500000Y-89000000D02*
X133500000Y-88000000D01*
X131800000Y-88000000D02*
X131800000Y-89000000D01*
X120000000Y-90550000D02*
X121000000Y-90550000D01*
X121000000Y-88850000D02*
X120000000Y-88850000D01*
X151450000Y-89600000D02*
X150450000Y-89600000D01*
X150450000Y-91300000D02*
X151450000Y-91300000D01*
X129550000Y-95800000D02*
X129550000Y-94800000D01*
X127850000Y-94800000D02*
X127850000Y-95800000D01*
X151450000Y-84700000D02*
X150450000Y-84700000D01*
X150450000Y-86400000D02*
X151450000Y-86400000D01*
X115200000Y-94350000D02*
X115200000Y-95350000D01*
X116900000Y-95350000D02*
X116900000Y-94350000D01*
X143270000Y-61230000D02*
X145810000Y-61230000D01*
X140450000Y-60950000D02*
X142000000Y-60950000D01*
X143270000Y-61230000D02*
X143270000Y-63770000D01*
X142000000Y-64050000D02*
X140450000Y-64050000D01*
X140450000Y-64050000D02*
X140450000Y-60950000D01*
X143270000Y-63770000D02*
X145810000Y-63770000D01*
X145810000Y-63770000D02*
X145810000Y-61230000D01*
X111680000Y-63770000D02*
X119300000Y-63770000D01*
X111680000Y-61230000D02*
X119300000Y-61230000D01*
X108860000Y-60950000D02*
X110410000Y-60950000D01*
X119300000Y-63770000D02*
X119300000Y-61230000D01*
X111680000Y-61230000D02*
X111680000Y-63770000D01*
X110410000Y-64050000D02*
X108860000Y-64050000D01*
X108860000Y-64050000D02*
X108860000Y-60950000D01*
D18*
G36*
X157031660Y-81756040D02*
X157072300Y-81756040D01*
X157199300Y-81753500D01*
X157283120Y-81748420D01*
X157313600Y-81740800D01*
X157308520Y-81720480D01*
X157290740Y-81649360D01*
X157257720Y-81529980D01*
X157217080Y-81375040D01*
X157166280Y-81189620D01*
X157067220Y-80828940D01*
X157013880Y-80638440D01*
X156970700Y-80470800D01*
X156935140Y-80341260D01*
X156912280Y-80252360D01*
X156904660Y-80216800D01*
X156904660Y-80214260D01*
X156932600Y-80173620D01*
X156991020Y-80092340D01*
X157077380Y-79980580D01*
X157184060Y-79845960D01*
X157305980Y-79693560D01*
X157707300Y-79198260D01*
X157194220Y-79198260D01*
X156772580Y-79739280D01*
X156716700Y-79807860D01*
X156599860Y-79957720D01*
X156498260Y-80087260D01*
X156416980Y-80188860D01*
X156366180Y-80252360D01*
X156345860Y-80275220D01*
X156348400Y-80259980D01*
X156361100Y-80188860D01*
X156383960Y-80069480D01*
X156414440Y-79909460D01*
X156452540Y-79711340D01*
X156495720Y-79487820D01*
X156543980Y-79243980D01*
X156577000Y-79071260D01*
X156625260Y-78837580D01*
X156665900Y-78629300D01*
X156698920Y-78451500D01*
X156724320Y-78314340D01*
X156742100Y-78225440D01*
X156747180Y-78187340D01*
X156747180Y-78179720D01*
X156734480Y-78169560D01*
X156696380Y-78164480D01*
X156620180Y-78164480D01*
X156493180Y-78164480D01*
X156239180Y-78169560D01*
X156213780Y-78294020D01*
X156185840Y-78410860D01*
X156145200Y-78494680D01*
X156086780Y-78563260D01*
X156046140Y-78598820D01*
X155975020Y-78636920D01*
X155886120Y-78647080D01*
X155881040Y-78647080D01*
X155809920Y-78636920D01*
X155751500Y-78598820D01*
X155741340Y-78588660D01*
X155703240Y-78540400D01*
X155688000Y-78481980D01*
X155695620Y-78390540D01*
X155718480Y-78255920D01*
X155738800Y-78164480D01*
X155754040Y-78088280D01*
X155759120Y-78057800D01*
X155774360Y-78055260D01*
X155840400Y-78055260D01*
X155914060Y-78052720D01*
X155914060Y-77626000D01*
X155863260Y-77620920D01*
X155845480Y-77613300D01*
X155842940Y-77600600D01*
X155848020Y-77585360D01*
X155863260Y-77519320D01*
X155883580Y-77425340D01*
X155893740Y-77384700D01*
X155921680Y-77285640D01*
X155949620Y-77217060D01*
X155957240Y-77204360D01*
X156028360Y-77125620D01*
X156124880Y-77077360D01*
X156229020Y-77062120D01*
X156317920Y-77082440D01*
X156381420Y-77143400D01*
X156383960Y-77148480D01*
X156401740Y-77237380D01*
X156396660Y-77361840D01*
X156373800Y-77501540D01*
X156345860Y-77618380D01*
X156091860Y-77623460D01*
X156008040Y-77626000D01*
X155914060Y-77626000D01*
X155914060Y-78052720D01*
X155952160Y-78052720D01*
X156096940Y-78052720D01*
X156269660Y-78050180D01*
X156777660Y-78050180D01*
X156787820Y-78014620D01*
X156790360Y-78007000D01*
X156813220Y-77900320D01*
X156838620Y-77760620D01*
X156866560Y-77608220D01*
X156894500Y-77455820D01*
X156914820Y-77321200D01*
X156930060Y-77214520D01*
X156937680Y-77156100D01*
X156935140Y-77125620D01*
X156899580Y-76945280D01*
X156810680Y-76787800D01*
X156683680Y-76660800D01*
X156523660Y-76584600D01*
X156505880Y-76579520D01*
X156386500Y-76561740D01*
X156246800Y-76561740D01*
X156122340Y-76576980D01*
X156002960Y-76612540D01*
X155820080Y-76714140D01*
X155652440Y-76856380D01*
X155515280Y-77024020D01*
X155421300Y-77204360D01*
X155413680Y-77227220D01*
X155393360Y-77316120D01*
X155365420Y-77445660D01*
X155329860Y-77603140D01*
X155294300Y-77778400D01*
X155258740Y-77958740D01*
X155225720Y-78131460D01*
X155197780Y-78281320D01*
X155177460Y-78398160D01*
X155167300Y-78469280D01*
X155167300Y-78570880D01*
X155187620Y-78735980D01*
X155238420Y-78873140D01*
X155258740Y-78906160D01*
X155375580Y-79035700D01*
X155533060Y-79127140D01*
X155715940Y-79172860D01*
X155911520Y-79167780D01*
X155934380Y-79165240D01*
X156005500Y-79155080D01*
X156035980Y-79155080D01*
X156035980Y-79162700D01*
X156025820Y-79223660D01*
X156002960Y-79335420D01*
X155972480Y-79490360D01*
X155934380Y-79688480D01*
X155891200Y-79917080D01*
X155840400Y-80171080D01*
X155756580Y-80587640D01*
X155703240Y-80851800D01*
X155654980Y-81095640D01*
X155614340Y-81309000D01*
X155578780Y-81489340D01*
X155553380Y-81623960D01*
X155538140Y-81712860D01*
X155535600Y-81743340D01*
X155538140Y-81745880D01*
X155583860Y-81750960D01*
X155672760Y-81753500D01*
X155792140Y-81756040D01*
X155896280Y-81756040D01*
X155980100Y-81753500D01*
X156023280Y-81748420D01*
X156043600Y-81738260D01*
X156048680Y-81720480D01*
X156053760Y-81695080D01*
X156071540Y-81616340D01*
X156091860Y-81502040D01*
X156119800Y-81364880D01*
X156127420Y-81324240D01*
X156162980Y-81161680D01*
X156190920Y-81060080D01*
X156211240Y-81011820D01*
X156221400Y-81001660D01*
X156297600Y-80915300D01*
X156376340Y-80826400D01*
X156450000Y-80750200D01*
X156500800Y-80696860D01*
X156521120Y-80676540D01*
X156526200Y-80691780D01*
X156541440Y-80757820D01*
X156564300Y-80869580D01*
X156594780Y-81014360D01*
X156627800Y-81182000D01*
X156653200Y-81298840D01*
X156686220Y-81456320D01*
X156711620Y-81588400D01*
X156731940Y-81679840D01*
X156739560Y-81720480D01*
X156742100Y-81723020D01*
X156747180Y-81738260D01*
X156767500Y-81748420D01*
X156813220Y-81753500D01*
X156897040Y-81756040D01*
X157031660Y-81756040D01*
X157031660Y-81756040D01*
G37*
X157031660Y-81756040D02*
X157072300Y-81756040D01*
X157199300Y-81753500D01*
X157283120Y-81748420D01*
X157313600Y-81740800D01*
X157308520Y-81720480D01*
X157290740Y-81649360D01*
X157257720Y-81529980D01*
X157217080Y-81375040D01*
X157166280Y-81189620D01*
X157067220Y-80828940D01*
X157013880Y-80638440D01*
X156970700Y-80470800D01*
X156935140Y-80341260D01*
X156912280Y-80252360D01*
X156904660Y-80216800D01*
X156904660Y-80214260D01*
X156932600Y-80173620D01*
X156991020Y-80092340D01*
X157077380Y-79980580D01*
X157184060Y-79845960D01*
X157305980Y-79693560D01*
X157707300Y-79198260D01*
X157194220Y-79198260D01*
X156772580Y-79739280D01*
X156716700Y-79807860D01*
X156599860Y-79957720D01*
X156498260Y-80087260D01*
X156416980Y-80188860D01*
X156366180Y-80252360D01*
X156345860Y-80275220D01*
X156348400Y-80259980D01*
X156361100Y-80188860D01*
X156383960Y-80069480D01*
X156414440Y-79909460D01*
X156452540Y-79711340D01*
X156495720Y-79487820D01*
X156543980Y-79243980D01*
X156577000Y-79071260D01*
X156625260Y-78837580D01*
X156665900Y-78629300D01*
X156698920Y-78451500D01*
X156724320Y-78314340D01*
X156742100Y-78225440D01*
X156747180Y-78187340D01*
X156747180Y-78179720D01*
X156734480Y-78169560D01*
X156696380Y-78164480D01*
X156620180Y-78164480D01*
X156493180Y-78164480D01*
X156239180Y-78169560D01*
X156213780Y-78294020D01*
X156185840Y-78410860D01*
X156145200Y-78494680D01*
X156086780Y-78563260D01*
X156046140Y-78598820D01*
X155975020Y-78636920D01*
X155886120Y-78647080D01*
X155881040Y-78647080D01*
X155809920Y-78636920D01*
X155751500Y-78598820D01*
X155741340Y-78588660D01*
X155703240Y-78540400D01*
X155688000Y-78481980D01*
X155695620Y-78390540D01*
X155718480Y-78255920D01*
X155738800Y-78164480D01*
X155754040Y-78088280D01*
X155759120Y-78057800D01*
X155774360Y-78055260D01*
X155840400Y-78055260D01*
X155914060Y-78052720D01*
X155914060Y-77626000D01*
X155863260Y-77620920D01*
X155845480Y-77613300D01*
X155842940Y-77600600D01*
X155848020Y-77585360D01*
X155863260Y-77519320D01*
X155883580Y-77425340D01*
X155893740Y-77384700D01*
X155921680Y-77285640D01*
X155949620Y-77217060D01*
X155957240Y-77204360D01*
X156028360Y-77125620D01*
X156124880Y-77077360D01*
X156229020Y-77062120D01*
X156317920Y-77082440D01*
X156381420Y-77143400D01*
X156383960Y-77148480D01*
X156401740Y-77237380D01*
X156396660Y-77361840D01*
X156373800Y-77501540D01*
X156345860Y-77618380D01*
X156091860Y-77623460D01*
X156008040Y-77626000D01*
X155914060Y-77626000D01*
X155914060Y-78052720D01*
X155952160Y-78052720D01*
X156096940Y-78052720D01*
X156269660Y-78050180D01*
X156777660Y-78050180D01*
X156787820Y-78014620D01*
X156790360Y-78007000D01*
X156813220Y-77900320D01*
X156838620Y-77760620D01*
X156866560Y-77608220D01*
X156894500Y-77455820D01*
X156914820Y-77321200D01*
X156930060Y-77214520D01*
X156937680Y-77156100D01*
X156935140Y-77125620D01*
X156899580Y-76945280D01*
X156810680Y-76787800D01*
X156683680Y-76660800D01*
X156523660Y-76584600D01*
X156505880Y-76579520D01*
X156386500Y-76561740D01*
X156246800Y-76561740D01*
X156122340Y-76576980D01*
X156002960Y-76612540D01*
X155820080Y-76714140D01*
X155652440Y-76856380D01*
X155515280Y-77024020D01*
X155421300Y-77204360D01*
X155413680Y-77227220D01*
X155393360Y-77316120D01*
X155365420Y-77445660D01*
X155329860Y-77603140D01*
X155294300Y-77778400D01*
X155258740Y-77958740D01*
X155225720Y-78131460D01*
X155197780Y-78281320D01*
X155177460Y-78398160D01*
X155167300Y-78469280D01*
X155167300Y-78570880D01*
X155187620Y-78735980D01*
X155238420Y-78873140D01*
X155258740Y-78906160D01*
X155375580Y-79035700D01*
X155533060Y-79127140D01*
X155715940Y-79172860D01*
X155911520Y-79167780D01*
X155934380Y-79165240D01*
X156005500Y-79155080D01*
X156035980Y-79155080D01*
X156035980Y-79162700D01*
X156025820Y-79223660D01*
X156002960Y-79335420D01*
X155972480Y-79490360D01*
X155934380Y-79688480D01*
X155891200Y-79917080D01*
X155840400Y-80171080D01*
X155756580Y-80587640D01*
X155703240Y-80851800D01*
X155654980Y-81095640D01*
X155614340Y-81309000D01*
X155578780Y-81489340D01*
X155553380Y-81623960D01*
X155538140Y-81712860D01*
X155535600Y-81743340D01*
X155538140Y-81745880D01*
X155583860Y-81750960D01*
X155672760Y-81753500D01*
X155792140Y-81756040D01*
X155896280Y-81756040D01*
X155980100Y-81753500D01*
X156023280Y-81748420D01*
X156043600Y-81738260D01*
X156048680Y-81720480D01*
X156053760Y-81695080D01*
X156071540Y-81616340D01*
X156091860Y-81502040D01*
X156119800Y-81364880D01*
X156127420Y-81324240D01*
X156162980Y-81161680D01*
X156190920Y-81060080D01*
X156211240Y-81011820D01*
X156221400Y-81001660D01*
X156297600Y-80915300D01*
X156376340Y-80826400D01*
X156450000Y-80750200D01*
X156500800Y-80696860D01*
X156521120Y-80676540D01*
X156526200Y-80691780D01*
X156541440Y-80757820D01*
X156564300Y-80869580D01*
X156594780Y-81014360D01*
X156627800Y-81182000D01*
X156653200Y-81298840D01*
X156686220Y-81456320D01*
X156711620Y-81588400D01*
X156731940Y-81679840D01*
X156739560Y-81720480D01*
X156742100Y-81723020D01*
X156747180Y-81738260D01*
X156767500Y-81748420D01*
X156813220Y-81753500D01*
X156897040Y-81756040D01*
X157031660Y-81756040D01*
G36*
X155101260Y-87198980D02*
X155124120Y-87186280D01*
X155177460Y-87153260D01*
X155251120Y-87105000D01*
X155340020Y-87046580D01*
X155426380Y-86985620D01*
X155500040Y-86937360D01*
X155550840Y-86904340D01*
X155571160Y-86894180D01*
X155583860Y-86896720D01*
X155624500Y-86917040D01*
X155685460Y-86950060D01*
X155721020Y-86967840D01*
X155776900Y-86990700D01*
X155804840Y-86995780D01*
X155809920Y-86988160D01*
X155830240Y-86947520D01*
X155860720Y-86873860D01*
X155903900Y-86777340D01*
X155952160Y-86663040D01*
X156002960Y-86541120D01*
X156056300Y-86419200D01*
X156104560Y-86299820D01*
X156147740Y-86193140D01*
X156183300Y-86106780D01*
X156206160Y-86045820D01*
X156213780Y-86020420D01*
X156211240Y-86015340D01*
X156183300Y-85987400D01*
X156135040Y-85951840D01*
X156030900Y-85865480D01*
X155926760Y-85735940D01*
X155863260Y-85588620D01*
X155840400Y-85423520D01*
X155858180Y-85273660D01*
X155919140Y-85128880D01*
X156020740Y-84996800D01*
X156145200Y-84900280D01*
X156287440Y-84836780D01*
X156450000Y-84816460D01*
X156604940Y-84834240D01*
X156752260Y-84892660D01*
X156884340Y-84994260D01*
X156940220Y-85057760D01*
X157016420Y-85189840D01*
X157059600Y-85332080D01*
X157064680Y-85367640D01*
X157057060Y-85525120D01*
X157011340Y-85674980D01*
X156930060Y-85807060D01*
X156815760Y-85918820D01*
X156800520Y-85928980D01*
X156747180Y-85967080D01*
X156711620Y-85995020D01*
X156683680Y-86017880D01*
X156881800Y-86497940D01*
X156914820Y-86574140D01*
X156968160Y-86703680D01*
X157016420Y-86817980D01*
X157057060Y-86906880D01*
X157082460Y-86967840D01*
X157095160Y-86990700D01*
X157095160Y-86993240D01*
X157112940Y-86995780D01*
X157148500Y-86983080D01*
X157217080Y-86950060D01*
X157260260Y-86927200D01*
X157311060Y-86901800D01*
X157333920Y-86894180D01*
X157354240Y-86904340D01*
X157402500Y-86934820D01*
X157473620Y-86983080D01*
X157559980Y-87041500D01*
X157641260Y-87097380D01*
X157714920Y-87145640D01*
X157770800Y-87181200D01*
X157796200Y-87196440D01*
X157801280Y-87196440D01*
X157824140Y-87183740D01*
X157867320Y-87145640D01*
X157933360Y-87084680D01*
X158024800Y-86993240D01*
X158040040Y-86980540D01*
X158116240Y-86901800D01*
X158177200Y-86838300D01*
X158217840Y-86792580D01*
X158233080Y-86769720D01*
X158233080Y-86769720D01*
X158220380Y-86744320D01*
X158184820Y-86690980D01*
X158136560Y-86614780D01*
X158075600Y-86525880D01*
X157915580Y-86294740D01*
X158004480Y-86076300D01*
X158029880Y-86010260D01*
X158065440Y-85928980D01*
X158090840Y-85873100D01*
X158103540Y-85847700D01*
X158126400Y-85837540D01*
X158184820Y-85824840D01*
X158271180Y-85807060D01*
X158375320Y-85786740D01*
X158474380Y-85768960D01*
X158560740Y-85751180D01*
X158626780Y-85738480D01*
X158654720Y-85733400D01*
X158662340Y-85730860D01*
X158667420Y-85715620D01*
X158669960Y-85685140D01*
X158672500Y-85631800D01*
X158675040Y-85547980D01*
X158675040Y-85423520D01*
X158675040Y-85410820D01*
X158672500Y-85293980D01*
X158672500Y-85200000D01*
X158667420Y-85141580D01*
X158664880Y-85116180D01*
X158664880Y-85116180D01*
X158636940Y-85111100D01*
X158573440Y-85095860D01*
X158484540Y-85080620D01*
X158380400Y-85060300D01*
X158372780Y-85057760D01*
X158268640Y-85037440D01*
X158179740Y-85019660D01*
X158118780Y-85004420D01*
X158090840Y-84996800D01*
X158085760Y-84989180D01*
X158065440Y-84948540D01*
X158034960Y-84882500D01*
X157999400Y-84803760D01*
X157966380Y-84719940D01*
X157935900Y-84646280D01*
X157915580Y-84590400D01*
X157910500Y-84565000D01*
X157910500Y-84565000D01*
X157925740Y-84539600D01*
X157961300Y-84486260D01*
X158012100Y-84410060D01*
X158075600Y-84321160D01*
X158078140Y-84313540D01*
X158139100Y-84224640D01*
X158189900Y-84148440D01*
X158220380Y-84095100D01*
X158233080Y-84072240D01*
X158233080Y-84069700D01*
X158212760Y-84044300D01*
X158167040Y-83993500D01*
X158103540Y-83924920D01*
X158024800Y-83846180D01*
X157999400Y-83820780D01*
X157913040Y-83736960D01*
X157854620Y-83681080D01*
X157816520Y-83653140D01*
X157798740Y-83645520D01*
X157798740Y-83645520D01*
X157770800Y-83663300D01*
X157714920Y-83698860D01*
X157638720Y-83752200D01*
X157547280Y-83813160D01*
X157542200Y-83815700D01*
X157453300Y-83876660D01*
X157379640Y-83927460D01*
X157326300Y-83963020D01*
X157303440Y-83975720D01*
X157298360Y-83975720D01*
X157262800Y-83965560D01*
X157199300Y-83942700D01*
X157123100Y-83912220D01*
X157039280Y-83879200D01*
X156965620Y-83848720D01*
X156909740Y-83823320D01*
X156881800Y-83808080D01*
X156881800Y-83805540D01*
X156871640Y-83775060D01*
X156856400Y-83709020D01*
X156838620Y-83617580D01*
X156818300Y-83508360D01*
X156813220Y-83490580D01*
X156792900Y-83383900D01*
X156777660Y-83297540D01*
X156764960Y-83236580D01*
X156757340Y-83211180D01*
X156742100Y-83208640D01*
X156691300Y-83203560D01*
X156612560Y-83201020D01*
X156516040Y-83201020D01*
X156416980Y-83201020D01*
X156317920Y-83203560D01*
X156234100Y-83206100D01*
X156175680Y-83211180D01*
X156150280Y-83216260D01*
X156147740Y-83216260D01*
X156140120Y-83249280D01*
X156124880Y-83315320D01*
X156107100Y-83409300D01*
X156084240Y-83518520D01*
X156081700Y-83536300D01*
X156061380Y-83642980D01*
X156043600Y-83729340D01*
X156030900Y-83790300D01*
X156023280Y-83813160D01*
X156015660Y-83818240D01*
X155969940Y-83836020D01*
X155898820Y-83866500D01*
X155812460Y-83902060D01*
X155609260Y-83983340D01*
X155357800Y-83813160D01*
X155334940Y-83797920D01*
X155246040Y-83736960D01*
X155172380Y-83686160D01*
X155121580Y-83653140D01*
X155098720Y-83642980D01*
X155098720Y-83642980D01*
X155073320Y-83665840D01*
X155022520Y-83711560D01*
X154956480Y-83777600D01*
X154877740Y-83856340D01*
X154819320Y-83912220D01*
X154750740Y-83983340D01*
X154705020Y-84031600D01*
X154682160Y-84062080D01*
X154674540Y-84079860D01*
X154677080Y-84092560D01*
X154692320Y-84117960D01*
X154727880Y-84171300D01*
X154781220Y-84247500D01*
X154842180Y-84336400D01*
X154890440Y-84410060D01*
X154946320Y-84493880D01*
X154981880Y-84554840D01*
X154992040Y-84582780D01*
X154989500Y-84595480D01*
X154971720Y-84643740D01*
X154943780Y-84717400D01*
X154905680Y-84806300D01*
X154819320Y-85004420D01*
X154689780Y-85029820D01*
X154611040Y-85042520D01*
X154499280Y-85065380D01*
X154395140Y-85085700D01*
X154230040Y-85116180D01*
X154224960Y-85718160D01*
X154250360Y-85728320D01*
X154275760Y-85735940D01*
X154336720Y-85748640D01*
X154423080Y-85766420D01*
X154524680Y-85786740D01*
X154611040Y-85801980D01*
X154699940Y-85819760D01*
X154763440Y-85832460D01*
X154791380Y-85837540D01*
X154799000Y-85847700D01*
X154819320Y-85888340D01*
X154852340Y-85956920D01*
X154885360Y-86038200D01*
X154920920Y-86122020D01*
X154951400Y-86200760D01*
X154974260Y-86259180D01*
X154981880Y-86292200D01*
X154969180Y-86315060D01*
X154936160Y-86365860D01*
X154887900Y-86439520D01*
X154829480Y-86525880D01*
X154768520Y-86614780D01*
X154717720Y-86688440D01*
X154684700Y-86741780D01*
X154669460Y-86767180D01*
X154677080Y-86784960D01*
X154710100Y-86825600D01*
X154776140Y-86894180D01*
X154875200Y-86990700D01*
X154890440Y-87005940D01*
X154969180Y-87082140D01*
X155035220Y-87143100D01*
X155080940Y-87183740D01*
X155101260Y-87198980D01*
X155101260Y-87198980D01*
G37*
X155101260Y-87198980D02*
X155124120Y-87186280D01*
X155177460Y-87153260D01*
X155251120Y-87105000D01*
X155340020Y-87046580D01*
X155426380Y-86985620D01*
X155500040Y-86937360D01*
X155550840Y-86904340D01*
X155571160Y-86894180D01*
X155583860Y-86896720D01*
X155624500Y-86917040D01*
X155685460Y-86950060D01*
X155721020Y-86967840D01*
X155776900Y-86990700D01*
X155804840Y-86995780D01*
X155809920Y-86988160D01*
X155830240Y-86947520D01*
X155860720Y-86873860D01*
X155903900Y-86777340D01*
X155952160Y-86663040D01*
X156002960Y-86541120D01*
X156056300Y-86419200D01*
X156104560Y-86299820D01*
X156147740Y-86193140D01*
X156183300Y-86106780D01*
X156206160Y-86045820D01*
X156213780Y-86020420D01*
X156211240Y-86015340D01*
X156183300Y-85987400D01*
X156135040Y-85951840D01*
X156030900Y-85865480D01*
X155926760Y-85735940D01*
X155863260Y-85588620D01*
X155840400Y-85423520D01*
X155858180Y-85273660D01*
X155919140Y-85128880D01*
X156020740Y-84996800D01*
X156145200Y-84900280D01*
X156287440Y-84836780D01*
X156450000Y-84816460D01*
X156604940Y-84834240D01*
X156752260Y-84892660D01*
X156884340Y-84994260D01*
X156940220Y-85057760D01*
X157016420Y-85189840D01*
X157059600Y-85332080D01*
X157064680Y-85367640D01*
X157057060Y-85525120D01*
X157011340Y-85674980D01*
X156930060Y-85807060D01*
X156815760Y-85918820D01*
X156800520Y-85928980D01*
X156747180Y-85967080D01*
X156711620Y-85995020D01*
X156683680Y-86017880D01*
X156881800Y-86497940D01*
X156914820Y-86574140D01*
X156968160Y-86703680D01*
X157016420Y-86817980D01*
X157057060Y-86906880D01*
X157082460Y-86967840D01*
X157095160Y-86990700D01*
X157095160Y-86993240D01*
X157112940Y-86995780D01*
X157148500Y-86983080D01*
X157217080Y-86950060D01*
X157260260Y-86927200D01*
X157311060Y-86901800D01*
X157333920Y-86894180D01*
X157354240Y-86904340D01*
X157402500Y-86934820D01*
X157473620Y-86983080D01*
X157559980Y-87041500D01*
X157641260Y-87097380D01*
X157714920Y-87145640D01*
X157770800Y-87181200D01*
X157796200Y-87196440D01*
X157801280Y-87196440D01*
X157824140Y-87183740D01*
X157867320Y-87145640D01*
X157933360Y-87084680D01*
X158024800Y-86993240D01*
X158040040Y-86980540D01*
X158116240Y-86901800D01*
X158177200Y-86838300D01*
X158217840Y-86792580D01*
X158233080Y-86769720D01*
X158233080Y-86769720D01*
X158220380Y-86744320D01*
X158184820Y-86690980D01*
X158136560Y-86614780D01*
X158075600Y-86525880D01*
X157915580Y-86294740D01*
X158004480Y-86076300D01*
X158029880Y-86010260D01*
X158065440Y-85928980D01*
X158090840Y-85873100D01*
X158103540Y-85847700D01*
X158126400Y-85837540D01*
X158184820Y-85824840D01*
X158271180Y-85807060D01*
X158375320Y-85786740D01*
X158474380Y-85768960D01*
X158560740Y-85751180D01*
X158626780Y-85738480D01*
X158654720Y-85733400D01*
X158662340Y-85730860D01*
X158667420Y-85715620D01*
X158669960Y-85685140D01*
X158672500Y-85631800D01*
X158675040Y-85547980D01*
X158675040Y-85423520D01*
X158675040Y-85410820D01*
X158672500Y-85293980D01*
X158672500Y-85200000D01*
X158667420Y-85141580D01*
X158664880Y-85116180D01*
X158664880Y-85116180D01*
X158636940Y-85111100D01*
X158573440Y-85095860D01*
X158484540Y-85080620D01*
X158380400Y-85060300D01*
X158372780Y-85057760D01*
X158268640Y-85037440D01*
X158179740Y-85019660D01*
X158118780Y-85004420D01*
X158090840Y-84996800D01*
X158085760Y-84989180D01*
X158065440Y-84948540D01*
X158034960Y-84882500D01*
X157999400Y-84803760D01*
X157966380Y-84719940D01*
X157935900Y-84646280D01*
X157915580Y-84590400D01*
X157910500Y-84565000D01*
X157910500Y-84565000D01*
X157925740Y-84539600D01*
X157961300Y-84486260D01*
X158012100Y-84410060D01*
X158075600Y-84321160D01*
X158078140Y-84313540D01*
X158139100Y-84224640D01*
X158189900Y-84148440D01*
X158220380Y-84095100D01*
X158233080Y-84072240D01*
X158233080Y-84069700D01*
X158212760Y-84044300D01*
X158167040Y-83993500D01*
X158103540Y-83924920D01*
X158024800Y-83846180D01*
X157999400Y-83820780D01*
X157913040Y-83736960D01*
X157854620Y-83681080D01*
X157816520Y-83653140D01*
X157798740Y-83645520D01*
X157798740Y-83645520D01*
X157770800Y-83663300D01*
X157714920Y-83698860D01*
X157638720Y-83752200D01*
X157547280Y-83813160D01*
X157542200Y-83815700D01*
X157453300Y-83876660D01*
X157379640Y-83927460D01*
X157326300Y-83963020D01*
X157303440Y-83975720D01*
X157298360Y-83975720D01*
X157262800Y-83965560D01*
X157199300Y-83942700D01*
X157123100Y-83912220D01*
X157039280Y-83879200D01*
X156965620Y-83848720D01*
X156909740Y-83823320D01*
X156881800Y-83808080D01*
X156881800Y-83805540D01*
X156871640Y-83775060D01*
X156856400Y-83709020D01*
X156838620Y-83617580D01*
X156818300Y-83508360D01*
X156813220Y-83490580D01*
X156792900Y-83383900D01*
X156777660Y-83297540D01*
X156764960Y-83236580D01*
X156757340Y-83211180D01*
X156742100Y-83208640D01*
X156691300Y-83203560D01*
X156612560Y-83201020D01*
X156516040Y-83201020D01*
X156416980Y-83201020D01*
X156317920Y-83203560D01*
X156234100Y-83206100D01*
X156175680Y-83211180D01*
X156150280Y-83216260D01*
X156147740Y-83216260D01*
X156140120Y-83249280D01*
X156124880Y-83315320D01*
X156107100Y-83409300D01*
X156084240Y-83518520D01*
X156081700Y-83536300D01*
X156061380Y-83642980D01*
X156043600Y-83729340D01*
X156030900Y-83790300D01*
X156023280Y-83813160D01*
X156015660Y-83818240D01*
X155969940Y-83836020D01*
X155898820Y-83866500D01*
X155812460Y-83902060D01*
X155609260Y-83983340D01*
X155357800Y-83813160D01*
X155334940Y-83797920D01*
X155246040Y-83736960D01*
X155172380Y-83686160D01*
X155121580Y-83653140D01*
X155098720Y-83642980D01*
X155098720Y-83642980D01*
X155073320Y-83665840D01*
X155022520Y-83711560D01*
X154956480Y-83777600D01*
X154877740Y-83856340D01*
X154819320Y-83912220D01*
X154750740Y-83983340D01*
X154705020Y-84031600D01*
X154682160Y-84062080D01*
X154674540Y-84079860D01*
X154677080Y-84092560D01*
X154692320Y-84117960D01*
X154727880Y-84171300D01*
X154781220Y-84247500D01*
X154842180Y-84336400D01*
X154890440Y-84410060D01*
X154946320Y-84493880D01*
X154981880Y-84554840D01*
X154992040Y-84582780D01*
X154989500Y-84595480D01*
X154971720Y-84643740D01*
X154943780Y-84717400D01*
X154905680Y-84806300D01*
X154819320Y-85004420D01*
X154689780Y-85029820D01*
X154611040Y-85042520D01*
X154499280Y-85065380D01*
X154395140Y-85085700D01*
X154230040Y-85116180D01*
X154224960Y-85718160D01*
X154250360Y-85728320D01*
X154275760Y-85735940D01*
X154336720Y-85748640D01*
X154423080Y-85766420D01*
X154524680Y-85786740D01*
X154611040Y-85801980D01*
X154699940Y-85819760D01*
X154763440Y-85832460D01*
X154791380Y-85837540D01*
X154799000Y-85847700D01*
X154819320Y-85888340D01*
X154852340Y-85956920D01*
X154885360Y-86038200D01*
X154920920Y-86122020D01*
X154951400Y-86200760D01*
X154974260Y-86259180D01*
X154981880Y-86292200D01*
X154969180Y-86315060D01*
X154936160Y-86365860D01*
X154887900Y-86439520D01*
X154829480Y-86525880D01*
X154768520Y-86614780D01*
X154717720Y-86688440D01*
X154684700Y-86741780D01*
X154669460Y-86767180D01*
X154677080Y-86784960D01*
X154710100Y-86825600D01*
X154776140Y-86894180D01*
X154875200Y-86990700D01*
X154890440Y-87005940D01*
X154969180Y-87082140D01*
X155035220Y-87143100D01*
X155080940Y-87183740D01*
X155101260Y-87198980D01*
D19*
X152500000Y-84000000D02*
X107500000Y-84000000D01*
X107500000Y-84000000D02*
X107500000Y-66000000D01*
X107500000Y-66000000D02*
X152500000Y-66000000D01*
X152500000Y-66000000D02*
X152500000Y-84000000D01*
D12*
X146400000Y-93600000D02*
X146900000Y-93600000D01*
X160000000Y-93600000D02*
X151300000Y-93600000D01*
X146400000Y-102400000D02*
X160000000Y-102400000D01*
X146400000Y-102400000D02*
X146400000Y-100600000D01*
X146400000Y-93600000D02*
X146400000Y-95400000D01*
X136600000Y-92550000D02*
G75*
G03X134500000Y-94650000I0J-2100000D01*
G01*
X134500000Y-94650000D02*
G75*
G03X136600000Y-96750000I2100000J0D01*
G01*
X139500000Y-92550000D02*
X136600000Y-92550000D01*
X139500000Y-96750000D02*
X136600000Y-96750000D01*
X139500000Y-96750000D02*
G75*
G03X141600000Y-94650000I0J2100000D01*
G01*
X141600000Y-94650000D02*
G75*
G03X139500000Y-92550000I-2100000J0D01*
G01*
X125499560Y-86799520D02*
X125499560Y-88600380D01*
X125499560Y-86799520D02*
X126149800Y-86799520D01*
X130000440Y-86799520D02*
X130000440Y-88600380D01*
X130000440Y-86799520D02*
X129350200Y-86799520D01*
X103404762Y-92147619D02*
X103309524Y-92100000D01*
X103214286Y-92004762D01*
X103071429Y-91861905D01*
X102976190Y-91814286D01*
X102880952Y-91814286D01*
X102928571Y-92052381D02*
X102833333Y-92004762D01*
X102738095Y-91909524D01*
X102690476Y-91719048D01*
X102690476Y-91385714D01*
X102738095Y-91195238D01*
X102833333Y-91100000D01*
X102928571Y-91052381D01*
X103119048Y-91052381D01*
X103214286Y-91100000D01*
X103309524Y-91195238D01*
X103357143Y-91385714D01*
X103357143Y-91719048D01*
X103309524Y-91909524D01*
X103214286Y-92004762D01*
X103119048Y-92052381D01*
X102928571Y-92052381D01*
X104309524Y-92052381D02*
X103738095Y-92052381D01*
X104023809Y-92052381D02*
X104023809Y-91052381D01*
X103928571Y-91195238D01*
X103833333Y-91290476D01*
X103738095Y-91338095D01*
D20*
X111954762Y-92647619D02*
X111859524Y-92600000D01*
X111764286Y-92504762D01*
X111621429Y-92361905D01*
X111526190Y-92314286D01*
X111430952Y-92314286D01*
X111478571Y-92552381D02*
X111383333Y-92504762D01*
X111288095Y-92409524D01*
X111240476Y-92219048D01*
X111240476Y-91885714D01*
X111288095Y-91695238D01*
X111383333Y-91600000D01*
X111478571Y-91552381D01*
X111669048Y-91552381D01*
X111764286Y-91600000D01*
X111859524Y-91695238D01*
X111907143Y-91885714D01*
X111907143Y-92219048D01*
X111859524Y-92409524D01*
X111764286Y-92504762D01*
X111669048Y-92552381D01*
X111478571Y-92552381D01*
X112288095Y-91647619D02*
X112335714Y-91600000D01*
X112430952Y-91552381D01*
X112669048Y-91552381D01*
X112764286Y-91600000D01*
X112811905Y-91647619D01*
X112859524Y-91742857D01*
X112859524Y-91838095D01*
X112811905Y-91980952D01*
X112240476Y-92552381D01*
X112859524Y-92552381D01*
D12*
X107507143Y-92302381D02*
X107173809Y-91826190D01*
X106935714Y-92302381D02*
X106935714Y-91302381D01*
X107316667Y-91302381D01*
X107411905Y-91350000D01*
X107459524Y-91397619D01*
X107507143Y-91492857D01*
X107507143Y-91635714D01*
X107459524Y-91730952D01*
X107411905Y-91778571D01*
X107316667Y-91826190D01*
X106935714Y-91826190D01*
X108459524Y-92302381D02*
X107888095Y-92302381D01*
X108173809Y-92302381D02*
X108173809Y-91302381D01*
X108078571Y-91445238D01*
X107983333Y-91540476D01*
X107888095Y-91588095D01*
X109411905Y-92302381D02*
X108840476Y-92302381D01*
X109126190Y-92302381D02*
X109126190Y-91302381D01*
X109030952Y-91445238D01*
X108935714Y-91540476D01*
X108840476Y-91588095D01*
X117488095Y-99002381D02*
X117488095Y-99811905D01*
X117535714Y-99907143D01*
X117583333Y-99954762D01*
X117678571Y-100002381D01*
X117869048Y-100002381D01*
X117964286Y-99954762D01*
X118011905Y-99907143D01*
X118059524Y-99811905D01*
X118059524Y-99002381D01*
X118488095Y-99097619D02*
X118535714Y-99050000D01*
X118630952Y-99002381D01*
X118869048Y-99002381D01*
X118964286Y-99050000D01*
X119011905Y-99097619D01*
X119059524Y-99192857D01*
X119059524Y-99288095D01*
X119011905Y-99430952D01*
X118440476Y-100002381D01*
X119059524Y-100002381D01*
X143188095Y-84502381D02*
X143188095Y-85311905D01*
X143235714Y-85407143D01*
X143283333Y-85454762D01*
X143378571Y-85502381D01*
X143569048Y-85502381D01*
X143664286Y-85454762D01*
X143711905Y-85407143D01*
X143759524Y-85311905D01*
X143759524Y-84502381D01*
X144759524Y-85502381D02*
X144188095Y-85502381D01*
X144473809Y-85502381D02*
X144473809Y-84502381D01*
X144378571Y-84645238D01*
X144283333Y-84740476D01*
X144188095Y-84788095D01*
X143307143Y-90352381D02*
X142973809Y-89876190D01*
X142735714Y-90352381D02*
X142735714Y-89352381D01*
X143116667Y-89352381D01*
X143211905Y-89400000D01*
X143259524Y-89447619D01*
X143307143Y-89542857D01*
X143307143Y-89685714D01*
X143259524Y-89780952D01*
X143211905Y-89828571D01*
X143116667Y-89876190D01*
X142735714Y-89876190D01*
X144259524Y-90352381D02*
X143688095Y-90352381D01*
X143973809Y-90352381D02*
X143973809Y-89352381D01*
X143878571Y-89495238D01*
X143783333Y-89590476D01*
X143688095Y-89638095D01*
X144878571Y-89352381D02*
X144973810Y-89352381D01*
X145069048Y-89400000D01*
X145116667Y-89447619D01*
X145164286Y-89542857D01*
X145211905Y-89733333D01*
X145211905Y-89971429D01*
X145164286Y-90161905D01*
X145116667Y-90257143D01*
X145069048Y-90304762D01*
X144973810Y-90352381D01*
X144878571Y-90352381D01*
X144783333Y-90304762D01*
X144735714Y-90257143D01*
X144688095Y-90161905D01*
X144640476Y-89971429D01*
X144640476Y-89733333D01*
X144688095Y-89542857D01*
X144735714Y-89447619D01*
X144783333Y-89400000D01*
X144878571Y-89352381D01*
X120433334Y-92152381D02*
X120100000Y-91676190D01*
X119861905Y-92152381D02*
X119861905Y-91152381D01*
X120242858Y-91152381D01*
X120338096Y-91200000D01*
X120385715Y-91247619D01*
X120433334Y-91342857D01*
X120433334Y-91485714D01*
X120385715Y-91580952D01*
X120338096Y-91628571D01*
X120242858Y-91676190D01*
X119861905Y-91676190D01*
X120909524Y-92152381D02*
X121100000Y-92152381D01*
X121195239Y-92104762D01*
X121242858Y-92057143D01*
X121338096Y-91914286D01*
X121385715Y-91723810D01*
X121385715Y-91342857D01*
X121338096Y-91247619D01*
X121290477Y-91200000D01*
X121195239Y-91152381D01*
X121004762Y-91152381D01*
X120909524Y-91200000D01*
X120861905Y-91247619D01*
X120814286Y-91342857D01*
X120814286Y-91580952D01*
X120861905Y-91676190D01*
X120909524Y-91723810D01*
X121004762Y-91771429D01*
X121195239Y-91771429D01*
X121290477Y-91723810D01*
X121338096Y-91676190D01*
X121385715Y-91580952D01*
X132483334Y-92402381D02*
X132150000Y-91926190D01*
X131911905Y-92402381D02*
X131911905Y-91402381D01*
X132292858Y-91402381D01*
X132388096Y-91450000D01*
X132435715Y-91497619D01*
X132483334Y-91592857D01*
X132483334Y-91735714D01*
X132435715Y-91830952D01*
X132388096Y-91878571D01*
X132292858Y-91926190D01*
X131911905Y-91926190D01*
X133054762Y-91830952D02*
X132959524Y-91783333D01*
X132911905Y-91735714D01*
X132864286Y-91640476D01*
X132864286Y-91592857D01*
X132911905Y-91497619D01*
X132959524Y-91450000D01*
X133054762Y-91402381D01*
X133245239Y-91402381D01*
X133340477Y-91450000D01*
X133388096Y-91497619D01*
X133435715Y-91592857D01*
X133435715Y-91640476D01*
X133388096Y-91735714D01*
X133340477Y-91783333D01*
X133245239Y-91830952D01*
X133054762Y-91830952D01*
X132959524Y-91878571D01*
X132911905Y-91926190D01*
X132864286Y-92021429D01*
X132864286Y-92211905D01*
X132911905Y-92307143D01*
X132959524Y-92354762D01*
X133054762Y-92402381D01*
X133245239Y-92402381D01*
X133340477Y-92354762D01*
X133388096Y-92307143D01*
X133435715Y-92211905D01*
X133435715Y-92021429D01*
X133388096Y-91926190D01*
X133340477Y-91878571D01*
X133245239Y-91830952D01*
X120433334Y-95802381D02*
X120100000Y-95326190D01*
X119861905Y-95802381D02*
X119861905Y-94802381D01*
X120242858Y-94802381D01*
X120338096Y-94850000D01*
X120385715Y-94897619D01*
X120433334Y-94992857D01*
X120433334Y-95135714D01*
X120385715Y-95230952D01*
X120338096Y-95278571D01*
X120242858Y-95326190D01*
X119861905Y-95326190D01*
X120766667Y-94802381D02*
X121433334Y-94802381D01*
X121004762Y-95802381D01*
X127183334Y-98952381D02*
X126850000Y-98476190D01*
X126611905Y-98952381D02*
X126611905Y-97952381D01*
X126992858Y-97952381D01*
X127088096Y-98000000D01*
X127135715Y-98047619D01*
X127183334Y-98142857D01*
X127183334Y-98285714D01*
X127135715Y-98380952D01*
X127088096Y-98428571D01*
X126992858Y-98476190D01*
X126611905Y-98476190D01*
X128040477Y-97952381D02*
X127850000Y-97952381D01*
X127754762Y-98000000D01*
X127707143Y-98047619D01*
X127611905Y-98190476D01*
X127564286Y-98380952D01*
X127564286Y-98761905D01*
X127611905Y-98857143D01*
X127659524Y-98904762D01*
X127754762Y-98952381D01*
X127945239Y-98952381D01*
X128040477Y-98904762D01*
X128088096Y-98857143D01*
X128135715Y-98761905D01*
X128135715Y-98523810D01*
X128088096Y-98428571D01*
X128040477Y-98380952D01*
X127945239Y-98333333D01*
X127754762Y-98333333D01*
X127659524Y-98380952D01*
X127611905Y-98428571D01*
X127564286Y-98523810D01*
X114333334Y-88302381D02*
X114000000Y-87826190D01*
X113761905Y-88302381D02*
X113761905Y-87302381D01*
X114142858Y-87302381D01*
X114238096Y-87350000D01*
X114285715Y-87397619D01*
X114333334Y-87492857D01*
X114333334Y-87635714D01*
X114285715Y-87730952D01*
X114238096Y-87778571D01*
X114142858Y-87826190D01*
X113761905Y-87826190D01*
X115238096Y-87302381D02*
X114761905Y-87302381D01*
X114714286Y-87778571D01*
X114761905Y-87730952D01*
X114857143Y-87683333D01*
X115095239Y-87683333D01*
X115190477Y-87730952D01*
X115238096Y-87778571D01*
X115285715Y-87873810D01*
X115285715Y-88111905D01*
X115238096Y-88207143D01*
X115190477Y-88254762D01*
X115095239Y-88302381D01*
X114857143Y-88302381D01*
X114761905Y-88254762D01*
X114714286Y-88207143D01*
X133833334Y-98952381D02*
X133500000Y-98476190D01*
X133261905Y-98952381D02*
X133261905Y-97952381D01*
X133642858Y-97952381D01*
X133738096Y-98000000D01*
X133785715Y-98047619D01*
X133833334Y-98142857D01*
X133833334Y-98285714D01*
X133785715Y-98380952D01*
X133738096Y-98428571D01*
X133642858Y-98476190D01*
X133261905Y-98476190D01*
X134690477Y-98285714D02*
X134690477Y-98952381D01*
X134452381Y-97904762D02*
X134214286Y-98619048D01*
X134833334Y-98619048D01*
X108733334Y-88302381D02*
X108400000Y-87826190D01*
X108161905Y-88302381D02*
X108161905Y-87302381D01*
X108542858Y-87302381D01*
X108638096Y-87350000D01*
X108685715Y-87397619D01*
X108733334Y-87492857D01*
X108733334Y-87635714D01*
X108685715Y-87730952D01*
X108638096Y-87778571D01*
X108542858Y-87826190D01*
X108161905Y-87826190D01*
X109066667Y-87302381D02*
X109685715Y-87302381D01*
X109352381Y-87683333D01*
X109495239Y-87683333D01*
X109590477Y-87730952D01*
X109638096Y-87778571D01*
X109685715Y-87873810D01*
X109685715Y-88111905D01*
X109638096Y-88207143D01*
X109590477Y-88254762D01*
X109495239Y-88302381D01*
X109209524Y-88302381D01*
X109114286Y-88254762D01*
X109066667Y-88207143D01*
X140333334Y-98952381D02*
X140000000Y-98476190D01*
X139761905Y-98952381D02*
X139761905Y-97952381D01*
X140142858Y-97952381D01*
X140238096Y-98000000D01*
X140285715Y-98047619D01*
X140333334Y-98142857D01*
X140333334Y-98285714D01*
X140285715Y-98380952D01*
X140238096Y-98428571D01*
X140142858Y-98476190D01*
X139761905Y-98476190D01*
X140714286Y-98047619D02*
X140761905Y-98000000D01*
X140857143Y-97952381D01*
X141095239Y-97952381D01*
X141190477Y-98000000D01*
X141238096Y-98047619D01*
X141285715Y-98142857D01*
X141285715Y-98238095D01*
X141238096Y-98380952D01*
X140666667Y-98952381D01*
X141285715Y-98952381D01*
X103383334Y-85602381D02*
X103050000Y-85126190D01*
X102811905Y-85602381D02*
X102811905Y-84602381D01*
X103192858Y-84602381D01*
X103288096Y-84650000D01*
X103335715Y-84697619D01*
X103383334Y-84792857D01*
X103383334Y-84935714D01*
X103335715Y-85030952D01*
X103288096Y-85078571D01*
X103192858Y-85126190D01*
X102811905Y-85126190D01*
X104335715Y-85602381D02*
X103764286Y-85602381D01*
X104050000Y-85602381D02*
X104050000Y-84602381D01*
X103954762Y-84745238D01*
X103859524Y-84840476D01*
X103764286Y-84888095D01*
X117607143Y-105507143D02*
X117559524Y-105554762D01*
X117416667Y-105602381D01*
X117321429Y-105602381D01*
X117178571Y-105554762D01*
X117083333Y-105459524D01*
X117035714Y-105364286D01*
X116988095Y-105173810D01*
X116988095Y-105030952D01*
X117035714Y-104840476D01*
X117083333Y-104745238D01*
X117178571Y-104650000D01*
X117321429Y-104602381D01*
X117416667Y-104602381D01*
X117559524Y-104650000D01*
X117607143Y-104697619D01*
X118559524Y-105602381D02*
X117988095Y-105602381D01*
X118273809Y-105602381D02*
X118273809Y-104602381D01*
X118178571Y-104745238D01*
X118083333Y-104840476D01*
X117988095Y-104888095D01*
X119511905Y-105602381D02*
X118940476Y-105602381D01*
X119226190Y-105602381D02*
X119226190Y-104602381D01*
X119130952Y-104745238D01*
X119035714Y-104840476D01*
X118940476Y-104888095D01*
X121457143Y-99507143D02*
X121409524Y-99554762D01*
X121266667Y-99602381D01*
X121171429Y-99602381D01*
X121028571Y-99554762D01*
X120933333Y-99459524D01*
X120885714Y-99364286D01*
X120838095Y-99173810D01*
X120838095Y-99030952D01*
X120885714Y-98840476D01*
X120933333Y-98745238D01*
X121028571Y-98650000D01*
X121171429Y-98602381D01*
X121266667Y-98602381D01*
X121409524Y-98650000D01*
X121457143Y-98697619D01*
X122409524Y-99602381D02*
X121838095Y-99602381D01*
X122123809Y-99602381D02*
X122123809Y-98602381D01*
X122028571Y-98745238D01*
X121933333Y-98840476D01*
X121838095Y-98888095D01*
X123028571Y-98602381D02*
X123123810Y-98602381D01*
X123219048Y-98650000D01*
X123266667Y-98697619D01*
X123314286Y-98792857D01*
X123361905Y-98983333D01*
X123361905Y-99221429D01*
X123314286Y-99411905D01*
X123266667Y-99507143D01*
X123219048Y-99554762D01*
X123123810Y-99602381D01*
X123028571Y-99602381D01*
X122933333Y-99554762D01*
X122885714Y-99507143D01*
X122838095Y-99411905D01*
X122790476Y-99221429D01*
X122790476Y-98983333D01*
X122838095Y-98792857D01*
X122885714Y-98697619D01*
X122933333Y-98650000D01*
X123028571Y-98602381D01*
X114083334Y-99507143D02*
X114035715Y-99554762D01*
X113892858Y-99602381D01*
X113797620Y-99602381D01*
X113654762Y-99554762D01*
X113559524Y-99459524D01*
X113511905Y-99364286D01*
X113464286Y-99173810D01*
X113464286Y-99030952D01*
X113511905Y-98840476D01*
X113559524Y-98745238D01*
X113654762Y-98650000D01*
X113797620Y-98602381D01*
X113892858Y-98602381D01*
X114035715Y-98650000D01*
X114083334Y-98697619D01*
X114559524Y-99602381D02*
X114750000Y-99602381D01*
X114845239Y-99554762D01*
X114892858Y-99507143D01*
X114988096Y-99364286D01*
X115035715Y-99173810D01*
X115035715Y-98792857D01*
X114988096Y-98697619D01*
X114940477Y-98650000D01*
X114845239Y-98602381D01*
X114654762Y-98602381D01*
X114559524Y-98650000D01*
X114511905Y-98697619D01*
X114464286Y-98792857D01*
X114464286Y-99030952D01*
X114511905Y-99126190D01*
X114559524Y-99173810D01*
X114654762Y-99221429D01*
X114845239Y-99221429D01*
X114940477Y-99173810D01*
X114988096Y-99126190D01*
X115035715Y-99030952D01*
X137833334Y-85857143D02*
X137785715Y-85904762D01*
X137642858Y-85952381D01*
X137547620Y-85952381D01*
X137404762Y-85904762D01*
X137309524Y-85809524D01*
X137261905Y-85714286D01*
X137214286Y-85523810D01*
X137214286Y-85380952D01*
X137261905Y-85190476D01*
X137309524Y-85095238D01*
X137404762Y-85000000D01*
X137547620Y-84952381D01*
X137642858Y-84952381D01*
X137785715Y-85000000D01*
X137833334Y-85047619D01*
X138404762Y-85380952D02*
X138309524Y-85333333D01*
X138261905Y-85285714D01*
X138214286Y-85190476D01*
X138214286Y-85142857D01*
X138261905Y-85047619D01*
X138309524Y-85000000D01*
X138404762Y-84952381D01*
X138595239Y-84952381D01*
X138690477Y-85000000D01*
X138738096Y-85047619D01*
X138785715Y-85142857D01*
X138785715Y-85190476D01*
X138738096Y-85285714D01*
X138690477Y-85333333D01*
X138595239Y-85380952D01*
X138404762Y-85380952D01*
X138309524Y-85428571D01*
X138261905Y-85476190D01*
X138214286Y-85571429D01*
X138214286Y-85761905D01*
X138261905Y-85857143D01*
X138309524Y-85904762D01*
X138404762Y-85952381D01*
X138595239Y-85952381D01*
X138690477Y-85904762D01*
X138738096Y-85857143D01*
X138785715Y-85761905D01*
X138785715Y-85571429D01*
X138738096Y-85476190D01*
X138690477Y-85428571D01*
X138595239Y-85380952D01*
X147433334Y-88407143D02*
X147385715Y-88454762D01*
X147242858Y-88502381D01*
X147147620Y-88502381D01*
X147004762Y-88454762D01*
X146909524Y-88359524D01*
X146861905Y-88264286D01*
X146814286Y-88073810D01*
X146814286Y-87930952D01*
X146861905Y-87740476D01*
X146909524Y-87645238D01*
X147004762Y-87550000D01*
X147147620Y-87502381D01*
X147242858Y-87502381D01*
X147385715Y-87550000D01*
X147433334Y-87597619D01*
X147766667Y-87502381D02*
X148433334Y-87502381D01*
X148004762Y-88502381D01*
X132483334Y-85807143D02*
X132435715Y-85854762D01*
X132292858Y-85902381D01*
X132197620Y-85902381D01*
X132054762Y-85854762D01*
X131959524Y-85759524D01*
X131911905Y-85664286D01*
X131864286Y-85473810D01*
X131864286Y-85330952D01*
X131911905Y-85140476D01*
X131959524Y-85045238D01*
X132054762Y-84950000D01*
X132197620Y-84902381D01*
X132292858Y-84902381D01*
X132435715Y-84950000D01*
X132483334Y-84997619D01*
X133340477Y-84902381D02*
X133150000Y-84902381D01*
X133054762Y-84950000D01*
X133007143Y-84997619D01*
X132911905Y-85140476D01*
X132864286Y-85330952D01*
X132864286Y-85711905D01*
X132911905Y-85807143D01*
X132959524Y-85854762D01*
X133054762Y-85902381D01*
X133245239Y-85902381D01*
X133340477Y-85854762D01*
X133388096Y-85807143D01*
X133435715Y-85711905D01*
X133435715Y-85473810D01*
X133388096Y-85378571D01*
X133340477Y-85330952D01*
X133245239Y-85283333D01*
X133054762Y-85283333D01*
X132959524Y-85330952D01*
X132911905Y-85378571D01*
X132864286Y-85473810D01*
X120333334Y-88307143D02*
X120285715Y-88354762D01*
X120142858Y-88402381D01*
X120047620Y-88402381D01*
X119904762Y-88354762D01*
X119809524Y-88259524D01*
X119761905Y-88164286D01*
X119714286Y-87973810D01*
X119714286Y-87830952D01*
X119761905Y-87640476D01*
X119809524Y-87545238D01*
X119904762Y-87450000D01*
X120047620Y-87402381D01*
X120142858Y-87402381D01*
X120285715Y-87450000D01*
X120333334Y-87497619D01*
X121238096Y-87402381D02*
X120761905Y-87402381D01*
X120714286Y-87878571D01*
X120761905Y-87830952D01*
X120857143Y-87783333D01*
X121095239Y-87783333D01*
X121190477Y-87830952D01*
X121238096Y-87878571D01*
X121285715Y-87973810D01*
X121285715Y-88211905D01*
X121238096Y-88307143D01*
X121190477Y-88354762D01*
X121095239Y-88402381D01*
X120857143Y-88402381D01*
X120761905Y-88354762D01*
X120714286Y-88307143D01*
X147483334Y-90807143D02*
X147435715Y-90854762D01*
X147292858Y-90902381D01*
X147197620Y-90902381D01*
X147054762Y-90854762D01*
X146959524Y-90759524D01*
X146911905Y-90664286D01*
X146864286Y-90473810D01*
X146864286Y-90330952D01*
X146911905Y-90140476D01*
X146959524Y-90045238D01*
X147054762Y-89950000D01*
X147197620Y-89902381D01*
X147292858Y-89902381D01*
X147435715Y-89950000D01*
X147483334Y-89997619D01*
X148340477Y-90235714D02*
X148340477Y-90902381D01*
X148102381Y-89854762D02*
X147864286Y-90569048D01*
X148483334Y-90569048D01*
X128533334Y-92657143D02*
X128485715Y-92704762D01*
X128342858Y-92752381D01*
X128247620Y-92752381D01*
X128104762Y-92704762D01*
X128009524Y-92609524D01*
X127961905Y-92514286D01*
X127914286Y-92323810D01*
X127914286Y-92180952D01*
X127961905Y-91990476D01*
X128009524Y-91895238D01*
X128104762Y-91800000D01*
X128247620Y-91752381D01*
X128342858Y-91752381D01*
X128485715Y-91800000D01*
X128533334Y-91847619D01*
X128866667Y-91752381D02*
X129485715Y-91752381D01*
X129152381Y-92133333D01*
X129295239Y-92133333D01*
X129390477Y-92180952D01*
X129438096Y-92228571D01*
X129485715Y-92323810D01*
X129485715Y-92561905D01*
X129438096Y-92657143D01*
X129390477Y-92704762D01*
X129295239Y-92752381D01*
X129009524Y-92752381D01*
X128914286Y-92704762D01*
X128866667Y-92657143D01*
X147483334Y-85907143D02*
X147435715Y-85954762D01*
X147292858Y-86002381D01*
X147197620Y-86002381D01*
X147054762Y-85954762D01*
X146959524Y-85859524D01*
X146911905Y-85764286D01*
X146864286Y-85573810D01*
X146864286Y-85430952D01*
X146911905Y-85240476D01*
X146959524Y-85145238D01*
X147054762Y-85050000D01*
X147197620Y-85002381D01*
X147292858Y-85002381D01*
X147435715Y-85050000D01*
X147483334Y-85097619D01*
X147864286Y-85097619D02*
X147911905Y-85050000D01*
X148007143Y-85002381D01*
X148245239Y-85002381D01*
X148340477Y-85050000D01*
X148388096Y-85097619D01*
X148435715Y-85192857D01*
X148435715Y-85288095D01*
X148388096Y-85430952D01*
X147816667Y-86002381D01*
X148435715Y-86002381D01*
X115883334Y-92157143D02*
X115835715Y-92204762D01*
X115692858Y-92252381D01*
X115597620Y-92252381D01*
X115454762Y-92204762D01*
X115359524Y-92109524D01*
X115311905Y-92014286D01*
X115264286Y-91823810D01*
X115264286Y-91680952D01*
X115311905Y-91490476D01*
X115359524Y-91395238D01*
X115454762Y-91300000D01*
X115597620Y-91252381D01*
X115692858Y-91252381D01*
X115835715Y-91300000D01*
X115883334Y-91347619D01*
X116835715Y-92252381D02*
X116264286Y-92252381D01*
X116550000Y-92252381D02*
X116550000Y-91252381D01*
X116454762Y-91395238D01*
X116359524Y-91490476D01*
X116264286Y-91538095D01*
X138966667Y-60902381D02*
X138966667Y-61616667D01*
X138919047Y-61759524D01*
X138823809Y-61854762D01*
X138680952Y-61902381D01*
X138585714Y-61902381D01*
X139395238Y-60997619D02*
X139442857Y-60950000D01*
X139538095Y-60902381D01*
X139776191Y-60902381D01*
X139871429Y-60950000D01*
X139919048Y-60997619D01*
X139966667Y-61092857D01*
X139966667Y-61188095D01*
X139919048Y-61330952D01*
X139347619Y-61902381D01*
X139966667Y-61902381D01*
X107226667Y-60902381D02*
X107226667Y-61616667D01*
X107179047Y-61759524D01*
X107083809Y-61854762D01*
X106940952Y-61902381D01*
X106845714Y-61902381D01*
X107607619Y-60902381D02*
X108226667Y-60902381D01*
X107893333Y-61283333D01*
X108036191Y-61283333D01*
X108131429Y-61330952D01*
X108179048Y-61378571D01*
X108226667Y-61473810D01*
X108226667Y-61711905D01*
X108179048Y-61807143D01*
X108131429Y-61854762D01*
X108036191Y-61902381D01*
X107750476Y-61902381D01*
X107655238Y-61854762D01*
X107607619Y-61807143D01*
D14*
X104578571Y-72478571D02*
X104578571Y-70978571D01*
X104978571Y-72050000D01*
X105378571Y-70978571D01*
X105378571Y-72478571D01*
X106578572Y-72478571D02*
X105892857Y-72478571D01*
X106235715Y-72478571D02*
X106235715Y-70978571D01*
X106121429Y-71192857D01*
X106007143Y-71335714D01*
X105892857Y-71407143D01*
D12*
X155288095Y-88152381D02*
X155859524Y-88152381D01*
X155573809Y-89152381D02*
X155573809Y-88152381D01*
X156192857Y-89152381D02*
X156192857Y-88152381D01*
X156573810Y-88152381D01*
X156669048Y-88200000D01*
X156716667Y-88247619D01*
X156764286Y-88342857D01*
X156764286Y-88485714D01*
X156716667Y-88580952D01*
X156669048Y-88628571D01*
X156573810Y-88676190D01*
X156192857Y-88676190D01*
X157097619Y-88152381D02*
X157716667Y-88152381D01*
X157383333Y-88533333D01*
X157526191Y-88533333D01*
X157621429Y-88580952D01*
X157669048Y-88628571D01*
X157716667Y-88723810D01*
X157716667Y-88961905D01*
X157669048Y-89057143D01*
X157621429Y-89104762D01*
X157526191Y-89152381D01*
X157240476Y-89152381D01*
X157145238Y-89104762D01*
X157097619Y-89057143D01*
X102188095Y-96202381D02*
X102759524Y-96202381D01*
X102473809Y-97202381D02*
X102473809Y-96202381D01*
X103092857Y-97202381D02*
X103092857Y-96202381D01*
X103473810Y-96202381D01*
X103569048Y-96250000D01*
X103616667Y-96297619D01*
X103664286Y-96392857D01*
X103664286Y-96535714D01*
X103616667Y-96630952D01*
X103569048Y-96678571D01*
X103473810Y-96726190D01*
X103092857Y-96726190D01*
X104045238Y-96297619D02*
X104092857Y-96250000D01*
X104188095Y-96202381D01*
X104426191Y-96202381D01*
X104521429Y-96250000D01*
X104569048Y-96297619D01*
X104616667Y-96392857D01*
X104616667Y-96488095D01*
X104569048Y-96630952D01*
X103997619Y-97202381D01*
X104616667Y-97202381D01*
X154788095Y-70952381D02*
X155359524Y-70952381D01*
X155073809Y-71952381D02*
X155073809Y-70952381D01*
X155692857Y-71952381D02*
X155692857Y-70952381D01*
X156073810Y-70952381D01*
X156169048Y-71000000D01*
X156216667Y-71047619D01*
X156264286Y-71142857D01*
X156264286Y-71285714D01*
X156216667Y-71380952D01*
X156169048Y-71428571D01*
X156073810Y-71476190D01*
X155692857Y-71476190D01*
X157216667Y-71952381D02*
X156645238Y-71952381D01*
X156930952Y-71952381D02*
X156930952Y-70952381D01*
X156835714Y-71095238D01*
X156740476Y-71190476D01*
X156645238Y-71238095D01*
D14*
X147316667Y-102792857D02*
X147316667Y-103650000D01*
X147269047Y-103821429D01*
X147173809Y-103935714D01*
X147030952Y-103992857D01*
X146935714Y-103992857D01*
X148316667Y-103992857D02*
X147745238Y-103992857D01*
X148030952Y-103992857D02*
X148030952Y-102792857D01*
X147935714Y-102964286D01*
X147840476Y-103078571D01*
X147745238Y-103135714D01*
D12*
X108666667Y-102102381D02*
X108666667Y-102816667D01*
X108619047Y-102959524D01*
X108523809Y-103054762D01*
X108380952Y-103102381D01*
X108285714Y-103102381D01*
X109142857Y-103102381D02*
X109142857Y-102102381D01*
X109523810Y-102102381D01*
X109619048Y-102150000D01*
X109666667Y-102197619D01*
X109714286Y-102292857D01*
X109714286Y-102435714D01*
X109666667Y-102530952D01*
X109619048Y-102578571D01*
X109523810Y-102626190D01*
X109142857Y-102626190D01*
X110095238Y-102197619D02*
X110142857Y-102150000D01*
X110238095Y-102102381D01*
X110476191Y-102102381D01*
X110571429Y-102150000D01*
X110619048Y-102197619D01*
X110666667Y-102292857D01*
X110666667Y-102388095D01*
X110619048Y-102530952D01*
X110047619Y-103102381D01*
X110666667Y-103102381D01*
X113266667Y-85452381D02*
X113266667Y-86166667D01*
X113219047Y-86309524D01*
X113123809Y-86404762D01*
X112980952Y-86452381D01*
X112885714Y-86452381D01*
X113742857Y-86452381D02*
X113742857Y-85452381D01*
X114123810Y-85452381D01*
X114219048Y-85500000D01*
X114266667Y-85547619D01*
X114314286Y-85642857D01*
X114314286Y-85785714D01*
X114266667Y-85880952D01*
X114219048Y-85928571D01*
X114123810Y-85976190D01*
X113742857Y-85976190D01*
X115266667Y-86452381D02*
X114695238Y-86452381D01*
X114980952Y-86452381D02*
X114980952Y-85452381D01*
X114885714Y-85595238D01*
X114790476Y-85690476D01*
X114695238Y-85738095D01*
X134788095Y-91152381D02*
X135359524Y-91152381D01*
X135073809Y-92152381D02*
X135073809Y-91152381D01*
X136216667Y-92152381D02*
X135645238Y-92152381D01*
X135930952Y-92152381D02*
X135930952Y-91152381D01*
X135835714Y-91295238D01*
X135740476Y-91390476D01*
X135645238Y-91438095D01*
D11*
X124416667Y-61292857D02*
X124416667Y-62150000D01*
X124369047Y-62321429D01*
X124273809Y-62435714D01*
X124130952Y-62492857D01*
X124035714Y-62492857D01*
X124797619Y-61292857D02*
X125464286Y-61292857D01*
X125035714Y-62492857D01*
X124516667Y-105292857D02*
X124516667Y-106150000D01*
X124469047Y-106321429D01*
X124373809Y-106435714D01*
X124230952Y-106492857D01*
X124135714Y-106492857D01*
X125421429Y-105692857D02*
X125421429Y-106492857D01*
X125183333Y-105235714D02*
X124945238Y-106092857D01*
X125564286Y-106092857D01*
D12*
X125154762Y-86097619D02*
X125059524Y-86050000D01*
X124964286Y-85954762D01*
X124821429Y-85811905D01*
X124726190Y-85764286D01*
X124630952Y-85764286D01*
X124678571Y-86002381D02*
X124583333Y-85954762D01*
X124488095Y-85859524D01*
X124440476Y-85669048D01*
X124440476Y-85335714D01*
X124488095Y-85145238D01*
X124583333Y-85050000D01*
X124678571Y-85002381D01*
X124869048Y-85002381D01*
X124964286Y-85050000D01*
X125059524Y-85145238D01*
X125107143Y-85335714D01*
X125107143Y-85669048D01*
X125059524Y-85859524D01*
X124964286Y-85954762D01*
X124869048Y-86002381D01*
X124678571Y-86002381D01*
X125440476Y-85002381D02*
X126059524Y-85002381D01*
X125726190Y-85383333D01*
X125869048Y-85383333D01*
X125964286Y-85430952D01*
X126011905Y-85478571D01*
X126059524Y-85573810D01*
X126059524Y-85811905D01*
X126011905Y-85907143D01*
X125964286Y-85954762D01*
X125869048Y-86002381D01*
X125583333Y-86002381D01*
X125488095Y-85954762D01*
X125440476Y-85907143D01*
M02*
